{"glyphs":{"0":{"ha":953,"x_min":51,"x_max":874,"o":"m 374 -19 q 137 83 222 -19 q 51 361 51 186 q 114 669 51 524 q 291 903 176 814 q 551 992 406 992 q 788 892 703 992 q 874 621 874 792 q 810 311 874 458 q 633 72 747 164 q 374 -19 518 -19 m 399 128 q 565 200 496 128 q 671 384 635 272 q 707 611 707 496 q 658 786 707 726 q 525 846 610 846 q 358 775 428 846 q 253 594 289 704 q 218 367 218 483 q 265 188 218 247 q 399 128 313 128 z "},"1":{"ha":485,"x_min":83,"x_max":428,"o":"m 224 739 q 83 679 150 693 l 90 821 q 208 878 143 833 q 306 972 274 924 l 428 972 l 256 0 l 93 0 l 224 739 z "},"2":{"ha":708,"x_min":-42,"x_max":639,"o":"m 282 396 q 431 596 392 531 q 471 725 471 661 q 442 808 471 778 q 364 838 414 838 q 240 807 300 838 q 110 718 179 776 l 119 885 q 414 992 258 992 q 582 931 525 992 q 639 772 639 871 q 610 628 639 697 q 531 490 581 558 q 390 314 481 421 l 256 153 l 575 153 l 549 0 l -42 0 l 282 396 z "},"3":{"ha":724,"x_min":-42,"x_max":651,"o":"m 464 517 q 567 431 531 488 q 604 293 604 375 q 558 131 604 201 q 430 20 511 60 q 249 -19 349 -19 q -42 65 92 -19 l 24 207 q 254 124 138 124 q 385 168 336 124 q 435 290 435 213 q 393 394 435 358 q 268 429 351 429 l 192 429 l 218 581 l 293 581 q 434 623 381 581 q 488 736 488 665 q 454 819 488 789 q 360 849 421 849 q 136 775 263 849 l 138 925 q 403 992 261 992 q 585 931 518 992 q 651 771 651 871 q 601 617 651 685 q 464 517 550 549 z "},"4":{"ha":808,"x_min":-33,"x_max":736,"o":"m 736 365 l 711 231 l 600 231 l 560 0 l 406 0 l 446 231 l -33 231 l 619 972 l 732 972 l 625 365 l 736 365 m 471 365 l 525 678 l 251 365 l 471 365 z "},"5":{"ha":706,"x_min":-37,"x_max":675,"o":"m 326 814 l 263 608 q 326 613 293 613 q 531 540 456 613 q 606 340 606 467 q 556 153 606 235 q 419 27 506 72 q 231 -18 333 -18 q -37 61 74 -18 l 38 200 q 136 147 89 165 q 240 129 183 129 q 384 181 328 129 q 440 317 440 232 q 394 435 440 393 q 258 476 347 476 q 78 457 171 476 l 228 972 l 675 972 l 638 814 l 326 814 z "},"6":{"ha":789,"x_min":38,"x_max":694,"o":"m 449 585 q 627 515 560 585 q 694 332 694 444 q 647 153 694 233 q 515 27 599 74 q 329 -19 432 -19 q 117 59 197 -19 q 38 269 38 138 q 117 554 38 413 q 326 810 197 696 q 601 992 456 925 l 693 885 q 444 737 571 831 q 250 525 318 643 q 449 585 335 585 m 342 118 q 442 144 397 118 q 512 215 486 171 q 538 313 538 260 q 499 409 538 371 q 401 447 461 447 q 301 422 346 447 q 229 351 256 396 q 203 253 203 306 q 242 156 203 193 q 342 118 281 118 z "},"7":{"ha":706,"x_min":26,"x_max":761,"o":"m 761 972 l 199 0 l 26 0 l 497 818 l 118 818 l 146 972 l 761 972 z "},"8":{"ha":819,"x_min":32,"x_max":732,"o":"m 599 529 q 676 447 649 497 q 703 332 703 396 q 652 151 703 232 q 515 26 601 71 q 325 -19 428 -19 q 112 48 192 -19 q 32 226 32 115 q 85 407 32 326 q 228 531 139 488 q 157 685 160 589 q 201 842 157 772 q 323 952 246 913 q 492 992 400 992 q 672 931 613 992 q 732 778 732 871 q 697 634 732 699 q 599 529 661 569 m 471 858 q 353 814 399 858 q 307 704 307 769 q 339 626 308 657 q 425 596 369 596 q 538 642 493 596 q 582 753 582 688 q 554 831 582 803 q 471 858 526 858 m 340 124 q 490 178 432 124 q 547 315 547 232 q 508 415 547 378 q 399 451 469 451 q 250 394 308 451 q 192 251 192 338 q 231 158 192 192 q 340 124 269 124 z "},"9":{"ha":800,"x_min":85,"x_max":742,"o":"m 450 992 q 662 913 582 992 q 742 703 742 835 q 662 418 742 560 q 453 162 582 276 q 178 -19 324 47 l 86 88 q 335 235 208 142 q 529 447 461 329 q 331 388 444 388 q 152 458 219 388 q 85 640 85 528 q 133 819 85 739 q 264 945 181 899 q 450 992 347 992 m 378 525 q 478 551 433 525 q 550 622 524 576 q 576 719 576 667 q 538 817 576 779 q 438 854 499 854 q 338 828 382 854 q 267 757 293 801 q 242 660 242 713 q 280 563 242 601 q 378 525 318 525 z "},"\r":{"ha":294,"x_min":0,"x_max":0,"o":""}," ":{"ha":294,"x_min":0,"x_max":0,"o":""},"A":{"ha":826,"x_min":-57,"x_max":751,"o":"m 440 972 l 597 972 l 751 0 l 581 0 l 543 243 l 235 243 l 114 0 l -57 0 l 440 972 m 515 400 l 474 721 l 318 400 l 515 400 z "},"Á":{"ha":826,"x_min":-57,"x_max":751,"o":"m 440 972 l 597 972 l 751 0 l 581 0 l 543 243 l 235 243 l 114 0 l -57 0 l 440 972 m 515 400 l 474 721 l 318 400 l 515 400 m 431 1185 l 703 1333 l 678 1165 l 408 1076 l 431 1185 z "},"Ă":{"ha":826,"x_min":-57,"x_max":786,"o":"m 440 972 l 597 972 l 751 0 l 581 0 l 543 243 l 235 243 l 114 0 l -57 0 l 440 972 m 515 400 l 474 721 l 318 400 l 515 400 m 546 1093 q 413 1135 461 1093 q 364 1243 364 1178 q 369 1281 364 1265 l 479 1281 q 476 1258 476 1267 q 497 1210 476 1226 q 554 1193 517 1193 q 627 1216 597 1193 q 664 1281 657 1239 l 786 1281 q 705 1144 767 1194 q 546 1093 643 1093 z "},"Ắ":{"ha":826,"x_min":-57,"x_max":781,"o":"m 440 972 l 597 972 l 751 0 l 581 0 l 543 243 l 235 243 l 114 0 l -57 0 l 440 972 m 515 400 l 474 721 l 318 400 l 515 400 m 539 1063 q 404 1103 451 1063 q 357 1208 357 1144 q 360 1240 357 1218 l 475 1240 q 472 1219 472 1229 q 494 1171 472 1188 q 553 1154 517 1154 q 626 1177 596 1154 q 663 1240 656 1200 l 781 1240 q 703 1111 767 1160 q 539 1063 639 1063 m 494 1396 l 754 1528 l 731 1378 l 481 1297 l 494 1396 z "},"Ặ":{"ha":826,"x_min":-57,"x_max":769,"o":"m 440 972 l 597 972 l 751 0 l 581 0 l 543 243 l 235 243 l 114 0 l -57 0 l 440 972 m 515 400 l 474 721 l 318 400 l 515 400 m 528 1063 q 393 1103 440 1063 q 346 1208 346 1144 q 349 1240 346 1218 l 464 1240 q 461 1219 461 1229 q 483 1171 461 1188 q 542 1154 506 1154 q 615 1177 585 1154 q 651 1240 644 1200 l 769 1240 q 692 1111 756 1160 q 528 1063 628 1063 m 261 -112 l 396 -112 l 371 -244 l 236 -244 l 261 -112 z "},"Ằ":{"ha":826,"x_min":-57,"x_max":771,"o":"m 440 972 l 597 972 l 751 0 l 581 0 l 543 243 l 235 243 l 114 0 l -57 0 l 440 972 m 515 400 l 474 721 l 318 400 l 515 400 m 529 1063 q 394 1103 442 1063 q 347 1208 347 1144 q 350 1240 347 1218 l 465 1240 q 463 1219 463 1229 q 485 1171 463 1188 q 543 1154 507 1154 q 616 1177 586 1154 q 653 1240 646 1200 l 771 1240 q 693 1111 757 1160 q 529 1063 629 1063 m 472 1378 l 499 1519 l 732 1388 l 714 1297 l 472 1378 z "},"Ẳ":{"ha":826,"x_min":-57,"x_max":793,"o":"m 440 972 l 597 972 l 751 0 l 581 0 l 543 243 l 235 243 l 114 0 l -57 0 l 440 972 m 515 400 l 474 721 l 318 400 l 515 400 m 551 1072 q 417 1113 464 1072 q 369 1218 369 1154 q 372 1250 369 1228 l 488 1250 q 485 1229 485 1239 q 507 1181 485 1197 q 565 1164 529 1164 q 638 1187 608 1164 q 675 1250 668 1210 l 793 1250 q 715 1121 779 1169 q 551 1072 651 1072 m 590 1331 q 649 1385 649 1346 q 603 1419 649 1419 q 515 1397 567 1419 l 506 1478 q 619 1500 561 1500 q 705 1476 672 1500 q 738 1407 738 1451 q 593 1271 738 1304 l 590 1331 z "},"Ẵ":{"ha":826,"x_min":-57,"x_max":840,"o":"m 440 972 l 597 972 l 751 0 l 581 0 l 543 243 l 235 243 l 114 0 l -57 0 l 440 972 m 515 400 l 474 721 l 318 400 l 515 400 m 546 1063 q 411 1103 458 1063 q 364 1208 364 1144 q 367 1240 364 1218 l 482 1240 q 479 1219 479 1229 q 501 1171 479 1188 q 560 1154 524 1154 q 633 1177 603 1154 q 669 1240 663 1200 l 788 1240 q 710 1111 774 1160 q 546 1063 646 1063 m 707 1307 q 664 1315 686 1307 q 608 1336 642 1322 q 565 1353 588 1346 q 528 1361 543 1361 q 482 1317 490 1361 l 382 1317 q 428 1423 394 1386 q 517 1460 463 1460 q 613 1432 551 1460 q 656 1415 633 1422 q 694 1407 678 1407 q 740 1453 732 1407 l 840 1453 q 796 1344 831 1382 q 707 1307 761 1307 z "},"Â":{"ha":826,"x_min":-57,"x_max":751,"o":"m 440 972 l 597 972 l 751 0 l 581 0 l 543 243 l 235 243 l 114 0 l -57 0 l 440 972 m 515 400 l 474 721 l 318 400 l 515 400 m 396 1176 l 578 1313 l 728 1158 l 707 1056 l 550 1169 l 372 1071 l 396 1176 z "},"Ấ":{"ha":826,"x_min":-57,"x_max":900,"o":"m 440 972 l 597 972 l 751 0 l 581 0 l 543 243 l 235 243 l 114 0 l -57 0 l 440 972 m 515 400 l 474 721 l 318 400 l 515 400 m 749 1415 l 900 1415 l 744 1256 l 642 1256 l 749 1415 m 722 1144 l 706 1047 l 542 1146 l 375 1064 l 393 1161 l 565 1272 l 722 1144 z "},"Ậ":{"ha":826,"x_min":-57,"x_max":751,"o":"m 440 972 l 597 972 l 751 0 l 581 0 l 543 243 l 235 243 l 114 0 l -57 0 l 440 972 m 515 400 l 474 721 l 318 400 l 515 400 m 721 1135 l 704 1038 l 540 1136 l 374 1054 l 392 1151 l 564 1263 l 721 1135 m 261 -112 l 396 -112 l 371 -244 l 236 -244 l 261 -112 z "},"Ầ":{"ha":826,"x_min":-57,"x_max":754,"o":"m 440 972 l 597 972 l 751 0 l 581 0 l 543 243 l 235 243 l 114 0 l -57 0 l 440 972 m 515 400 l 474 721 l 318 400 l 515 400 m 654 1256 l 568 1428 l 711 1428 l 754 1256 l 654 1256 m 721 1144 l 704 1047 l 540 1146 l 374 1064 l 392 1161 l 564 1272 l 721 1144 z "},"Ẩ":{"ha":826,"x_min":-57,"x_max":814,"o":"m 440 972 l 597 972 l 751 0 l 581 0 l 543 243 l 235 243 l 114 0 l -57 0 l 440 972 m 515 400 l 474 721 l 318 400 l 515 400 m 721 1135 l 704 1038 l 540 1136 l 374 1054 l 392 1151 l 564 1263 l 721 1135 m 667 1271 q 725 1325 725 1286 q 679 1360 725 1360 q 592 1338 643 1360 l 582 1418 q 696 1440 638 1440 q 781 1416 749 1440 q 814 1347 814 1392 q 669 1211 814 1244 l 667 1271 z "},"Ẫ":{"ha":826,"x_min":-57,"x_max":819,"o":"m 440 972 l 597 972 l 751 0 l 581 0 l 543 243 l 235 243 l 114 0 l -57 0 l 440 972 m 515 400 l 474 721 l 318 400 l 515 400 m 721 1135 l 704 1038 l 540 1136 l 374 1054 l 392 1151 l 564 1263 l 721 1135 m 686 1300 q 643 1308 665 1300 q 588 1329 621 1315 q 544 1347 567 1339 q 507 1354 522 1354 q 461 1310 469 1354 l 361 1310 q 408 1416 374 1379 q 496 1453 442 1453 q 592 1425 531 1453 q 635 1408 613 1415 q 674 1400 657 1400 q 719 1446 711 1400 l 819 1446 q 775 1338 810 1375 q 686 1300 740 1300 z "},"Ȁ":{"ha":826,"x_min":-57,"x_max":751,"o":"m 440 972 l 597 972 l 751 0 l 581 0 l 543 243 l 235 243 l 114 0 l -57 0 l 440 972 m 515 400 l 474 721 l 318 400 l 515 400 m 382 1094 l 283 1308 l 432 1308 l 483 1094 l 382 1094 m 581 1094 l 492 1308 l 640 1308 l 682 1094 l 581 1094 z "},"Ä":{"ha":826,"x_min":-57,"x_max":757,"o":"m 440 972 l 597 972 l 751 0 l 581 0 l 543 243 l 235 243 l 114 0 l -57 0 l 440 972 m 515 400 l 474 721 l 318 400 l 515 400 m 361 1224 l 488 1224 l 464 1103 l 338 1103 l 361 1224 m 631 1224 l 757 1224 l 733 1103 l 607 1103 l 631 1224 z "},"Ạ":{"ha":826,"x_min":-57,"x_max":751,"o":"m 440 972 l 597 972 l 751 0 l 581 0 l 543 243 l 235 243 l 114 0 l -57 0 l 440 972 m 515 400 l 474 721 l 318 400 l 515 400 m 261 -112 l 396 -112 l 371 -244 l 236 -244 l 261 -112 z "},"À":{"ha":826,"x_min":-57,"x_max":751,"o":"m 440 972 l 597 972 l 751 0 l 581 0 l 543 243 l 235 243 l 114 0 l -57 0 l 440 972 m 515 400 l 474 721 l 318 400 l 515 400 m 418 1179 l 446 1332 l 675 1178 l 657 1076 l 418 1179 z "},"Ả":{"ha":826,"x_min":-57,"x_max":751,"o":"m 440 972 l 597 972 l 751 0 l 581 0 l 543 243 l 235 243 l 114 0 l -57 0 l 440 972 m 515 400 l 474 721 l 318 400 l 515 400 m 501 1069 q 560 1122 542 1101 q 579 1169 579 1143 q 568 1197 579 1188 q 536 1207 557 1207 q 444 1182 501 1207 l 436 1260 q 551 1285 496 1285 q 635 1260 603 1285 q 668 1189 667 1235 q 635 1099 668 1138 q 542 1019 603 1060 l 501 1069 z "},"Ȃ":{"ha":826,"x_min":-57,"x_max":751,"o":"m 440 972 l 597 972 l 751 0 l 581 0 l 543 243 l 235 243 l 114 0 l -57 0 l 440 972 m 515 400 l 474 721 l 318 400 l 515 400 m 563 1261 q 696 1220 649 1261 q 743 1115 743 1179 q 740 1083 743 1103 l 624 1083 q 626 1103 626 1097 q 605 1152 626 1135 q 546 1169 583 1169 q 475 1147 504 1169 q 439 1083 446 1124 l 324 1083 q 401 1210 336 1158 q 563 1261 467 1261 z "},"Ā":{"ha":826,"x_min":-57,"x_max":774,"o":"m 440 972 l 597 972 l 751 0 l 581 0 l 543 243 l 235 243 l 114 0 l -57 0 l 440 972 m 515 400 l 474 721 l 318 400 l 515 400 m 331 1204 l 774 1204 l 754 1101 l 313 1101 l 331 1204 z "},"Ą":{"ha":826,"x_min":-57,"x_max":758,"o":"m 440 972 l 597 972 l 751 0 l 581 0 l 543 243 l 235 243 l 114 0 l -57 0 l 440 972 m 515 400 l 474 721 l 318 400 l 515 400 m 750 0 q 652 -80 689 -40 q 615 -161 615 -119 q 628 -199 615 -186 q 667 -211 642 -211 q 750 -193 710 -211 l 758 -267 q 642 -292 706 -292 q 557 -266 589 -292 q 524 -194 525 -240 q 566 -87 524 -139 q 668 0 608 -36 l 750 0 z "},"Å":{"ha":826,"x_min":-57,"x_max":751,"o":"m 440 972 l 597 972 l 751 0 l 581 0 l 543 243 l 235 243 l 114 0 l -57 0 l 440 972 m 515 400 l 474 721 l 318 400 l 515 400 m 531 1072 q 442 1103 474 1072 q 411 1182 411 1135 q 435 1264 411 1226 q 497 1324 458 1301 q 582 1346 536 1346 q 670 1315 639 1346 q 701 1238 701 1285 q 651 1120 701 1168 q 531 1072 601 1072 m 543 1142 q 597 1166 574 1142 q 619 1224 619 1190 q 606 1262 619 1247 q 569 1276 592 1276 q 515 1251 539 1276 q 492 1194 492 1226 q 506 1156 492 1171 q 543 1142 519 1142 z "},"Ǻ":{"ha":826,"x_min":-57,"x_max":751,"o":"m 440 972 l 597 972 l 751 0 l 581 0 l 543 243 l 235 243 l 114 0 l -57 0 l 440 972 m 515 400 l 474 721 l 318 400 l 515 400 m 528 1049 q 439 1080 471 1049 q 407 1160 407 1111 q 455 1273 407 1226 q 569 1319 503 1319 q 658 1288 626 1319 q 689 1207 689 1256 q 642 1094 689 1140 q 528 1049 594 1049 m 536 1117 q 588 1141 567 1117 q 610 1196 610 1165 q 595 1235 608 1219 q 560 1250 582 1250 q 509 1226 531 1250 q 488 1171 488 1203 q 501 1131 488 1146 q 536 1117 515 1117 m 476 1457 l 736 1589 l 713 1439 l 463 1358 l 476 1457 z "},"Ã":{"ha":826,"x_min":-57,"x_max":794,"o":"m 440 972 l 597 972 l 751 0 l 581 0 l 543 243 l 235 243 l 114 0 l -57 0 l 440 972 m 515 400 l 474 721 l 318 400 l 515 400 m 654 1086 q 610 1094 633 1086 q 556 1117 588 1101 q 469 1146 497 1146 q 433 1133 447 1146 q 414 1097 418 1119 l 307 1097 q 358 1219 321 1176 q 453 1261 396 1261 q 499 1252 476 1261 q 551 1228 522 1243 q 594 1208 572 1217 q 632 1200 615 1200 q 685 1254 676 1200 l 794 1254 q 744 1127 779 1168 q 654 1086 710 1086 z "},"Æ":{"ha":1147,"x_min":-76,"x_max":1188,"o":"m 542 972 l 1188 972 l 1158 815 l 769 815 l 729 586 l 1029 586 l 1001 429 l 701 429 l 653 156 l 1056 156 l 1028 0 l 457 0 l 499 239 l 243 239 l 93 0 l -76 0 l 542 972 m 528 399 l 600 813 l 347 399 l 528 399 z "},"Ǽ":{"ha":1147,"x_min":-76,"x_max":1188,"o":"m 542 972 l 1188 972 l 1158 815 l 769 815 l 729 586 l 1029 586 l 1001 429 l 701 429 l 653 156 l 1056 156 l 1028 0 l 457 0 l 499 239 l 243 239 l 93 0 l -76 0 l 542 972 m 528 399 l 600 813 l 347 399 l 528 399 m 776 1156 l 1036 1288 l 1013 1138 l 763 1057 l 776 1156 z "},"B":{"ha":835,"x_min":38,"x_max":768,"o":"m 208 972 l 475 972 q 689 923 613 972 q 765 756 765 874 q 729 616 765 678 q 631 518 693 554 q 733 444 699 494 q 768 322 768 394 q 717 148 768 221 q 581 38 667 75 q 388 0 494 0 l 38 0 l 208 972 m 444 578 q 553 618 511 578 q 596 728 596 658 q 569 806 596 782 q 488 831 542 831 l 347 831 l 303 578 l 444 578 m 383 142 q 531 187 474 142 q 589 315 589 232 q 553 411 589 378 q 446 444 517 444 l 279 444 l 225 142 l 383 142 z "},"C":{"ha":813,"x_min":60,"x_max":863,"o":"m 438 -19 q 237 30 322 -19 q 106 174 151 79 q 60 397 60 268 q 135 701 60 565 q 337 915 210 838 q 614 992 464 992 q 749 976 682 992 q 863 935 815 960 l 817 779 q 704 821 757 806 q 592 836 651 836 q 402 778 482 836 q 281 622 322 719 q 240 411 240 525 q 296 209 240 282 q 471 136 351 136 q 713 192 567 136 l 703 38 q 576 -4 649 11 q 438 -19 504 -19 z "},"Ć":{"ha":813,"x_min":60,"x_max":863,"o":"m 438 -19 q 237 30 322 -19 q 106 174 151 79 q 60 397 60 268 q 135 701 60 565 q 337 915 210 838 q 614 992 464 992 q 749 976 682 992 q 863 935 815 960 l 817 779 q 704 821 757 806 q 592 836 651 836 q 402 778 482 836 q 281 622 322 719 q 240 411 240 525 q 296 209 240 282 q 471 136 351 136 q 713 192 567 136 l 703 38 q 576 -4 649 11 q 438 -19 504 -19 m 542 1156 l 801 1288 l 778 1138 l 528 1057 l 542 1156 z "},"Č":{"ha":813,"x_min":60,"x_max":863,"o":"m 438 -19 q 237 30 322 -19 q 106 174 151 79 q 60 397 60 268 q 135 701 60 565 q 337 915 210 838 q 614 992 464 992 q 749 976 682 992 q 863 935 815 960 l 817 779 q 704 821 757 806 q 592 836 651 836 q 402 778 482 836 q 281 622 322 719 q 240 411 240 525 q 296 209 240 282 q 471 136 351 136 q 713 192 567 136 l 703 38 q 576 -4 649 11 q 438 -19 504 -19 m 478 1165 l 494 1263 l 656 1158 l 826 1258 l 808 1149 l 636 1038 l 478 1165 z "},"Ç":{"ha":813,"x_min":60,"x_max":863,"o":"m 592 836 q 402 778 482 836 q 281 622 322 719 q 240 411 240 525 q 296 209 240 282 q 471 136 351 136 q 713 192 567 136 l 703 38 q 598 1 657 15 q 481 -18 539 -14 l 453 -75 l 463 -75 q 540 -101 511 -75 q 568 -172 568 -126 q 517 -283 568 -240 q 389 -326 465 -326 q 281 -300 325 -326 l 319 -222 q 404 -246 364 -246 q 460 -231 440 -246 q 481 -190 481 -215 q 465 -158 481 -169 q 418 -147 449 -147 q 349 -157 386 -147 l 407 -18 q 153 101 246 -8 q 60 397 60 210 q 135 701 60 565 q 337 915 210 838 q 614 992 464 992 q 749 976 682 992 q 863 935 815 960 l 817 779 q 704 821 757 806 q 592 836 651 836 z "},"Ḉ":{"ha":813,"x_min":60,"x_max":863,"o":"m 778 1138 l 528 1057 l 542 1156 l 801 1288 l 778 1138 m 592 836 q 402 778 482 836 q 281 622 322 719 q 240 411 240 525 q 296 209 240 282 q 471 136 351 136 q 713 192 567 136 l 703 38 q 598 1 657 15 q 481 -18 539 -14 l 453 -75 l 463 -75 q 540 -101 511 -75 q 568 -172 568 -126 q 517 -283 568 -240 q 389 -326 465 -326 q 281 -300 325 -326 l 319 -222 q 404 -246 364 -246 q 460 -231 440 -246 q 481 -190 481 -215 q 465 -158 481 -169 q 418 -147 449 -147 q 349 -157 386 -147 l 407 -18 q 153 101 246 -8 q 60 397 60 210 q 135 701 60 565 q 337 915 210 838 q 614 992 464 992 q 749 976 682 992 q 863 935 815 960 l 817 779 q 704 821 757 806 q 592 836 651 836 z "},"Ĉ":{"ha":813,"x_min":60,"x_max":863,"o":"m 438 -19 q 237 30 322 -19 q 106 174 151 79 q 60 397 60 268 q 135 701 60 565 q 337 915 210 838 q 614 992 464 992 q 749 976 682 992 q 863 935 815 960 l 817 779 q 704 821 757 806 q 592 836 651 836 q 402 778 482 836 q 281 622 322 719 q 240 411 240 525 q 296 209 240 282 q 471 136 351 136 q 713 192 567 136 l 703 38 q 576 -4 649 11 q 438 -19 504 -19 m 839 1135 l 822 1038 l 658 1136 l 492 1054 l 510 1151 l 682 1263 l 839 1135 z "},"Ċ":{"ha":813,"x_min":60,"x_max":863,"o":"m 438 -19 q 237 30 322 -19 q 106 174 151 79 q 60 397 60 268 q 135 701 60 565 q 337 915 210 838 q 614 992 464 992 q 749 976 682 992 q 863 935 815 960 l 817 779 q 704 821 757 806 q 592 836 651 836 q 402 778 482 836 q 281 622 322 719 q 240 411 240 525 q 296 209 240 282 q 471 136 351 136 q 713 192 567 136 l 703 38 q 576 -4 649 11 q 438 -19 504 -19 m 607 1232 l 744 1232 l 721 1100 l 583 1100 l 607 1232 z "},"D":{"ha":963,"x_min":38,"x_max":928,"o":"m 208 972 l 550 972 q 826 867 725 972 q 928 568 928 763 q 854 274 928 403 q 655 72 781 144 q 379 0 529 0 l 38 0 l 208 972 m 407 156 q 591 209 514 156 q 708 353 668 263 q 747 554 747 444 q 691 749 747 682 q 524 817 635 817 l 344 817 l 228 156 l 407 156 z "},"Ǆ":{"ha":1672,"x_min":38,"x_max":1757,"o":"m 208 972 l 550 972 q 826 867 725 972 q 928 568 928 763 q 854 274 928 403 q 655 72 781 144 q 379 0 529 0 l 38 0 l 208 972 m 407 156 q 591 209 514 156 q 708 353 668 263 q 747 554 747 444 q 691 749 747 682 q 524 817 635 817 l 344 817 l 228 156 l 407 156 m 1458 817 l 1092 817 l 1118 972 l 1757 972 l 1186 156 l 1553 156 l 1526 0 l 888 0 l 1458 817 m 1303 1213 l 1324 1315 l 1482 1201 l 1678 1315 l 1657 1199 l 1454 1058 l 1303 1213 z "},"Ð":{"ha":976,"x_min":35,"x_max":942,"o":"m 565 972 q 764 926 679 972 q 895 790 849 879 q 942 581 942 701 q 869 275 942 407 q 670 72 796 143 q 393 0 544 0 l 51 0 l 128 432 l 35 432 l 57 557 l 149 557 l 222 972 l 565 972 m 421 156 q 606 208 529 156 q 722 354 682 261 q 761 565 761 447 q 705 750 761 683 q 538 817 649 817 l 358 817 l 313 557 l 493 557 l 471 432 l 290 432 l 242 156 l 421 156 z "},"Ď":{"ha":963,"x_min":38,"x_max":928,"o":"m 208 972 l 550 972 q 826 867 725 972 q 928 568 928 763 q 854 274 928 403 q 655 72 781 144 q 379 0 529 0 l 38 0 l 208 972 m 407 156 q 591 209 514 156 q 708 353 668 263 q 747 554 747 444 q 691 749 747 682 q 524 817 635 817 l 344 817 l 228 156 l 407 156 m 439 1165 l 456 1263 l 617 1158 l 788 1258 l 769 1149 l 597 1038 l 439 1165 z "},"Đ":{"ha":976,"x_min":35,"x_max":942,"o":"m 565 972 q 764 926 679 972 q 895 790 849 879 q 942 581 942 701 q 869 275 942 407 q 670 72 796 143 q 393 0 544 0 l 51 0 l 128 432 l 35 432 l 57 557 l 149 557 l 222 972 l 565 972 m 421 156 q 606 208 529 156 q 722 354 682 261 q 761 565 761 447 q 705 750 761 683 q 538 817 649 817 l 358 817 l 313 557 l 493 557 l 471 432 l 290 432 l 242 156 l 421 156 z "},"Ḍ":{"ha":963,"x_min":38,"x_max":928,"o":"m 208 972 l 550 972 q 826 867 725 972 q 928 568 928 763 q 854 274 928 403 q 655 72 781 144 q 379 0 529 0 l 38 0 l 208 972 m 407 156 q 591 209 514 156 q 708 353 668 263 q 747 554 747 444 q 691 749 747 682 q 524 817 635 817 l 344 817 l 228 156 l 407 156 m 394 -112 l 529 -112 l 504 -244 l 369 -244 l 394 -112 z "},"Ḏ":{"ha":963,"x_min":38,"x_max":928,"o":"m 208 972 l 550 972 q 826 867 725 972 q 928 568 928 763 q 854 274 928 403 q 655 72 781 144 q 379 0 529 0 l 38 0 l 208 972 m 407 156 q 591 209 514 156 q 708 353 668 263 q 747 554 747 444 q 691 749 747 682 q 524 817 635 817 l 344 817 l 228 156 l 407 156 m 239 -126 l 679 -126 l 658 -235 l 217 -235 l 239 -126 z "},"ǅ":{"ha":1581,"x_min":38,"x_max":1599,"o":"m 208 972 l 550 972 q 826 867 725 972 q 928 568 928 763 q 854 274 928 403 q 655 72 781 144 q 379 0 529 0 l 38 0 l 208 972 m 407 156 q 591 209 514 156 q 708 353 668 263 q 747 554 747 444 q 691 749 747 682 q 524 817 635 817 l 344 817 l 228 156 l 407 156 m 1311 554 l 1024 554 l 1049 690 l 1599 690 l 1201 136 l 1488 136 l 1463 0 l 914 0 l 1311 554 m 1189 931 l 1210 1033 l 1368 919 l 1564 1033 l 1543 917 l 1340 776 l 1189 931 z "},"E":{"ha":754,"x_min":38,"x_max":793,"o":"m 208 972 l 793 972 l 765 817 l 349 817 l 308 586 l 631 586 l 604 429 l 281 429 l 232 156 l 661 156 l 633 0 l 38 0 l 208 972 z "},"É":{"ha":754,"x_min":38,"x_max":793,"o":"m 208 972 l 793 972 l 765 817 l 349 817 l 308 586 l 631 586 l 604 429 l 281 429 l 232 156 l 661 156 l 633 0 l 38 0 l 208 972 m 419 1185 l 692 1333 l 667 1165 l 397 1076 l 419 1185 z "},"Ĕ":{"ha":754,"x_min":38,"x_max":793,"o":"m 208 972 l 793 972 l 765 817 l 349 817 l 308 586 l 631 586 l 604 429 l 281 429 l 232 156 l 661 156 l 633 0 l 38 0 l 208 972 m 517 1063 q 382 1103 429 1063 q 335 1208 335 1144 q 338 1240 335 1218 l 453 1240 q 450 1219 450 1229 q 472 1171 450 1188 q 531 1154 494 1154 q 603 1177 574 1154 q 640 1240 633 1200 l 758 1240 q 681 1111 744 1160 q 517 1063 617 1063 z "},"Ě":{"ha":754,"x_min":38,"x_max":793,"o":"m 208 972 l 793 972 l 765 817 l 349 817 l 308 586 l 631 586 l 604 429 l 281 429 l 232 156 l 661 156 l 633 0 l 38 0 l 208 972 m 349 1165 l 365 1263 l 526 1158 l 697 1258 l 679 1149 l 507 1038 l 349 1165 z "},"Ḝ":{"ha":754,"x_min":38,"x_max":793,"o":"m 208 972 l 793 972 l 765 817 l 349 817 l 308 586 l 631 586 l 604 429 l 281 429 l 232 156 l 661 156 l 633 0 l 38 0 l 208 972 m 364 -75 q 441 -101 413 -75 q 469 -172 469 -126 q 418 -283 469 -240 q 290 -326 367 -326 q 182 -300 226 -326 l 221 -222 q 306 -246 265 -246 q 362 -231 342 -246 q 382 -190 382 -215 q 366 -158 382 -169 q 319 -147 350 -147 q 250 -157 288 -147 l 317 0 l 390 0 l 354 -75 l 364 -75 m 517 1063 q 382 1103 429 1063 q 335 1208 335 1144 q 338 1240 335 1218 l 453 1240 q 450 1219 450 1229 q 472 1171 450 1188 q 531 1154 494 1154 q 603 1177 574 1154 q 640 1240 633 1200 l 758 1240 q 681 1111 744 1160 q 517 1063 617 1063 z "},"Ê":{"ha":754,"x_min":38,"x_max":793,"o":"m 208 972 l 793 972 l 765 817 l 349 817 l 308 586 l 631 586 l 604 429 l 281 429 l 232 156 l 661 156 l 633 0 l 38 0 l 208 972 m 385 1176 l 567 1313 l 717 1158 l 696 1056 l 539 1169 l 361 1071 l 385 1176 z "},"Ế":{"ha":754,"x_min":38,"x_max":889,"o":"m 208 972 l 793 972 l 765 817 l 349 817 l 308 586 l 631 586 l 604 429 l 281 429 l 232 156 l 661 156 l 633 0 l 38 0 l 208 972 m 738 1415 l 889 1415 l 733 1256 l 631 1256 l 738 1415 m 711 1144 l 694 1047 l 531 1146 l 364 1064 l 382 1161 l 554 1272 l 711 1144 z "},"Ệ":{"ha":754,"x_min":38,"x_max":793,"o":"m 208 972 l 793 972 l 765 817 l 349 817 l 308 586 l 631 586 l 604 429 l 281 429 l 232 156 l 661 156 l 633 0 l 38 0 l 208 972 m 710 1135 l 693 1038 l 529 1136 l 363 1054 l 381 1151 l 553 1263 l 710 1135 m 264 -112 l 399 -112 l 374 -244 l 239 -244 l 264 -112 z "},"Ề":{"ha":754,"x_min":38,"x_max":793,"o":"m 208 972 l 793 972 l 765 817 l 349 817 l 308 586 l 631 586 l 604 429 l 281 429 l 232 156 l 661 156 l 633 0 l 38 0 l 208 972 m 643 1256 l 557 1428 l 700 1428 l 743 1256 l 643 1256 m 710 1144 l 693 1047 l 529 1146 l 363 1064 l 381 1161 l 553 1272 l 710 1144 z "},"Ể":{"ha":754,"x_min":38,"x_max":803,"o":"m 208 972 l 793 972 l 765 817 l 349 817 l 308 586 l 631 586 l 604 429 l 281 429 l 232 156 l 661 156 l 633 0 l 38 0 l 208 972 m 710 1135 l 693 1038 l 529 1136 l 363 1054 l 381 1151 l 553 1263 l 710 1135 m 656 1271 q 714 1325 714 1286 q 668 1360 714 1360 q 581 1338 632 1360 l 571 1418 q 685 1440 626 1440 q 770 1416 738 1440 q 803 1347 803 1392 q 658 1211 803 1244 l 656 1271 z "},"Ễ":{"ha":754,"x_min":38,"x_max":808,"o":"m 208 972 l 793 972 l 765 817 l 349 817 l 308 586 l 631 586 l 604 429 l 281 429 l 232 156 l 661 156 l 633 0 l 38 0 l 208 972 m 710 1135 l 693 1038 l 529 1136 l 363 1054 l 381 1151 l 553 1263 l 710 1135 m 675 1300 q 632 1308 654 1300 q 576 1329 610 1315 q 533 1347 556 1339 q 496 1354 511 1354 q 450 1310 458 1354 l 350 1310 q 397 1416 363 1379 q 485 1453 431 1453 q 581 1425 519 1453 q 624 1408 601 1415 q 663 1400 646 1400 q 708 1446 700 1400 l 808 1446 q 764 1338 799 1375 q 675 1300 729 1300 z "},"Ȅ":{"ha":754,"x_min":38,"x_max":793,"o":"m 208 972 l 793 972 l 765 817 l 349 817 l 308 586 l 631 586 l 604 429 l 281 429 l 232 156 l 661 156 l 633 0 l 38 0 l 208 972 m 371 1094 l 272 1308 l 421 1308 l 472 1094 l 371 1094 m 569 1094 l 481 1308 l 629 1308 l 671 1094 l 569 1094 z "},"Ë":{"ha":754,"x_min":38,"x_max":793,"o":"m 208 972 l 793 972 l 765 817 l 349 817 l 308 586 l 631 586 l 604 429 l 281 429 l 232 156 l 661 156 l 633 0 l 38 0 l 208 972 m 350 1224 l 476 1224 l 453 1103 l 326 1103 l 350 1224 m 619 1224 l 746 1224 l 722 1103 l 596 1103 l 619 1224 z "},"Ė":{"ha":754,"x_min":38,"x_max":793,"o":"m 208 972 l 793 972 l 765 817 l 349 817 l 308 586 l 631 586 l 604 429 l 281 429 l 232 156 l 661 156 l 633 0 l 38 0 l 208 972 m 478 1232 l 615 1232 l 592 1100 l 454 1100 l 478 1232 z "},"Ẹ":{"ha":754,"x_min":38,"x_max":793,"o":"m 208 972 l 793 972 l 765 817 l 349 817 l 308 586 l 631 586 l 604 429 l 281 429 l 232 156 l 661 156 l 633 0 l 38 0 l 208 972 m 264 -112 l 399 -112 l 374 -244 l 239 -244 l 264 -112 z "},"È":{"ha":754,"x_min":38,"x_max":793,"o":"m 208 972 l 793 972 l 765 817 l 349 817 l 308 586 l 631 586 l 604 429 l 281 429 l 232 156 l 661 156 l 633 0 l 38 0 l 208 972 m 407 1179 l 435 1332 l 664 1178 l 646 1076 l 407 1179 z "},"Ẻ":{"ha":754,"x_min":38,"x_max":793,"o":"m 208 972 l 793 972 l 765 817 l 349 817 l 308 586 l 631 586 l 604 429 l 281 429 l 232 156 l 661 156 l 633 0 l 38 0 l 208 972 m 490 1069 q 549 1122 531 1101 q 568 1169 568 1143 q 557 1197 568 1188 q 525 1207 546 1207 q 433 1182 490 1207 l 425 1260 q 540 1285 485 1285 q 624 1260 592 1285 q 657 1189 656 1235 q 624 1099 657 1138 q 531 1019 592 1060 l 490 1069 z "},"Ȇ":{"ha":754,"x_min":38,"x_max":793,"o":"m 208 972 l 793 972 l 765 817 l 349 817 l 308 586 l 631 586 l 604 429 l 281 429 l 232 156 l 661 156 l 633 0 l 38 0 l 208 972 m 551 1261 q 685 1220 638 1261 q 732 1115 732 1179 q 729 1083 732 1103 l 613 1083 q 615 1103 615 1097 q 594 1152 615 1135 q 535 1169 572 1169 q 464 1147 493 1169 q 428 1083 435 1124 l 313 1083 q 390 1210 325 1158 q 551 1261 456 1261 z "},"Ē":{"ha":754,"x_min":38,"x_max":793,"o":"m 208 972 l 793 972 l 765 817 l 349 817 l 308 586 l 631 586 l 604 429 l 281 429 l 232 156 l 661 156 l 633 0 l 38 0 l 208 972 m 319 1204 l 763 1204 l 743 1101 l 301 1101 l 319 1204 z "},"Ḗ":{"ha":754,"x_min":38,"x_max":793,"o":"m 208 972 l 793 972 l 765 817 l 349 817 l 308 586 l 631 586 l 604 429 l 281 429 l 232 156 l 661 156 l 633 0 l 38 0 l 208 972 m 319 1204 l 763 1204 l 743 1101 l 301 1101 l 319 1204 m 460 1385 l 719 1517 l 696 1367 l 446 1286 l 460 1385 z "},"Ḕ":{"ha":754,"x_min":38,"x_max":793,"o":"m 208 972 l 793 972 l 765 817 l 349 817 l 308 586 l 631 586 l 604 429 l 281 429 l 232 156 l 661 156 l 633 0 l 38 0 l 208 972 m 319 1204 l 763 1204 l 743 1101 l 301 1101 l 319 1204 m 447 1367 l 474 1508 l 707 1376 l 689 1286 l 447 1367 z "},"Ę":{"ha":754,"x_min":38,"x_max":793,"o":"m 208 972 l 793 972 l 765 817 l 349 817 l 308 586 l 631 586 l 604 429 l 281 429 l 232 156 l 661 156 l 633 0 l 38 0 l 208 972 m 632 0 q 534 -80 571 -40 q 497 -161 497 -119 q 510 -199 497 -186 q 549 -211 524 -211 q 632 -193 592 -211 l 640 -267 q 524 -292 588 -292 q 439 -266 471 -292 q 406 -194 407 -240 q 448 -87 406 -139 q 550 0 490 -36 l 632 0 z "},"Ẽ":{"ha":754,"x_min":38,"x_max":793,"o":"m 208 972 l 793 972 l 765 817 l 349 817 l 308 586 l 631 586 l 604 429 l 281 429 l 232 156 l 661 156 l 633 0 l 38 0 l 208 972 m 643 1086 q 599 1094 622 1086 q 544 1117 576 1101 q 458 1146 486 1146 q 422 1133 436 1146 q 403 1097 407 1119 l 296 1097 q 347 1219 310 1176 q 442 1261 385 1261 q 488 1252 465 1261 q 540 1228 511 1243 q 583 1208 561 1217 q 621 1200 604 1200 q 674 1254 665 1200 l 783 1254 q 733 1127 768 1168 q 643 1086 699 1086 z "},"F":{"ha":701,"x_min":38,"x_max":772,"o":"m 208 972 l 772 972 l 744 817 l 344 817 l 304 586 l 613 586 l 585 429 l 276 429 l 201 0 l 38 0 l 208 972 z "},"G":{"ha":886,"x_min":61,"x_max":882,"o":"m 435 -19 q 238 31 322 -19 q 108 176 154 81 q 61 400 61 271 q 135 702 61 567 q 336 915 210 838 q 614 992 463 992 q 761 976 685 992 q 882 935 838 960 l 836 782 q 719 821 786 806 q 594 836 653 836 q 402 777 482 836 q 282 622 322 718 q 242 417 242 525 q 301 210 242 285 q 479 136 361 136 q 610 154 542 136 l 644 349 l 540 349 l 565 488 l 832 488 l 756 54 q 608 2 701 24 q 435 -19 514 -19 z "},"Ğ":{"ha":886,"x_min":61,"x_max":882,"o":"m 435 -19 q 238 31 322 -19 q 108 176 154 81 q 61 400 61 271 q 135 702 61 567 q 336 915 210 838 q 614 992 463 992 q 761 976 685 992 q 882 935 838 960 l 836 782 q 719 821 786 806 q 594 836 653 836 q 402 777 482 836 q 282 622 322 718 q 242 417 242 525 q 301 210 242 285 q 479 136 361 136 q 610 154 542 136 l 644 349 l 540 349 l 565 488 l 832 488 l 756 54 q 608 2 701 24 q 435 -19 514 -19 m 626 1063 q 492 1103 539 1063 q 444 1208 444 1144 q 447 1240 444 1218 l 563 1240 q 560 1219 560 1229 q 582 1171 560 1188 q 640 1154 604 1154 q 713 1177 683 1154 q 750 1240 743 1200 l 868 1240 q 790 1111 854 1160 q 626 1063 726 1063 z "},"Ǧ":{"ha":886,"x_min":61,"x_max":882,"o":"m 435 -19 q 238 31 322 -19 q 108 176 154 81 q 61 400 61 271 q 135 702 61 567 q 336 915 210 838 q 614 992 463 992 q 761 976 685 992 q 882 935 838 960 l 836 782 q 719 821 786 806 q 594 836 653 836 q 402 777 482 836 q 282 622 322 718 q 242 417 242 525 q 301 210 242 285 q 479 136 361 136 q 610 154 542 136 l 644 349 l 540 349 l 565 488 l 832 488 l 756 54 q 608 2 701 24 q 435 -19 514 -19 m 458 1165 l 475 1263 l 636 1158 l 807 1258 l 789 1149 l 617 1038 l 458 1165 z "},"Ĝ":{"ha":886,"x_min":61,"x_max":882,"o":"m 435 -19 q 238 31 322 -19 q 108 176 154 81 q 61 400 61 271 q 135 702 61 567 q 336 915 210 838 q 614 992 463 992 q 761 976 685 992 q 882 935 838 960 l 836 782 q 719 821 786 806 q 594 836 653 836 q 402 777 482 836 q 282 622 322 718 q 242 417 242 525 q 301 210 242 285 q 479 136 361 136 q 610 154 542 136 l 644 349 l 540 349 l 565 488 l 832 488 l 756 54 q 608 2 701 24 q 435 -19 514 -19 m 819 1135 l 803 1038 l 639 1136 l 472 1054 l 490 1151 l 663 1263 l 819 1135 z "},"Ģ":{"ha":886,"x_min":61,"x_max":882,"o":"m 435 -19 q 238 31 322 -19 q 108 176 154 81 q 61 400 61 271 q 135 702 61 567 q 336 915 210 838 q 614 992 463 992 q 761 976 685 992 q 882 935 838 960 l 836 782 q 719 821 786 806 q 594 836 653 836 q 402 777 482 836 q 282 622 322 718 q 242 417 242 525 q 301 210 242 285 q 479 136 361 136 q 610 154 542 136 l 644 349 l 540 349 l 565 488 l 832 488 l 756 54 q 608 2 701 24 q 435 -19 514 -19 m 317 -378 l 383 -257 l 331 -257 l 354 -126 l 494 -126 l 472 -257 l 374 -378 l 317 -378 z "},"Ġ":{"ha":886,"x_min":61,"x_max":882,"o":"m 435 -19 q 238 31 322 -19 q 108 176 154 81 q 61 400 61 271 q 135 702 61 567 q 336 915 210 838 q 614 992 463 992 q 761 976 685 992 q 882 935 838 960 l 836 782 q 719 821 786 806 q 594 836 653 836 q 402 777 482 836 q 282 622 322 718 q 242 417 242 525 q 301 210 242 285 q 479 136 361 136 q 610 154 542 136 l 644 349 l 540 349 l 565 488 l 832 488 l 756 54 q 608 2 701 24 q 435 -19 514 -19 m 588 1232 l 725 1232 l 701 1100 l 564 1100 l 588 1232 z "},"Ḡ":{"ha":886,"x_min":61,"x_max":882,"o":"m 435 -19 q 238 31 322 -19 q 108 176 154 81 q 61 400 61 271 q 135 702 61 567 q 336 915 210 838 q 614 992 463 992 q 761 976 685 992 q 882 935 838 960 l 836 782 q 719 821 786 806 q 594 836 653 836 q 402 777 482 836 q 282 622 322 718 q 242 417 242 525 q 301 210 242 285 q 479 136 361 136 q 610 154 542 136 l 644 349 l 540 349 l 565 488 l 832 488 l 756 54 q 608 2 701 24 q 435 -19 514 -19 m 429 1204 l 872 1204 l 853 1101 l 411 1101 l 429 1204 z "},"H":{"ha":985,"x_min":38,"x_max":975,"o":"m 208 972 l 372 972 l 304 586 l 743 586 l 811 972 l 975 972 l 804 0 l 640 0 l 715 428 l 276 428 l 201 0 l 38 0 l 208 972 z "},"Ħ":{"ha":990,"x_min":38,"x_max":1024,"o":"m 1003 683 l 924 683 l 804 0 l 640 0 l 715 428 l 276 428 l 201 0 l 38 0 l 157 683 l 79 683 l 97 796 l 178 796 l 208 972 l 372 972 l 342 796 l 781 796 l 811 972 l 975 972 l 944 796 l 1024 796 l 1003 683 m 760 683 l 321 683 l 304 586 l 743 586 l 760 683 z "},"Ḫ":{"ha":985,"x_min":38,"x_max":975,"o":"m 208 972 l 372 972 l 304 586 l 743 586 l 811 972 l 975 972 l 804 0 l 640 0 l 715 428 l 276 428 l 201 0 l 38 0 l 208 972 m 378 -314 q 244 -272 293 -314 q 196 -164 196 -229 q 201 -126 196 -142 l 311 -126 q 308 -149 308 -140 q 328 -197 308 -181 q 386 -214 349 -214 q 459 -191 429 -214 q 496 -126 489 -168 l 618 -126 q 537 -263 599 -212 q 378 -314 475 -314 z "},"Ĥ":{"ha":985,"x_min":38,"x_max":975,"o":"m 208 972 l 372 972 l 304 586 l 743 586 l 811 972 l 975 972 l 804 0 l 640 0 l 715 428 l 276 428 l 201 0 l 38 0 l 208 972 m 801 1135 l 785 1038 l 621 1136 l 454 1054 l 472 1151 l 644 1263 l 801 1135 z "},"Ḥ":{"ha":985,"x_min":38,"x_max":975,"o":"m 208 972 l 372 972 l 304 586 l 743 586 l 811 972 l 975 972 l 804 0 l 640 0 l 715 428 l 276 428 l 201 0 l 38 0 l 208 972 m 335 -112 l 469 -112 l 444 -244 l 310 -244 l 335 -112 z "},"I":{"ha":382,"x_min":38,"x_max":372,"o":"m 208 972 l 372 972 l 201 0 l 38 0 l 208 972 z "},"Ĳ":{"ha":954,"x_min":89,"x_max":957,"o":"m 403 -19 q 170 58 249 -19 q 89 276 92 135 l 260 318 q 302 183 263 231 q 429 136 342 136 q 615 226 553 136 q 706 476 676 317 l 793 972 l 957 972 l 858 415 q 706 96 822 211 q 403 -19 590 -19 m 199 972 l 361 972 l 274 476 q 265 415 268 446 l 100 415 l 199 972 z "},"Í":{"ha":382,"x_min":38,"x_max":483,"o":"m 208 972 l 372 972 l 201 0 l 38 0 l 208 972 m 211 1185 l 483 1333 l 458 1165 l 189 1076 l 211 1185 z "},"Ĭ":{"ha":382,"x_min":38,"x_max":550,"o":"m 208 972 l 372 972 l 201 0 l 38 0 l 208 972 m 308 1063 q 174 1103 221 1063 q 126 1208 126 1144 q 129 1240 126 1218 l 244 1240 q 242 1219 242 1229 q 264 1171 242 1188 q 322 1154 286 1154 q 395 1177 365 1154 q 432 1240 425 1200 l 550 1240 q 472 1111 536 1160 q 308 1063 408 1063 z "},"Î":{"ha":382,"x_min":38,"x_max":508,"o":"m 208 972 l 372 972 l 201 0 l 38 0 l 208 972 m 176 1176 l 358 1313 l 508 1158 l 488 1056 l 331 1169 l 153 1071 l 176 1176 z "},"Ȉ":{"ha":382,"x_min":38,"x_max":463,"o":"m 208 972 l 372 972 l 201 0 l 38 0 l 208 972 m 163 1094 l 64 1308 l 213 1308 l 264 1094 l 163 1094 m 361 1094 l 272 1308 l 421 1308 l 463 1094 l 361 1094 z "},"Ï":{"ha":382,"x_min":38,"x_max":538,"o":"m 208 972 l 372 972 l 201 0 l 38 0 l 208 972 m 142 1224 l 268 1224 l 244 1103 l 118 1103 l 142 1224 m 411 1224 l 538 1224 l 514 1103 l 388 1103 l 411 1224 z "},"Ḯ":{"ha":382,"x_min":38,"x_max":529,"o":"m 208 972 l 372 972 l 201 0 l 38 0 l 208 972 m 136 1207 l 263 1207 l 242 1092 l 115 1092 l 136 1207 m 403 1207 l 529 1207 l 508 1092 l 382 1092 l 403 1207 m 240 1368 l 500 1500 l 476 1350 l 226 1269 l 240 1368 z "},"İ":{"ha":382,"x_min":38,"x_max":407,"o":"m 208 972 l 372 972 l 201 0 l 38 0 l 208 972 m 269 1232 l 407 1232 l 383 1100 l 246 1100 l 269 1232 z "},"Ị":{"ha":382,"x_min":8,"x_max":372,"o":"m 208 972 l 372 972 l 201 0 l 38 0 l 208 972 m 33 -112 l 168 -112 l 143 -244 l 8 -244 l 33 -112 z "},"Ì":{"ha":382,"x_min":38,"x_max":456,"o":"m 208 972 l 372 972 l 201 0 l 38 0 l 208 972 m 199 1179 l 226 1332 l 456 1178 l 438 1076 l 199 1179 z "},"Ỉ":{"ha":382,"x_min":38,"x_max":449,"o":"m 208 972 l 372 972 l 201 0 l 38 0 l 208 972 m 282 1069 q 341 1122 322 1101 q 360 1169 360 1143 q 349 1197 360 1188 q 317 1207 338 1207 q 225 1182 282 1207 l 217 1260 q 332 1285 276 1285 q 415 1260 383 1285 q 449 1189 447 1235 q 416 1099 449 1138 q 322 1019 383 1060 l 282 1069 z "},"Ȋ":{"ha":382,"x_min":38,"x_max":524,"o":"m 208 972 l 372 972 l 201 0 l 38 0 l 208 972 m 343 1261 q 476 1220 429 1261 q 524 1115 524 1179 q 521 1083 524 1103 l 404 1083 q 407 1103 407 1097 q 385 1152 407 1135 q 326 1169 364 1169 q 256 1147 285 1169 q 219 1083 226 1124 l 104 1083 q 182 1210 117 1158 q 343 1261 247 1261 z "},"Ī":{"ha":382,"x_min":38,"x_max":554,"o":"m 208 972 l 372 972 l 201 0 l 38 0 l 208 972 m 111 1204 l 554 1204 l 535 1101 l 93 1101 l 111 1204 z "},"Į":{"ha":382,"x_min":-26,"x_max":372,"o":"m 208 972 l 372 972 l 201 0 l 38 0 l 208 972 m 200 0 q 102 -80 139 -40 q 65 -161 65 -119 q 78 -199 65 -186 q 117 -211 92 -211 q 200 -193 160 -211 l 208 -267 q 92 -292 156 -292 q 7 -266 39 -292 q -26 -194 -25 -240 q 16 -87 -26 -139 q 118 0 58 -36 l 200 0 z "},"Ĩ":{"ha":382,"x_min":38,"x_max":575,"o":"m 208 972 l 372 972 l 201 0 l 38 0 l 208 972 m 435 1086 q 391 1094 414 1086 q 336 1117 368 1101 q 250 1146 278 1146 q 213 1133 228 1146 q 194 1097 199 1119 l 88 1097 q 139 1219 101 1176 q 233 1261 176 1261 q 280 1252 257 1261 q 332 1228 303 1243 q 374 1208 353 1217 q 413 1200 396 1200 q 465 1254 457 1200 l 575 1254 q 525 1127 560 1168 q 435 1086 490 1086 z "},"J":{"ha":382,"x_min":-100,"x_max":372,"o":"m -92 -122 l -60 -122 q 3 -93 -18 -122 q 38 3 25 -64 l 208 972 l 372 972 l 194 -36 q 111 -187 176 -136 q -54 -239 46 -239 l -100 -239 l -92 -122 z "},"Ĵ":{"ha":382,"x_min":-100,"x_max":500,"o":"m -92 -122 l -60 -122 q 3 -93 -18 -122 q 38 3 25 -64 l 208 972 l 372 972 l 194 -36 q 111 -187 176 -136 q -54 -239 46 -239 l -100 -239 l -92 -122 m 500 1135 l 483 1038 l 319 1136 l 153 1054 l 171 1151 l 343 1263 l 500 1135 z "},"K":{"ha":817,"x_min":38,"x_max":896,"o":"m 208 972 l 372 972 l 201 0 l 38 0 l 208 972 m 304 514 l 699 972 l 896 972 l 481 514 l 731 0 l 550 0 l 304 514 z "},"Ķ":{"ha":817,"x_min":38,"x_max":896,"o":"m 208 972 l 372 972 l 201 0 l 38 0 l 208 972 m 304 514 l 699 972 l 896 972 l 481 514 l 731 0 l 550 0 l 304 514 m 247 -378 l 314 -257 l 261 -257 l 285 -126 l 425 -126 l 403 -257 l 304 -378 l 247 -378 z "},"L":{"ha":671,"x_min":38,"x_max":608,"o":"m 208 972 l 372 972 l 228 156 l 608 156 l 581 0 l 38 0 l 208 972 z "},"Ǉ":{"ha":1053,"x_min":38,"x_max":1043,"o":"m 208 972 l 372 972 l 228 156 l 608 156 l 581 0 l 38 0 l 208 972 m 579 -122 l 611 -122 q 674 -93 653 -122 q 708 3 696 -64 l 879 972 l 1043 972 l 865 -36 q 782 -187 847 -136 q 617 -239 717 -239 l 571 -239 l 579 -122 z "},"Ĺ":{"ha":671,"x_min":38,"x_max":608,"o":"m 208 972 l 372 972 l 228 156 l 608 156 l 581 0 l 38 0 l 208 972 m 203 1156 l 463 1288 l 439 1138 l 189 1057 l 203 1156 z "},"Ľ":{"ha":671,"x_min":38,"x_max":772,"o":"m 208 972 l 372 972 l 228 156 l 608 156 l 581 0 l 38 0 l 208 972 m 639 972 l 772 972 l 689 731 l 596 731 l 639 972 z "},"Ļ":{"ha":671,"x_min":38,"x_max":608,"o":"m 208 972 l 372 972 l 228 156 l 608 156 l 581 0 l 38 0 l 208 972 m 208 -378 l 275 -257 l 222 -257 l 246 -126 l 386 -126 l 364 -257 l 265 -378 l 208 -378 z "},"Ŀ":{"ha":671,"x_min":38,"x_max":629,"o":"m 208 972 l 372 972 l 228 156 l 608 156 l 581 0 l 38 0 l 208 972 m 471 626 l 629 626 l 600 457 l 442 457 l 471 626 z "},"Ḷ":{"ha":671,"x_min":38,"x_max":608,"o":"m 208 972 l 372 972 l 228 156 l 608 156 l 581 0 l 38 0 l 208 972 m 250 -112 l 385 -112 l 360 -244 l 225 -244 l 250 -112 z "},"ǈ":{"ha":996,"x_min":38,"x_max":1013,"o":"m 208 972 l 372 972 l 228 156 l 608 156 l 581 0 l 38 0 l 208 972 m 854 972 l 1013 972 l 983 810 l 825 810 l 854 972 m 565 -208 q 621 -199 604 -207 q 647 -168 638 -192 q 667 -89 657 -144 l 804 690 l 963 690 l 814 -153 q 748 -284 799 -236 q 615 -333 697 -332 l 557 -336 l 565 -208 z "},"Ḻ":{"ha":671,"x_min":38,"x_max":608,"o":"m 208 972 l 372 972 l 228 156 l 608 156 l 581 0 l 38 0 l 208 972 m 94 -126 l 535 -126 l 514 -235 l 72 -235 l 94 -126 z "},"Ł":{"ha":671,"x_min":25,"x_max":608,"o":"m 608 156 l 581 0 l 38 0 l 125 494 l 25 457 l 47 585 l 147 622 l 208 972 l 372 972 l 322 689 l 585 788 l 563 660 l 300 561 l 228 156 l 608 156 z "},"M":{"ha":1100,"x_min":-8,"x_max":1007,"o":"m 289 972 l 433 972 l 568 518 l 864 972 l 1007 972 l 963 0 l 792 0 l 833 667 l 515 213 l 358 667 l 163 0 l -8 0 l 289 972 z "},"Ṃ":{"ha":1100,"x_min":-8,"x_max":1007,"o":"m 289 972 l 433 972 l 568 518 l 864 972 l 1007 972 l 963 0 l 792 0 l 833 667 l 515 213 l 358 667 l 163 0 l -8 0 l 289 972 m 392 -112 l 526 -112 l 501 -244 l 367 -244 l 392 -112 z "},"N":{"ha":940,"x_min":38,"x_max":931,"o":"m 208 972 l 371 972 l 651 314 l 767 972 l 931 972 l 758 0 l 625 0 l 325 697 l 201 0 l 38 0 l 208 972 z "},"Ǌ":{"ha":1322,"x_min":38,"x_max":1313,"o":"m 208 972 l 371 972 l 651 314 l 767 972 l 931 972 l 758 0 l 625 0 l 325 697 l 201 0 l 38 0 l 208 972 m 849 -122 l 881 -122 q 944 -93 922 -122 q 978 3 965 -64 l 1149 972 l 1313 972 l 1135 -36 q 1051 -187 1117 -136 q 886 -239 986 -239 l 840 -239 l 849 -122 z "},"Ń":{"ha":940,"x_min":38,"x_max":931,"o":"m 208 972 l 371 972 l 651 314 l 767 972 l 931 972 l 758 0 l 625 0 l 325 697 l 201 0 l 38 0 l 208 972 m 482 1156 l 742 1288 l 718 1138 l 468 1057 l 482 1156 z "},"Ň":{"ha":940,"x_min":38,"x_max":931,"o":"m 208 972 l 371 972 l 651 314 l 767 972 l 931 972 l 758 0 l 625 0 l 325 697 l 201 0 l 38 0 l 208 972 m 418 1165 l 435 1263 l 596 1158 l 767 1258 l 749 1149 l 576 1038 l 418 1165 z "},"Ņ":{"ha":940,"x_min":38,"x_max":931,"o":"m 208 972 l 371 972 l 651 314 l 767 972 l 931 972 l 758 0 l 625 0 l 325 697 l 201 0 l 38 0 l 208 972 m 285 -378 l 351 -257 l 299 -257 l 322 -126 l 463 -126 l 440 -257 l 342 -378 l 285 -378 z "},"Ṅ":{"ha":940,"x_min":38,"x_max":931,"o":"m 208 972 l 371 972 l 651 314 l 767 972 l 931 972 l 758 0 l 625 0 l 325 697 l 201 0 l 38 0 l 208 972 m 547 1232 l 685 1232 l 661 1100 l 524 1100 l 547 1232 z "},"Ṇ":{"ha":940,"x_min":38,"x_max":931,"o":"m 208 972 l 371 972 l 651 314 l 767 972 l 931 972 l 758 0 l 625 0 l 325 697 l 201 0 l 38 0 l 208 972 m 326 -112 l 461 -112 l 436 -244 l 301 -244 l 326 -112 z "},"Ŋ":{"ha":958,"x_min":46,"x_max":903,"o":"m 797 54 q 672 -192 769 -108 q 433 -276 575 -276 q 283 -250 354 -276 l 328 -100 q 450 -121 385 -121 q 570 -80 522 -121 q 632 46 618 -39 l 725 575 q 732 657 732 626 q 689 790 732 743 q 564 836 646 836 q 438 808 496 836 q 339 732 381 779 l 210 0 l 46 0 l 218 972 l 357 972 l 349 878 q 635 992 475 992 q 835 914 767 992 q 903 706 903 836 q 893 599 903 653 l 797 54 z "},"ǋ":{"ha":1251,"x_min":38,"x_max":1268,"o":"m 208 972 l 371 972 l 651 314 l 767 972 l 931 972 l 758 0 l 625 0 l 325 697 l 201 0 l 38 0 l 208 972 m 1110 972 l 1268 972 l 1239 810 l 1081 810 l 1110 972 m 821 -208 q 876 -199 860 -207 q 903 -168 893 -192 q 922 -89 913 -144 l 1060 690 l 1218 690 l 1069 -153 q 1003 -284 1054 -236 q 871 -333 953 -332 l 813 -336 l 821 -208 z "},"Ṉ":{"ha":940,"x_min":38,"x_max":931,"o":"m 208 972 l 371 972 l 651 314 l 767 972 l 931 972 l 758 0 l 625 0 l 325 697 l 201 0 l 38 0 l 208 972 m 171 -126 l 611 -126 l 590 -235 l 149 -235 l 171 -126 z "},"Ñ":{"ha":940,"x_min":38,"x_max":931,"o":"m 208 972 l 371 972 l 651 314 l 767 972 l 931 972 l 758 0 l 625 0 l 325 697 l 201 0 l 38 0 l 208 972 m 713 1086 q 669 1094 692 1086 q 614 1117 646 1101 q 528 1146 556 1146 q 491 1133 506 1146 q 472 1097 476 1119 l 365 1097 q 417 1219 379 1176 q 511 1261 454 1261 q 558 1252 535 1261 q 610 1228 581 1243 q 652 1208 631 1217 q 690 1200 674 1200 q 743 1254 735 1200 l 853 1254 q 803 1127 838 1168 q 713 1086 768 1086 z "},"O":{"ha":1017,"x_min":60,"x_max":985,"o":"m 439 -19 q 237 31 322 -19 q 106 174 151 81 q 60 396 60 267 q 134 699 60 563 q 333 914 208 836 q 606 992 458 992 q 808 942 722 992 q 939 799 893 892 q 985 576 985 706 q 910 273 985 410 q 710 58 836 136 q 439 -19 585 -19 m 464 136 q 642 195 565 136 q 761 352 719 254 q 803 563 803 450 q 747 763 803 690 q 579 836 692 836 q 401 777 478 836 q 282 620 324 718 q 240 410 240 522 q 296 209 240 282 q 464 136 351 136 z "},"Ó":{"ha":1017,"x_min":60,"x_max":985,"o":"m 439 -19 q 237 31 322 -19 q 106 174 151 81 q 60 396 60 267 q 134 699 60 563 q 333 914 208 836 q 606 992 458 992 q 808 942 722 992 q 939 799 893 892 q 985 576 985 706 q 910 273 985 410 q 710 58 836 136 q 439 -19 585 -19 m 464 136 q 642 195 565 136 q 761 352 719 254 q 803 563 803 450 q 747 763 803 690 q 579 836 692 836 q 401 777 478 836 q 282 620 324 718 q 240 410 240 522 q 296 209 240 282 q 464 136 351 136 m 532 1185 l 804 1333 l 779 1165 l 510 1076 l 532 1185 z "},"Ŏ":{"ha":1017,"x_min":60,"x_max":985,"o":"m 439 -19 q 237 31 322 -19 q 106 174 151 81 q 60 396 60 267 q 134 699 60 563 q 333 914 208 836 q 606 992 458 992 q 808 942 722 992 q 939 799 893 892 q 985 576 985 706 q 910 273 985 410 q 710 58 836 136 q 439 -19 585 -19 m 464 136 q 642 195 565 136 q 761 352 719 254 q 803 563 803 450 q 747 763 803 690 q 579 836 692 836 q 401 777 478 836 q 282 620 324 718 q 240 410 240 522 q 296 209 240 282 q 464 136 351 136 m 629 1063 q 494 1103 542 1063 q 447 1208 447 1144 q 450 1240 447 1218 l 565 1240 q 563 1219 563 1229 q 585 1171 563 1188 q 643 1154 607 1154 q 716 1177 686 1154 q 753 1240 746 1200 l 871 1240 q 793 1111 857 1160 q 629 1063 729 1063 z "},"Ô":{"ha":1017,"x_min":60,"x_max":985,"o":"m 439 -19 q 237 31 322 -19 q 106 174 151 81 q 60 396 60 267 q 134 699 60 563 q 333 914 208 836 q 606 992 458 992 q 808 942 722 992 q 939 799 893 892 q 985 576 985 706 q 910 273 985 410 q 710 58 836 136 q 439 -19 585 -19 m 464 136 q 642 195 565 136 q 761 352 719 254 q 803 563 803 450 q 747 763 803 690 q 579 836 692 836 q 401 777 478 836 q 282 620 324 718 q 240 410 240 522 q 296 209 240 282 q 464 136 351 136 m 497 1176 l 679 1313 l 829 1158 l 808 1056 l 651 1169 l 474 1071 l 497 1176 z "},"Ố":{"ha":1017,"x_min":60,"x_max":1001,"o":"m 439 -19 q 237 31 322 -19 q 106 174 151 81 q 60 396 60 267 q 134 699 60 563 q 333 914 208 836 q 606 992 458 992 q 808 942 722 992 q 939 799 893 892 q 985 576 985 706 q 910 273 985 410 q 710 58 836 136 q 439 -19 585 -19 m 464 136 q 642 195 565 136 q 761 352 719 254 q 803 563 803 450 q 747 763 803 690 q 579 836 692 836 q 401 777 478 836 q 282 620 324 718 q 240 410 240 522 q 296 209 240 282 q 464 136 351 136 m 850 1415 l 1001 1415 l 846 1256 l 743 1256 l 850 1415 m 824 1144 l 807 1047 l 643 1146 l 476 1064 l 494 1161 l 667 1272 l 824 1144 z "},"Ộ":{"ha":1017,"x_min":60,"x_max":985,"o":"m 439 -19 q 237 31 322 -19 q 106 174 151 81 q 60 396 60 267 q 134 699 60 563 q 333 914 208 836 q 606 992 458 992 q 808 942 722 992 q 939 799 893 892 q 985 576 985 706 q 910 273 985 410 q 710 58 836 136 q 439 -19 585 -19 m 464 136 q 642 195 565 136 q 761 352 719 254 q 803 563 803 450 q 747 763 803 690 q 579 836 692 836 q 401 777 478 836 q 282 620 324 718 q 240 410 240 522 q 296 209 240 282 q 464 136 351 136 m 822 1135 l 806 1038 l 642 1136 l 475 1054 l 493 1151 l 665 1263 l 822 1135 m 338 -112 l 472 -112 l 447 -244 l 313 -244 l 338 -112 z "},"Ồ":{"ha":1017,"x_min":60,"x_max":985,"o":"m 439 -19 q 237 31 322 -19 q 106 174 151 81 q 60 396 60 267 q 134 699 60 563 q 333 914 208 836 q 606 992 458 992 q 808 942 722 992 q 939 799 893 892 q 985 576 985 706 q 910 273 985 410 q 710 58 836 136 q 439 -19 585 -19 m 464 136 q 642 195 565 136 q 761 352 719 254 q 803 563 803 450 q 747 763 803 690 q 579 836 692 836 q 401 777 478 836 q 282 620 324 718 q 240 410 240 522 q 296 209 240 282 q 464 136 351 136 m 756 1256 l 669 1428 l 813 1428 l 856 1256 l 756 1256 m 822 1144 l 806 1047 l 642 1146 l 475 1064 l 493 1161 l 665 1272 l 822 1144 z "},"Ổ":{"ha":1017,"x_min":60,"x_max":985,"o":"m 439 -19 q 237 31 322 -19 q 106 174 151 81 q 60 396 60 267 q 134 699 60 563 q 333 914 208 836 q 606 992 458 992 q 808 942 722 992 q 939 799 893 892 q 985 576 985 706 q 910 273 985 410 q 710 58 836 136 q 439 -19 585 -19 m 464 136 q 642 195 565 136 q 761 352 719 254 q 803 563 803 450 q 747 763 803 690 q 579 836 692 836 q 401 777 478 836 q 282 620 324 718 q 240 410 240 522 q 296 209 240 282 q 464 136 351 136 m 822 1135 l 806 1038 l 642 1136 l 475 1054 l 493 1151 l 665 1263 l 822 1135 m 768 1271 q 826 1325 826 1286 q 781 1360 826 1360 q 693 1338 744 1360 l 683 1418 q 797 1440 739 1440 q 883 1416 850 1440 q 915 1347 915 1392 q 771 1211 915 1244 l 768 1271 z "},"Ỗ":{"ha":1017,"x_min":60,"x_max":985,"o":"m 439 -19 q 237 31 322 -19 q 106 174 151 81 q 60 396 60 267 q 134 699 60 563 q 333 914 208 836 q 606 992 458 992 q 808 942 722 992 q 939 799 893 892 q 985 576 985 706 q 910 273 985 410 q 710 58 836 136 q 439 -19 585 -19 m 464 136 q 642 195 565 136 q 761 352 719 254 q 803 563 803 450 q 747 763 803 690 q 579 836 692 836 q 401 777 478 836 q 282 620 324 718 q 240 410 240 522 q 296 209 240 282 q 464 136 351 136 m 822 1135 l 806 1038 l 642 1136 l 475 1054 l 493 1151 l 665 1263 l 822 1135 m 788 1300 q 744 1308 767 1300 q 689 1329 722 1315 q 646 1347 668 1339 q 608 1354 624 1354 q 563 1310 571 1354 l 463 1310 q 509 1416 475 1379 q 597 1453 543 1453 q 693 1425 632 1453 q 736 1408 714 1415 q 775 1400 758 1400 q 821 1446 813 1400 l 921 1446 q 876 1338 911 1375 q 788 1300 842 1300 z "},"Ȍ":{"ha":1017,"x_min":60,"x_max":985,"o":"m 439 -19 q 237 31 322 -19 q 106 174 151 81 q 60 396 60 267 q 134 699 60 563 q 333 914 208 836 q 606 992 458 992 q 808 942 722 992 q 939 799 893 892 q 985 576 985 706 q 910 273 985 410 q 710 58 836 136 q 439 -19 585 -19 m 464 136 q 642 195 565 136 q 761 352 719 254 q 803 563 803 450 q 747 763 803 690 q 579 836 692 836 q 401 777 478 836 q 282 620 324 718 q 240 410 240 522 q 296 209 240 282 q 464 136 351 136 m 483 1094 l 385 1308 l 533 1308 l 585 1094 l 483 1094 m 682 1094 l 593 1308 l 742 1308 l 783 1094 l 682 1094 z "},"Ö":{"ha":1017,"x_min":60,"x_max":985,"o":"m 439 -19 q 237 31 322 -19 q 106 174 151 81 q 60 396 60 267 q 134 699 60 563 q 333 914 208 836 q 606 992 458 992 q 808 942 722 992 q 939 799 893 892 q 985 576 985 706 q 910 273 985 410 q 710 58 836 136 q 439 -19 585 -19 m 464 136 q 642 195 565 136 q 761 352 719 254 q 803 563 803 450 q 747 763 803 690 q 579 836 692 836 q 401 777 478 836 q 282 620 324 718 q 240 410 240 522 q 296 209 240 282 q 464 136 351 136 m 463 1224 l 589 1224 l 565 1103 l 439 1103 l 463 1224 m 732 1224 l 858 1224 l 835 1103 l 708 1103 l 732 1224 z "},"Ȫ":{"ha":1017,"x_min":60,"x_max":985,"o":"m 439 -19 q 237 31 322 -19 q 106 174 151 81 q 60 396 60 267 q 134 699 60 563 q 333 914 208 836 q 606 992 458 992 q 808 942 722 992 q 939 799 893 892 q 985 576 985 706 q 910 273 985 410 q 710 58 836 136 q 439 -19 585 -19 m 464 136 q 642 195 565 136 q 761 352 719 254 q 803 563 803 450 q 747 763 803 690 q 579 836 692 836 q 401 777 478 836 q 282 620 324 718 q 240 410 240 522 q 296 209 240 282 q 464 136 351 136 m 457 1207 l 583 1207 l 563 1092 l 436 1092 l 457 1207 m 724 1207 l 850 1207 l 829 1092 l 703 1092 l 724 1207 m 468 1417 l 911 1417 l 892 1314 l 450 1314 l 468 1417 z "},"Ȱ":{"ha":1017,"x_min":60,"x_max":985,"o":"m 439 -19 q 237 31 322 -19 q 106 174 151 81 q 60 396 60 267 q 134 699 60 563 q 333 914 208 836 q 606 992 458 992 q 808 942 722 992 q 939 799 893 892 q 985 576 985 706 q 910 273 985 410 q 710 58 836 136 q 439 -19 585 -19 m 464 136 q 642 195 565 136 q 761 352 719 254 q 803 563 803 450 q 747 763 803 690 q 579 836 692 836 q 401 777 478 836 q 282 620 324 718 q 240 410 240 522 q 296 209 240 282 q 464 136 351 136 m 590 1232 l 728 1232 l 704 1100 l 567 1100 l 590 1232 m 475 1449 l 918 1449 l 899 1346 l 457 1346 l 475 1449 z "},"Ọ":{"ha":1017,"x_min":60,"x_max":985,"o":"m 439 -19 q 237 31 322 -19 q 106 174 151 81 q 60 396 60 267 q 134 699 60 563 q 333 914 208 836 q 606 992 458 992 q 808 942 722 992 q 939 799 893 892 q 985 576 985 706 q 910 273 985 410 q 710 58 836 136 q 439 -19 585 -19 m 464 136 q 642 195 565 136 q 761 352 719 254 q 803 563 803 450 q 747 763 803 690 q 579 836 692 836 q 401 777 478 836 q 282 620 324 718 q 240 410 240 522 q 296 209 240 282 q 464 136 351 136 m 338 -112 l 472 -112 l 447 -244 l 313 -244 l 338 -112 z "},"Ò":{"ha":1017,"x_min":60,"x_max":985,"o":"m 439 -19 q 237 31 322 -19 q 106 174 151 81 q 60 396 60 267 q 134 699 60 563 q 333 914 208 836 q 606 992 458 992 q 808 942 722 992 q 939 799 893 892 q 985 576 985 706 q 910 273 985 410 q 710 58 836 136 q 439 -19 585 -19 m 464 136 q 642 195 565 136 q 761 352 719 254 q 803 563 803 450 q 747 763 803 690 q 579 836 692 836 q 401 777 478 836 q 282 620 324 718 q 240 410 240 522 q 296 209 240 282 q 464 136 351 136 m 519 1179 l 547 1332 l 776 1178 l 758 1076 l 519 1179 z "},"Ỏ":{"ha":1017,"x_min":60,"x_max":985,"o":"m 439 -19 q 237 31 322 -19 q 106 174 151 81 q 60 396 60 267 q 134 699 60 563 q 333 914 208 836 q 606 992 458 992 q 808 942 722 992 q 939 799 893 892 q 985 576 985 706 q 910 273 985 410 q 710 58 836 136 q 439 -19 585 -19 m 464 136 q 642 195 565 136 q 761 352 719 254 q 803 563 803 450 q 747 763 803 690 q 579 836 692 836 q 401 777 478 836 q 282 620 324 718 q 240 410 240 522 q 296 209 240 282 q 464 136 351 136 m 603 1069 q 662 1122 643 1101 q 681 1169 681 1143 q 669 1197 681 1188 q 638 1207 658 1207 q 546 1182 603 1207 l 538 1260 q 653 1285 597 1285 q 736 1260 704 1285 q 769 1189 768 1235 q 737 1099 769 1138 q 643 1019 704 1060 l 603 1069 z "},"Ơ":{"ha":1017,"x_min":60,"x_max":989,"o":"m 858 906 q 952 767 919 851 q 985 576 985 683 q 910 273 985 410 q 710 58 836 136 q 439 -19 585 -19 q 237 31 322 -19 q 106 174 151 81 q 60 396 60 267 q 134 699 60 563 q 333 914 208 836 q 606 992 458 992 q 736 972 675 992 q 850 1075 832 979 l 989 1075 q 943 976 978 1019 q 858 906 908 932 m 464 136 q 642 195 565 136 q 761 352 719 254 q 803 563 803 450 q 747 763 803 690 q 579 836 692 836 q 401 777 478 836 q 282 620 324 718 q 240 410 240 522 q 296 209 240 282 q 464 136 351 136 z "},"Ớ":{"ha":1017,"x_min":60,"x_max":989,"o":"m 858 906 q 952 767 919 851 q 985 576 985 683 q 910 273 985 410 q 710 58 836 136 q 439 -19 585 -19 q 237 31 322 -19 q 106 174 151 81 q 60 396 60 267 q 134 699 60 563 q 333 914 208 836 q 606 992 458 992 q 736 972 675 992 q 850 1075 832 979 l 989 1075 q 943 976 978 1019 q 858 906 908 932 m 464 136 q 642 195 565 136 q 761 352 719 254 q 803 563 803 450 q 747 763 803 690 q 579 836 692 836 q 401 777 478 836 q 282 620 324 718 q 240 410 240 522 q 296 209 240 282 q 464 136 351 136 m 532 1185 l 804 1333 l 779 1165 l 510 1076 l 532 1185 z "},"Ợ":{"ha":1017,"x_min":60,"x_max":989,"o":"m 858 906 q 952 767 919 851 q 985 576 985 683 q 910 273 985 410 q 710 58 836 136 q 439 -19 585 -19 q 237 31 322 -19 q 106 174 151 81 q 60 396 60 267 q 134 699 60 563 q 333 914 208 836 q 606 992 458 992 q 736 972 675 992 q 850 1075 832 979 l 989 1075 q 943 976 978 1019 q 858 906 908 932 m 464 136 q 642 195 565 136 q 761 352 719 254 q 803 563 803 450 q 747 763 803 690 q 579 836 692 836 q 401 777 478 836 q 282 620 324 718 q 240 410 240 522 q 296 209 240 282 q 464 136 351 136 m 338 -112 l 472 -112 l 447 -244 l 313 -244 l 338 -112 z "},"Ờ":{"ha":1017,"x_min":60,"x_max":989,"o":"m 858 906 q 952 767 919 851 q 985 576 985 683 q 910 273 985 410 q 710 58 836 136 q 439 -19 585 -19 q 237 31 322 -19 q 106 174 151 81 q 60 396 60 267 q 134 699 60 563 q 333 914 208 836 q 606 992 458 992 q 736 972 675 992 q 850 1075 832 979 l 989 1075 q 943 976 978 1019 q 858 906 908 932 m 464 136 q 642 195 565 136 q 761 352 719 254 q 803 563 803 450 q 747 763 803 690 q 579 836 692 836 q 401 777 478 836 q 282 620 324 718 q 240 410 240 522 q 296 209 240 282 q 464 136 351 136 m 519 1179 l 547 1332 l 776 1178 l 758 1076 l 519 1179 z "},"Ở":{"ha":1017,"x_min":60,"x_max":989,"o":"m 858 906 q 952 767 919 851 q 985 576 985 683 q 910 273 985 410 q 710 58 836 136 q 439 -19 585 -19 q 237 31 322 -19 q 106 174 151 81 q 60 396 60 267 q 134 699 60 563 q 333 914 208 836 q 606 992 458 992 q 736 972 675 992 q 850 1075 832 979 l 989 1075 q 943 976 978 1019 q 858 906 908 932 m 464 136 q 642 195 565 136 q 761 352 719 254 q 803 563 803 450 q 747 763 803 690 q 579 836 692 836 q 401 777 478 836 q 282 620 324 718 q 240 410 240 522 q 296 209 240 282 q 464 136 351 136 m 603 1069 q 662 1122 643 1101 q 681 1169 681 1143 q 669 1197 681 1188 q 638 1207 658 1207 q 546 1182 603 1207 l 538 1260 q 653 1285 597 1285 q 736 1260 704 1285 q 769 1189 768 1235 q 737 1099 769 1138 q 643 1019 704 1060 l 603 1069 z "},"Ỡ":{"ha":1017,"x_min":60,"x_max":989,"o":"m 858 906 q 952 767 919 851 q 985 576 985 683 q 910 273 985 410 q 710 58 836 136 q 439 -19 585 -19 q 237 31 322 -19 q 106 174 151 81 q 60 396 60 267 q 134 699 60 563 q 333 914 208 836 q 606 992 458 992 q 736 972 675 992 q 850 1075 832 979 l 989 1075 q 943 976 978 1019 q 858 906 908 932 m 464 136 q 642 195 565 136 q 761 352 719 254 q 803 563 803 450 q 747 763 803 690 q 579 836 692 836 q 401 777 478 836 q 282 620 324 718 q 240 410 240 522 q 296 209 240 282 q 464 136 351 136 m 756 1086 q 712 1094 735 1086 q 657 1117 689 1101 q 571 1146 599 1146 q 534 1133 549 1146 q 515 1097 519 1119 l 408 1097 q 460 1219 422 1176 q 554 1261 497 1261 q 601 1252 578 1261 q 653 1228 624 1243 q 695 1208 674 1217 q 733 1200 717 1200 q 786 1254 778 1200 l 896 1254 q 846 1127 881 1168 q 756 1086 811 1086 z "},"Ő":{"ha":1017,"x_min":60,"x_max":985,"o":"m 439 -19 q 237 31 322 -19 q 106 174 151 81 q 60 396 60 267 q 134 699 60 563 q 333 914 208 836 q 606 992 458 992 q 808 942 722 992 q 939 799 893 892 q 985 576 985 706 q 910 273 985 410 q 710 58 836 136 q 439 -19 585 -19 m 464 136 q 642 195 565 136 q 761 352 719 254 q 803 563 803 450 q 747 763 803 690 q 579 836 692 836 q 401 777 478 836 q 282 620 324 718 q 240 410 240 522 q 296 209 240 282 q 464 136 351 136 m 593 1308 l 744 1308 l 581 1094 l 478 1094 l 593 1308 m 803 1308 l 956 1308 l 781 1094 l 678 1094 l 803 1308 z "},"Ȏ":{"ha":1017,"x_min":60,"x_max":985,"o":"m 439 -19 q 237 31 322 -19 q 106 174 151 81 q 60 396 60 267 q 134 699 60 563 q 333 914 208 836 q 606 992 458 992 q 808 942 722 992 q 939 799 893 892 q 985 576 985 706 q 910 273 985 410 q 710 58 836 136 q 439 -19 585 -19 m 464 136 q 642 195 565 136 q 761 352 719 254 q 803 563 803 450 q 747 763 803 690 q 579 836 692 836 q 401 777 478 836 q 282 620 324 718 q 240 410 240 522 q 296 209 240 282 q 464 136 351 136 m 664 1261 q 797 1220 750 1261 q 844 1115 844 1179 q 842 1083 844 1103 l 725 1083 q 728 1103 728 1097 q 706 1152 728 1135 q 647 1169 685 1169 q 576 1147 606 1169 q 540 1083 547 1124 l 425 1083 q 503 1210 438 1158 q 664 1261 568 1261 z "},"Ō":{"ha":1017,"x_min":60,"x_max":985,"o":"m 439 -19 q 237 31 322 -19 q 106 174 151 81 q 60 396 60 267 q 134 699 60 563 q 333 914 208 836 q 606 992 458 992 q 808 942 722 992 q 939 799 893 892 q 985 576 985 706 q 910 273 985 410 q 710 58 836 136 q 439 -19 585 -19 m 464 136 q 642 195 565 136 q 761 352 719 254 q 803 563 803 450 q 747 763 803 690 q 579 836 692 836 q 401 777 478 836 q 282 620 324 718 q 240 410 240 522 q 296 209 240 282 q 464 136 351 136 m 432 1204 l 875 1204 l 856 1101 l 414 1101 l 432 1204 z "},"Ṓ":{"ha":1017,"x_min":60,"x_max":985,"o":"m 439 -19 q 237 31 322 -19 q 106 174 151 81 q 60 396 60 267 q 134 699 60 563 q 333 914 208 836 q 606 992 458 992 q 808 942 722 992 q 939 799 893 892 q 985 576 985 706 q 910 273 985 410 q 710 58 836 136 q 439 -19 585 -19 m 464 136 q 642 195 565 136 q 761 352 719 254 q 803 563 803 450 q 747 763 803 690 q 579 836 692 836 q 401 777 478 836 q 282 620 324 718 q 240 410 240 522 q 296 209 240 282 q 464 136 351 136 m 432 1204 l 875 1204 l 856 1101 l 414 1101 l 432 1204 m 572 1385 l 832 1517 l 808 1367 l 558 1286 l 572 1385 z "},"Ṑ":{"ha":1017,"x_min":60,"x_max":985,"o":"m 439 -19 q 237 31 322 -19 q 106 174 151 81 q 60 396 60 267 q 134 699 60 563 q 333 914 208 836 q 606 992 458 992 q 808 942 722 992 q 939 799 893 892 q 985 576 985 706 q 910 273 985 410 q 710 58 836 136 q 439 -19 585 -19 m 464 136 q 642 195 565 136 q 761 352 719 254 q 803 563 803 450 q 747 763 803 690 q 579 836 692 836 q 401 777 478 836 q 282 620 324 718 q 240 410 240 522 q 296 209 240 282 q 464 136 351 136 m 432 1204 l 875 1204 l 856 1101 l 414 1101 l 432 1204 m 560 1367 l 586 1508 l 819 1376 l 801 1286 l 560 1367 z "},"Ǫ":{"ha":1017,"x_min":60,"x_max":985,"o":"m 504 -15 q 392 -161 392 -94 q 405 -199 392 -186 q 443 -211 418 -211 q 526 -193 486 -211 l 535 -267 q 418 -292 482 -292 q 333 -266 365 -292 q 300 -194 301 -240 q 333 -101 300 -147 q 415 -19 365 -56 q 155 99 250 -11 q 60 396 60 208 q 134 699 60 563 q 333 914 208 836 q 606 992 458 992 q 808 942 722 992 q 939 799 893 892 q 985 576 985 706 q 921 293 985 422 q 747 83 857 164 q 504 -15 636 1 m 240 410 q 296 209 240 282 q 464 136 351 136 q 642 195 565 136 q 761 352 719 254 q 803 563 803 450 q 747 763 803 690 q 579 836 692 836 q 401 777 478 836 q 282 620 324 718 q 240 410 240 522 z "},"Ø":{"ha":1017,"x_min":31,"x_max":1010,"o":"m 888 875 q 985 576 985 765 q 910 273 985 410 q 710 58 836 136 q 439 -19 585 -19 q 238 31 321 -19 l 167 -61 l 31 -61 l 154 100 q 60 396 60 210 q 134 699 60 563 q 333 914 208 836 q 606 992 458 992 q 804 944 718 992 l 872 1033 l 1010 1033 l 888 875 m 240 410 q 271 251 240 314 l 697 807 q 579 836 651 836 q 401 777 478 836 q 282 620 324 718 q 240 410 240 522 m 803 563 q 771 724 803 661 l 343 167 q 464 136 393 136 q 642 195 565 136 q 761 352 719 254 q 803 563 803 450 z "},"Ǿ":{"ha":1017,"x_min":31,"x_max":1010,"o":"m 888 875 q 985 576 985 765 q 910 273 985 410 q 710 58 836 136 q 439 -19 585 -19 q 238 31 321 -19 l 167 -61 l 31 -61 l 154 100 q 60 396 60 210 q 134 699 60 563 q 333 914 208 836 q 606 992 458 992 q 804 944 718 992 l 872 1033 l 1010 1033 l 888 875 m 240 410 q 271 251 240 314 l 697 807 q 579 836 651 836 q 401 777 478 836 q 282 620 324 718 q 240 410 240 522 m 803 563 q 771 724 803 661 l 343 167 q 464 136 393 136 q 642 195 565 136 q 761 352 719 254 q 803 563 803 450 m 525 1156 l 785 1288 l 761 1138 l 511 1057 l 525 1156 z "},"Õ":{"ha":1017,"x_min":60,"x_max":985,"o":"m 439 -19 q 237 31 322 -19 q 106 174 151 81 q 60 396 60 267 q 134 699 60 563 q 333 914 208 836 q 606 992 458 992 q 808 942 722 992 q 939 799 893 892 q 985 576 985 706 q 910 273 985 410 q 710 58 836 136 q 439 -19 585 -19 m 464 136 q 642 195 565 136 q 761 352 719 254 q 803 563 803 450 q 747 763 803 690 q 579 836 692 836 q 401 777 478 836 q 282 620 324 718 q 240 410 240 522 q 296 209 240 282 q 464 136 351 136 m 756 1086 q 712 1094 735 1086 q 657 1117 689 1101 q 571 1146 599 1146 q 534 1133 549 1146 q 515 1097 519 1119 l 408 1097 q 460 1219 422 1176 q 554 1261 497 1261 q 601 1252 578 1261 q 653 1228 624 1243 q 695 1208 674 1217 q 733 1200 717 1200 q 786 1254 778 1200 l 896 1254 q 846 1127 881 1168 q 756 1086 811 1086 z "},"Ṍ":{"ha":1017,"x_min":60,"x_max":985,"o":"m 439 -19 q 237 31 322 -19 q 106 174 151 81 q 60 396 60 267 q 134 699 60 563 q 333 914 208 836 q 606 992 458 992 q 808 942 722 992 q 939 799 893 892 q 985 576 985 706 q 910 273 985 410 q 710 58 836 136 q 439 -19 585 -19 m 464 136 q 642 195 565 136 q 761 352 719 254 q 803 563 803 450 q 747 763 803 690 q 579 836 692 836 q 401 777 478 836 q 282 620 324 718 q 240 410 240 522 q 296 209 240 282 q 464 136 351 136 m 742 1083 q 699 1091 721 1083 q 643 1113 676 1099 q 600 1130 622 1122 q 563 1138 578 1138 q 517 1093 525 1138 l 417 1093 q 463 1199 429 1163 q 551 1236 497 1236 q 647 1208 586 1236 q 690 1191 668 1199 q 729 1183 713 1183 q 775 1229 767 1183 l 875 1229 q 831 1121 865 1158 q 742 1083 796 1083 m 565 1389 l 825 1521 l 801 1371 l 551 1290 l 565 1389 z "},"Ṏ":{"ha":1017,"x_min":60,"x_max":985,"o":"m 439 -19 q 237 31 322 -19 q 106 174 151 81 q 60 396 60 267 q 134 699 60 563 q 333 914 208 836 q 606 992 458 992 q 808 942 722 992 q 939 799 893 892 q 985 576 985 706 q 910 273 985 410 q 710 58 836 136 q 439 -19 585 -19 m 464 136 q 642 195 565 136 q 761 352 719 254 q 803 563 803 450 q 747 763 803 690 q 579 836 692 836 q 401 777 478 836 q 282 620 324 718 q 240 410 240 522 q 296 209 240 282 q 464 136 351 136 m 742 1083 q 699 1091 721 1083 q 643 1113 676 1099 q 600 1130 622 1122 q 563 1138 578 1138 q 517 1093 525 1138 l 417 1093 q 463 1199 429 1163 q 551 1236 497 1236 q 647 1208 586 1236 q 690 1191 668 1199 q 729 1183 713 1183 q 775 1229 767 1183 l 875 1229 q 831 1121 865 1158 q 742 1083 796 1083 m 497 1440 l 624 1440 l 603 1325 l 476 1325 l 497 1440 m 764 1440 l 890 1440 l 869 1325 l 743 1325 l 764 1440 z "},"Ȭ":{"ha":1017,"x_min":60,"x_max":985,"o":"m 439 -19 q 237 31 322 -19 q 106 174 151 81 q 60 396 60 267 q 134 699 60 563 q 333 914 208 836 q 606 992 458 992 q 808 942 722 992 q 939 799 893 892 q 985 576 985 706 q 910 273 985 410 q 710 58 836 136 q 439 -19 585 -19 m 464 136 q 642 195 565 136 q 761 352 719 254 q 803 563 803 450 q 747 763 803 690 q 579 836 692 836 q 401 777 478 836 q 282 620 324 718 q 240 410 240 522 q 296 209 240 282 q 464 136 351 136 m 742 1083 q 699 1091 721 1083 q 643 1113 676 1099 q 600 1130 622 1122 q 563 1138 578 1138 q 517 1093 525 1138 l 417 1093 q 463 1199 429 1163 q 551 1236 497 1236 q 647 1208 586 1236 q 690 1191 668 1199 q 729 1183 713 1183 q 775 1229 767 1183 l 875 1229 q 831 1121 865 1158 q 742 1083 796 1083 m 472 1438 l 915 1438 l 896 1335 l 454 1335 l 472 1438 z "},"Œ":{"ha":1406,"x_min":60,"x_max":1444,"o":"m 1000 817 l 960 586 l 1283 586 l 1256 429 l 932 429 l 883 156 l 1313 156 l 1285 0 l 710 0 l 729 111 q 585 15 665 49 q 415 -19 504 -19 q 229 29 310 -19 q 104 172 149 78 q 60 396 60 265 q 129 698 60 561 q 315 913 199 835 q 569 992 432 992 q 735 947 663 992 q 854 825 808 903 l 881 972 l 1444 972 l 1417 817 l 1000 817 m 458 136 q 639 197 563 136 q 754 356 715 257 q 793 572 793 456 q 738 766 793 696 q 574 836 683 836 q 398 777 474 836 q 281 620 322 718 q 240 410 240 522 q 294 209 240 282 q 458 136 349 136 z "},"P":{"ha":794,"x_min":38,"x_max":813,"o":"m 208 972 l 519 972 q 738 903 663 972 q 813 704 813 833 q 762 495 813 581 q 624 368 711 410 q 425 326 536 326 l 258 326 l 201 0 l 38 0 l 208 972 m 443 478 q 588 533 535 478 q 642 689 642 588 q 609 797 642 761 q 506 833 576 833 l 349 833 l 286 478 l 443 478 z "},"Þ":{"ha":738,"x_min":24,"x_max":751,"o":"m 196 972 l 360 972 l 324 767 l 489 767 q 684 710 617 767 q 751 550 751 653 q 655 323 751 406 q 396 240 558 240 l 231 240 l 188 0 l 24 0 l 196 972 m 401 379 q 535 417 489 379 q 581 525 581 454 q 548 602 581 576 q 446 628 515 628 l 299 628 l 256 379 l 401 379 z "},"Q":{"ha":1017,"x_min":60,"x_max":985,"o":"m 435 -19 q 236 31 321 -19 q 106 175 151 81 q 60 397 60 269 q 134 700 60 564 q 333 914 208 836 q 606 992 458 992 q 808 941 722 992 q 939 798 893 890 q 985 582 985 706 q 947 369 985 469 q 836 172 908 269 l 904 103 l 790 -8 l 714 69 q 435 -19 590 -19 m 463 136 q 604 175 547 136 l 510 279 l 624 390 l 721 283 q 782 417 760 351 q 804 565 804 483 q 749 763 804 690 q 579 836 693 836 q 401 777 478 836 q 282 620 324 718 q 240 410 240 522 q 296 209 240 282 q 463 136 351 136 z "},"R":{"ha":831,"x_min":38,"x_max":813,"o":"m 208 972 l 514 972 q 735 911 657 972 q 813 725 813 850 q 753 534 813 613 q 599 410 693 456 l 735 0 l 564 0 l 438 367 l 265 367 l 201 0 l 38 0 l 208 972 m 440 521 q 582 571 526 521 q 638 710 638 621 q 605 804 638 772 q 499 836 572 836 l 349 836 l 293 521 l 440 521 z "},"Ŕ":{"ha":831,"x_min":38,"x_max":813,"o":"m 208 972 l 514 972 q 735 911 657 972 q 813 725 813 850 q 753 534 813 613 q 599 410 693 456 l 735 0 l 564 0 l 438 367 l 265 367 l 201 0 l 38 0 l 208 972 m 440 521 q 582 571 526 521 q 638 710 638 621 q 605 804 638 772 q 499 836 572 836 l 349 836 l 293 521 l 440 521 m 443 1156 l 703 1288 l 679 1138 l 429 1057 l 443 1156 z "},"Ř":{"ha":831,"x_min":38,"x_max":813,"o":"m 208 972 l 514 972 q 735 911 657 972 q 813 725 813 850 q 753 534 813 613 q 599 410 693 456 l 735 0 l 564 0 l 438 367 l 265 367 l 201 0 l 38 0 l 208 972 m 440 521 q 582 571 526 521 q 638 710 638 621 q 605 804 638 772 q 499 836 572 836 l 349 836 l 293 521 l 440 521 m 379 1165 l 396 1263 l 557 1158 l 728 1258 l 710 1149 l 538 1038 l 379 1165 z "},"Ŗ":{"ha":831,"x_min":38,"x_max":813,"o":"m 208 972 l 514 972 q 735 911 657 972 q 813 725 813 850 q 753 534 813 613 q 599 410 693 456 l 735 0 l 564 0 l 438 367 l 265 367 l 201 0 l 38 0 l 208 972 m 440 521 q 582 571 526 521 q 638 710 638 621 q 605 804 638 772 q 499 836 572 836 l 349 836 l 293 521 l 440 521 m 254 -378 l 321 -257 l 268 -257 l 292 -126 l 432 -126 l 410 -257 l 311 -378 l 254 -378 z "},"Ȑ":{"ha":831,"x_min":38,"x_max":813,"o":"m 208 972 l 514 972 q 735 911 657 972 q 813 725 813 850 q 753 534 813 613 q 599 410 693 456 l 735 0 l 564 0 l 438 367 l 265 367 l 201 0 l 38 0 l 208 972 m 440 521 q 582 571 526 521 q 638 710 638 621 q 605 804 638 772 q 499 836 572 836 l 349 836 l 293 521 l 440 521 m 401 1094 l 303 1308 l 451 1308 l 503 1094 l 401 1094 m 600 1094 l 511 1308 l 660 1308 l 701 1094 l 600 1094 z "},"Ṛ":{"ha":831,"x_min":38,"x_max":813,"o":"m 208 972 l 514 972 q 735 911 657 972 q 813 725 813 850 q 753 534 813 613 q 599 410 693 456 l 735 0 l 564 0 l 438 367 l 265 367 l 201 0 l 38 0 l 208 972 m 440 521 q 582 571 526 521 q 638 710 638 621 q 605 804 638 772 q 499 836 572 836 l 349 836 l 293 521 l 440 521 m 296 -112 l 431 -112 l 406 -244 l 271 -244 l 296 -112 z "},"Ȓ":{"ha":831,"x_min":38,"x_max":813,"o":"m 208 972 l 514 972 q 735 911 657 972 q 813 725 813 850 q 753 534 813 613 q 599 410 693 456 l 735 0 l 564 0 l 438 367 l 265 367 l 201 0 l 38 0 l 208 972 m 440 521 q 582 571 526 521 q 638 710 638 621 q 605 804 638 772 q 499 836 572 836 l 349 836 l 293 521 l 440 521 m 582 1261 q 715 1220 668 1261 q 763 1115 763 1179 q 760 1083 763 1103 l 643 1083 q 646 1103 646 1097 q 624 1152 646 1135 q 565 1169 603 1169 q 494 1147 524 1169 q 458 1083 465 1124 l 343 1083 q 421 1210 356 1158 q 582 1261 486 1261 z "},"Ṟ":{"ha":831,"x_min":38,"x_max":813,"o":"m 208 972 l 514 972 q 735 911 657 972 q 813 725 813 850 q 753 534 813 613 q 599 410 693 456 l 735 0 l 564 0 l 438 367 l 265 367 l 201 0 l 38 0 l 208 972 m 440 521 q 582 571 526 521 q 638 710 638 621 q 605 804 638 772 q 499 836 572 836 l 349 836 l 293 521 l 440 521 m 140 -126 l 581 -126 l 560 -235 l 118 -235 l 140 -126 z "},"S":{"ha":775,"x_min":7,"x_max":769,"o":"m 307 -19 q 139 -1 215 -19 q 7 49 63 18 l 60 238 q 177 165 110 193 q 328 136 244 136 q 469 168 417 136 q 521 268 521 200 q 478 365 521 331 q 335 435 436 399 q 210 492 258 463 q 133 567 161 521 q 106 685 106 614 q 149 836 106 765 q 277 949 193 907 q 476 992 361 992 q 644 970 567 992 q 769 919 721 949 l 724 750 q 592 817 651 796 q 464 838 533 838 q 332 806 386 838 q 278 710 278 774 q 317 632 278 660 q 440 575 356 604 q 581 517 529 543 q 671 438 633 490 q 708 304 708 386 q 669 148 708 221 q 540 28 629 75 q 307 -19 450 -19 z "},"Ś":{"ha":775,"x_min":7,"x_max":769,"o":"m 307 -19 q 139 -1 215 -19 q 7 49 63 18 l 60 238 q 177 165 110 193 q 328 136 244 136 q 469 168 417 136 q 521 268 521 200 q 478 365 521 331 q 335 435 436 399 q 210 492 258 463 q 133 567 161 521 q 106 685 106 614 q 149 836 106 765 q 277 949 193 907 q 476 992 361 992 q 644 970 567 992 q 769 919 721 949 l 724 750 q 592 817 651 796 q 464 838 533 838 q 332 806 386 838 q 278 710 278 774 q 317 632 278 660 q 440 575 356 604 q 581 517 529 543 q 671 438 633 490 q 708 304 708 386 q 669 148 708 221 q 540 28 629 75 q 307 -19 450 -19 m 403 1156 l 663 1288 l 639 1138 l 389 1057 l 403 1156 z "},"Ṥ":{"ha":775,"x_min":7,"x_max":769,"o":"m 307 -19 q 139 -1 215 -19 q 7 49 63 18 l 60 238 q 177 165 110 193 q 328 136 244 136 q 469 168 417 136 q 521 268 521 200 q 478 365 521 331 q 335 435 436 399 q 210 492 258 463 q 133 567 161 521 q 106 685 106 614 q 149 836 106 765 q 277 949 193 907 q 476 992 361 992 q 644 970 567 992 q 769 919 721 949 l 724 750 q 592 817 651 796 q 464 838 533 838 q 332 806 386 838 q 278 710 278 774 q 317 632 278 660 q 440 575 356 604 q 581 517 529 543 q 671 438 633 490 q 708 304 708 386 q 669 148 708 221 q 540 28 629 75 q 307 -19 450 -19 m 403 1156 l 663 1288 l 639 1138 l 389 1057 l 403 1156 m 517 1485 l 654 1485 l 631 1353 l 493 1353 l 517 1485 z "},"Š":{"ha":775,"x_min":7,"x_max":769,"o":"m 307 -19 q 139 -1 215 -19 q 7 49 63 18 l 60 238 q 177 165 110 193 q 328 136 244 136 q 469 168 417 136 q 521 268 521 200 q 478 365 521 331 q 335 435 436 399 q 210 492 258 463 q 133 567 161 521 q 106 685 106 614 q 149 836 106 765 q 277 949 193 907 q 476 992 361 992 q 644 970 567 992 q 769 919 721 949 l 724 750 q 592 817 651 796 q 464 838 533 838 q 332 806 386 838 q 278 710 278 774 q 317 632 278 660 q 440 575 356 604 q 581 517 529 543 q 671 438 633 490 q 708 304 708 386 q 669 148 708 221 q 540 28 629 75 q 307 -19 450 -19 m 356 1213 l 376 1315 l 535 1201 l 731 1315 l 710 1199 l 507 1058 l 356 1213 z "},"Ṧ":{"ha":775,"x_min":7,"x_max":769,"o":"m 307 -19 q 139 -1 215 -19 q 7 49 63 18 l 60 238 q 177 165 110 193 q 328 136 244 136 q 469 168 417 136 q 521 268 521 200 q 478 365 521 331 q 335 435 436 399 q 210 492 258 463 q 133 567 161 521 q 106 685 106 614 q 149 836 106 765 q 277 949 193 907 q 476 992 361 992 q 644 970 567 992 q 769 919 721 949 l 724 750 q 592 817 651 796 q 464 838 533 838 q 332 806 386 838 q 278 710 278 774 q 317 632 278 660 q 440 575 356 604 q 581 517 529 543 q 671 438 633 490 q 708 304 708 386 q 669 148 708 221 q 540 28 629 75 q 307 -19 450 -19 m 339 1165 l 356 1263 l 517 1158 l 688 1258 l 669 1149 l 497 1038 l 339 1165 m 499 1439 l 636 1439 l 613 1307 l 475 1307 l 499 1439 z "},"Ş":{"ha":775,"x_min":7,"x_max":769,"o":"m 464 838 q 332 806 386 838 q 278 710 278 774 q 317 632 278 660 q 440 575 356 604 q 581 517 529 543 q 671 438 633 490 q 708 304 708 386 q 674 158 708 228 q 563 41 640 89 q 365 -17 486 -7 l 338 -75 l 347 -75 q 424 -101 396 -75 q 453 -172 453 -126 q 401 -283 453 -240 q 274 -326 350 -326 q 165 -300 210 -326 l 204 -222 q 289 -246 249 -246 q 345 -231 325 -246 q 365 -190 365 -215 q 349 -158 365 -169 q 303 -147 333 -147 q 233 -157 271 -147 l 292 -19 q 7 49 125 -15 l 60 238 q 177 165 110 193 q 328 136 244 136 q 469 168 417 136 q 521 268 521 200 q 478 365 521 331 q 335 435 436 399 q 210 492 258 463 q 133 567 161 521 q 106 685 106 614 q 149 836 106 765 q 277 949 193 907 q 476 992 361 992 q 644 970 567 992 q 769 919 721 949 l 724 750 q 592 817 651 796 q 464 838 533 838 z "},"Ŝ":{"ha":775,"x_min":7,"x_max":769,"o":"m 307 -19 q 139 -1 215 -19 q 7 49 63 18 l 60 238 q 177 165 110 193 q 328 136 244 136 q 469 168 417 136 q 521 268 521 200 q 478 365 521 331 q 335 435 436 399 q 210 492 258 463 q 133 567 161 521 q 106 685 106 614 q 149 836 106 765 q 277 949 193 907 q 476 992 361 992 q 644 970 567 992 q 769 919 721 949 l 724 750 q 592 817 651 796 q 464 838 533 838 q 332 806 386 838 q 278 710 278 774 q 317 632 278 660 q 440 575 356 604 q 581 517 529 543 q 671 438 633 490 q 708 304 708 386 q 669 148 708 221 q 540 28 629 75 q 307 -19 450 -19 m 700 1135 l 683 1038 l 519 1136 l 353 1054 l 371 1151 l 543 1263 l 700 1135 z "},"Ș":{"ha":775,"x_min":7,"x_max":769,"o":"m 307 -19 q 139 -1 215 -19 q 7 49 63 18 l 60 238 q 177 165 110 193 q 328 136 244 136 q 469 168 417 136 q 521 268 521 200 q 478 365 521 331 q 335 435 436 399 q 210 492 258 463 q 133 567 161 521 q 106 685 106 614 q 149 836 106 765 q 277 949 193 907 q 476 992 361 992 q 644 970 567 992 q 769 919 721 949 l 724 750 q 592 817 651 796 q 464 838 533 838 q 332 806 386 838 q 278 710 278 774 q 317 632 278 660 q 440 575 356 604 q 581 517 529 543 q 671 438 633 490 q 708 304 708 386 q 669 148 708 221 q 540 28 629 75 q 307 -19 450 -19 m 206 -378 l 272 -257 l 219 -257 l 243 -126 l 383 -126 l 361 -257 l 263 -378 l 206 -378 z "},"Ṡ":{"ha":775,"x_min":7,"x_max":769,"o":"m 307 -19 q 139 -1 215 -19 q 7 49 63 18 l 60 238 q 177 165 110 193 q 328 136 244 136 q 469 168 417 136 q 521 268 521 200 q 478 365 521 331 q 335 435 436 399 q 210 492 258 463 q 133 567 161 521 q 106 685 106 614 q 149 836 106 765 q 277 949 193 907 q 476 992 361 992 q 644 970 567 992 q 769 919 721 949 l 724 750 q 592 817 651 796 q 464 838 533 838 q 332 806 386 838 q 278 710 278 774 q 317 632 278 660 q 440 575 356 604 q 581 517 529 543 q 671 438 633 490 q 708 304 708 386 q 669 148 708 221 q 540 28 629 75 q 307 -19 450 -19 m 468 1232 l 606 1232 l 582 1100 l 444 1100 l 468 1232 z "},"Ṣ":{"ha":775,"x_min":7,"x_max":769,"o":"m 307 -19 q 139 -1 215 -19 q 7 49 63 18 l 60 238 q 177 165 110 193 q 328 136 244 136 q 469 168 417 136 q 521 268 521 200 q 478 365 521 331 q 335 435 436 399 q 210 492 258 463 q 133 567 161 521 q 106 685 106 614 q 149 836 106 765 q 277 949 193 907 q 476 992 361 992 q 644 970 567 992 q 769 919 721 949 l 724 750 q 592 817 651 796 q 464 838 533 838 q 332 806 386 838 q 278 710 278 774 q 317 632 278 660 q 440 575 356 604 q 581 517 529 543 q 671 438 633 490 q 708 304 708 386 q 669 148 708 221 q 540 28 629 75 q 307 -19 450 -19 m 247 -112 l 382 -112 l 357 -244 l 222 -244 l 247 -112 z "},"Ṩ":{"ha":775,"x_min":7,"x_max":769,"o":"m 307 -19 q 139 -1 215 -19 q 7 49 63 18 l 60 238 q 177 165 110 193 q 328 136 244 136 q 469 168 417 136 q 521 268 521 200 q 478 365 521 331 q 335 435 436 399 q 210 492 258 463 q 133 567 161 521 q 106 685 106 614 q 149 836 106 765 q 277 949 193 907 q 476 992 361 992 q 644 970 567 992 q 769 919 721 949 l 724 750 q 592 817 651 796 q 464 838 533 838 q 332 806 386 838 q 278 710 278 774 q 317 632 278 660 q 440 575 356 604 q 581 517 529 543 q 671 438 633 490 q 708 304 708 386 q 669 148 708 221 q 540 28 629 75 q 307 -19 450 -19 m 468 1232 l 606 1232 l 582 1100 l 444 1100 l 468 1232 m 247 -112 l 382 -112 l 357 -244 l 222 -244 l 247 -112 z "},"ẞ":{"ha":850,"x_min":28,"x_max":833,"o":"m 804 788 l 610 550 q 740 459 694 522 q 786 306 786 396 q 741 133 786 207 q 618 20 696 60 q 442 -19 540 -19 q 299 0 369 -19 l 326 151 q 432 136 378 136 q 557 179 508 136 q 606 299 606 222 q 564 403 606 367 q 447 443 522 439 l 422 444 l 446 571 l 660 826 q 547 842 610 842 q 385 788 449 842 q 301 621 322 733 l 192 0 l 28 0 l 143 651 q 281 908 174 824 q 551 992 389 992 q 703 972 631 992 q 833 921 775 953 l 804 788 z "},"Ə":{"ha":957,"x_min":39,"x_max":926,"o":"m 535 992 q 748 942 660 992 q 881 801 836 892 q 926 592 926 711 q 857 289 926 429 q 665 65 788 149 q 392 -19 543 -19 q 134 71 229 -19 q 39 319 39 161 q 49 418 39 365 q 76 511 60 471 l 744 511 q 747 571 747 550 q 682 767 747 697 q 492 836 617 836 q 179 763 347 836 l 190 913 q 355 971 267 950 q 535 992 443 992 m 415 136 q 597 199 521 136 q 713 367 674 261 l 215 367 q 213 325 213 336 q 263 187 213 238 q 415 136 314 136 z "},"T":{"ha":767,"x_min":113,"x_max":824,"o":"m 372 817 l 113 817 l 140 972 l 824 972 l 796 817 l 536 817 l 393 0 l 229 0 l 372 817 z "},"Ŧ":{"ha":767,"x_min":113,"x_max":824,"o":"m 536 817 l 488 540 l 665 540 l 646 433 l 469 433 l 393 0 l 229 0 l 306 433 l 128 433 l 147 540 l 324 540 l 372 817 l 113 817 l 140 972 l 824 972 l 796 817 l 536 817 z "},"Ť":{"ha":767,"x_min":113,"x_max":824,"o":"m 372 817 l 113 817 l 140 972 l 824 972 l 796 817 l 536 817 l 393 0 l 229 0 l 372 817 m 331 1165 l 347 1263 l 508 1158 l 679 1258 l 661 1149 l 489 1038 l 331 1165 z "},"Ţ":{"ha":767,"x_min":113,"x_max":824,"o":"m 372 817 l 113 817 l 140 972 l 824 972 l 796 817 l 536 817 l 393 0 l 229 0 l 372 817 m 325 -75 q 402 -101 374 -75 q 431 -172 431 -126 q 379 -283 431 -240 q 251 -326 328 -326 q 143 -300 188 -326 l 182 -222 q 267 -246 226 -246 q 323 -231 303 -246 q 343 -190 343 -215 q 327 -158 343 -169 q 281 -147 311 -147 q 211 -157 249 -147 l 278 0 l 351 0 l 315 -75 l 325 -75 z "},"Ț":{"ha":767,"x_min":113,"x_max":824,"o":"m 372 817 l 113 817 l 140 972 l 824 972 l 796 817 l 536 817 l 393 0 l 229 0 l 372 817 m 183 -378 l 250 -257 l 197 -257 l 221 -126 l 361 -126 l 339 -257 l 240 -378 l 183 -378 z "},"Ṭ":{"ha":767,"x_min":113,"x_max":824,"o":"m 372 817 l 113 817 l 140 972 l 824 972 l 796 817 l 536 817 l 393 0 l 229 0 l 372 817 m 225 -112 l 360 -112 l 335 -244 l 200 -244 l 225 -112 z "},"Ṯ":{"ha":767,"x_min":47,"x_max":824,"o":"m 372 817 l 113 817 l 140 972 l 824 972 l 796 817 l 536 817 l 393 0 l 229 0 l 372 817 m 69 -126 l 510 -126 l 489 -235 l 47 -235 l 69 -126 z "},"U":{"ha":954,"x_min":89,"x_max":957,"o":"m 403 -19 q 167 62 246 -19 q 89 292 89 143 q 100 415 89 354 l 199 972 l 361 972 l 274 476 q 260 333 260 399 q 299 188 260 239 q 429 136 338 136 q 615 226 553 136 q 706 476 676 317 l 793 972 l 957 972 l 858 415 q 706 96 822 211 q 403 -19 590 -19 z "},"Ú":{"ha":954,"x_min":89,"x_max":957,"o":"m 403 -19 q 167 62 246 -19 q 89 292 89 143 q 100 415 89 354 l 199 972 l 361 972 l 274 476 q 260 333 260 399 q 299 188 260 239 q 429 136 338 136 q 615 226 553 136 q 706 476 676 317 l 793 972 l 957 972 l 858 415 q 706 96 822 211 q 403 -19 590 -19 m 497 1185 l 769 1333 l 744 1165 l 475 1076 l 497 1185 z "},"Ŭ":{"ha":954,"x_min":89,"x_max":957,"o":"m 403 -19 q 167 62 246 -19 q 89 292 89 143 q 100 415 89 354 l 199 972 l 361 972 l 274 476 q 260 333 260 399 q 299 188 260 239 q 429 136 338 136 q 615 226 553 136 q 706 476 676 317 l 793 972 l 957 972 l 858 415 q 706 96 822 211 q 403 -19 590 -19 m 594 1063 q 460 1103 507 1063 q 413 1208 413 1144 q 415 1240 413 1218 l 531 1240 q 528 1219 528 1229 q 550 1171 528 1188 q 608 1154 572 1154 q 681 1177 651 1154 q 718 1240 711 1200 l 836 1240 q 758 1111 822 1160 q 594 1063 694 1063 z "},"Û":{"ha":954,"x_min":89,"x_max":957,"o":"m 403 -19 q 167 62 246 -19 q 89 292 89 143 q 100 415 89 354 l 199 972 l 361 972 l 274 476 q 260 333 260 399 q 299 188 260 239 q 429 136 338 136 q 615 226 553 136 q 706 476 676 317 l 793 972 l 957 972 l 858 415 q 706 96 822 211 q 403 -19 590 -19 m 463 1176 l 644 1313 l 794 1158 l 774 1056 l 617 1169 l 439 1071 l 463 1176 z "},"Ȕ":{"ha":954,"x_min":89,"x_max":957,"o":"m 403 -19 q 167 62 246 -19 q 89 292 89 143 q 100 415 89 354 l 199 972 l 361 972 l 274 476 q 260 333 260 399 q 299 188 260 239 q 429 136 338 136 q 615 226 553 136 q 706 476 676 317 l 793 972 l 957 972 l 858 415 q 706 96 822 211 q 403 -19 590 -19 m 449 1094 l 350 1308 l 499 1308 l 550 1094 l 449 1094 m 647 1094 l 558 1308 l 707 1308 l 749 1094 l 647 1094 z "},"Ü":{"ha":954,"x_min":89,"x_max":957,"o":"m 403 -19 q 167 62 246 -19 q 89 292 89 143 q 100 415 89 354 l 199 972 l 361 972 l 274 476 q 260 333 260 399 q 299 188 260 239 q 429 136 338 136 q 615 226 553 136 q 706 476 676 317 l 793 972 l 957 972 l 858 415 q 706 96 822 211 q 403 -19 590 -19 m 428 1224 l 554 1224 l 531 1103 l 404 1103 l 428 1224 m 697 1224 l 824 1224 l 800 1103 l 674 1103 l 697 1224 z "},"Ụ":{"ha":954,"x_min":89,"x_max":957,"o":"m 403 -19 q 167 62 246 -19 q 89 292 89 143 q 100 415 89 354 l 199 972 l 361 972 l 274 476 q 260 333 260 399 q 299 188 260 239 q 429 136 338 136 q 615 226 553 136 q 706 476 676 317 l 793 972 l 957 972 l 858 415 q 706 96 822 211 q 403 -19 590 -19 m 308 -112 l 443 -112 l 418 -244 l 283 -244 l 308 -112 z "},"Ù":{"ha":954,"x_min":89,"x_max":957,"o":"m 403 -19 q 167 62 246 -19 q 89 292 89 143 q 100 415 89 354 l 199 972 l 361 972 l 274 476 q 260 333 260 399 q 299 188 260 239 q 429 136 338 136 q 615 226 553 136 q 706 476 676 317 l 793 972 l 957 972 l 858 415 q 706 96 822 211 q 403 -19 590 -19 m 485 1179 l 513 1332 l 742 1178 l 724 1076 l 485 1179 z "},"Ủ":{"ha":954,"x_min":89,"x_max":957,"o":"m 403 -19 q 167 62 246 -19 q 89 292 89 143 q 100 415 89 354 l 199 972 l 361 972 l 274 476 q 260 333 260 399 q 299 188 260 239 q 429 136 338 136 q 615 226 553 136 q 706 476 676 317 l 793 972 l 957 972 l 858 415 q 706 96 822 211 q 403 -19 590 -19 m 568 1069 q 627 1122 608 1101 q 646 1169 646 1143 q 635 1197 646 1188 q 603 1207 624 1207 q 511 1182 568 1207 l 503 1260 q 618 1285 563 1285 q 701 1260 669 1285 q 735 1189 733 1235 q 702 1099 735 1138 q 608 1019 669 1060 l 568 1069 z "},"Ư":{"ha":954,"x_min":89,"x_max":1129,"o":"m 1129 1075 q 1065 954 1117 1006 q 940 881 1013 903 l 858 415 q 706 96 822 211 q 403 -19 590 -19 q 167 62 246 -19 q 89 292 89 143 q 100 415 89 354 l 199 972 l 361 972 l 274 476 q 260 333 260 399 q 299 188 260 239 q 429 136 338 136 q 615 226 553 136 q 706 476 676 317 l 793 972 l 861 972 q 990 1075 971 972 l 1129 1075 z "},"Ứ":{"ha":954,"x_min":89,"x_max":1129,"o":"m 1129 1075 q 1065 954 1117 1006 q 940 881 1013 903 l 858 415 q 706 96 822 211 q 403 -19 590 -19 q 167 62 246 -19 q 89 292 89 143 q 100 415 89 354 l 199 972 l 361 972 l 274 476 q 260 333 260 399 q 299 188 260 239 q 429 136 338 136 q 615 226 553 136 q 706 476 676 317 l 793 972 l 861 972 q 990 1075 971 972 l 1129 1075 m 497 1185 l 769 1333 l 744 1165 l 475 1076 l 497 1185 z "},"Ự":{"ha":954,"x_min":89,"x_max":1129,"o":"m 1129 1075 q 1065 954 1117 1006 q 940 881 1013 903 l 858 415 q 706 96 822 211 q 403 -19 590 -19 q 167 62 246 -19 q 89 292 89 143 q 100 415 89 354 l 199 972 l 361 972 l 274 476 q 260 333 260 399 q 299 188 260 239 q 429 136 338 136 q 615 226 553 136 q 706 476 676 317 l 793 972 l 861 972 q 990 1075 971 972 l 1129 1075 m 308 -112 l 443 -112 l 418 -244 l 283 -244 l 308 -112 z "},"Ừ":{"ha":954,"x_min":89,"x_max":1129,"o":"m 1129 1075 q 1065 954 1117 1006 q 940 881 1013 903 l 858 415 q 706 96 822 211 q 403 -19 590 -19 q 167 62 246 -19 q 89 292 89 143 q 100 415 89 354 l 199 972 l 361 972 l 274 476 q 260 333 260 399 q 299 188 260 239 q 429 136 338 136 q 615 226 553 136 q 706 476 676 317 l 793 972 l 861 972 q 990 1075 971 972 l 1129 1075 m 485 1179 l 513 1332 l 742 1178 l 724 1076 l 485 1179 z "},"Ử":{"ha":954,"x_min":89,"x_max":1129,"o":"m 1129 1075 q 1065 954 1117 1006 q 940 881 1013 903 l 858 415 q 706 96 822 211 q 403 -19 590 -19 q 167 62 246 -19 q 89 292 89 143 q 100 415 89 354 l 199 972 l 361 972 l 274 476 q 260 333 260 399 q 299 188 260 239 q 429 136 338 136 q 615 226 553 136 q 706 476 676 317 l 793 972 l 861 972 q 990 1075 971 972 l 1129 1075 m 568 1069 q 627 1122 608 1101 q 646 1169 646 1143 q 635 1197 646 1188 q 603 1207 624 1207 q 511 1182 568 1207 l 503 1260 q 618 1285 563 1285 q 701 1260 669 1285 q 735 1189 733 1235 q 702 1099 735 1138 q 608 1019 669 1060 l 568 1069 z "},"Ữ":{"ha":954,"x_min":89,"x_max":1129,"o":"m 1129 1075 q 1065 954 1117 1006 q 940 881 1013 903 l 858 415 q 706 96 822 211 q 403 -19 590 -19 q 167 62 246 -19 q 89 292 89 143 q 100 415 89 354 l 199 972 l 361 972 l 274 476 q 260 333 260 399 q 299 188 260 239 q 429 136 338 136 q 615 226 553 136 q 706 476 676 317 l 793 972 l 861 972 q 990 1075 971 972 l 1129 1075 m 721 1086 q 677 1094 700 1086 q 622 1117 654 1101 q 536 1146 564 1146 q 499 1133 514 1146 q 481 1097 485 1119 l 374 1097 q 425 1219 388 1176 q 519 1261 463 1261 q 566 1252 543 1261 q 618 1228 589 1243 q 660 1208 639 1217 q 699 1200 682 1200 q 751 1254 743 1200 l 861 1254 q 811 1127 846 1168 q 721 1086 776 1086 z "},"Ű":{"ha":954,"x_min":89,"x_max":957,"o":"m 403 -19 q 167 62 246 -19 q 89 292 89 143 q 100 415 89 354 l 199 972 l 361 972 l 274 476 q 260 333 260 399 q 299 188 260 239 q 429 136 338 136 q 615 226 553 136 q 706 476 676 317 l 793 972 l 957 972 l 858 415 q 706 96 822 211 q 403 -19 590 -19 m 558 1308 l 710 1308 l 546 1094 l 443 1094 l 558 1308 m 768 1308 l 921 1308 l 746 1094 l 643 1094 l 768 1308 z "},"Ȗ":{"ha":954,"x_min":89,"x_max":957,"o":"m 403 -19 q 167 62 246 -19 q 89 292 89 143 q 100 415 89 354 l 199 972 l 361 972 l 274 476 q 260 333 260 399 q 299 188 260 239 q 429 136 338 136 q 615 226 553 136 q 706 476 676 317 l 793 972 l 957 972 l 858 415 q 706 96 822 211 q 403 -19 590 -19 m 629 1261 q 763 1220 715 1261 q 810 1115 810 1179 q 807 1083 810 1103 l 690 1083 q 693 1103 693 1097 q 672 1152 693 1135 q 613 1169 650 1169 q 542 1147 571 1169 q 506 1083 513 1124 l 390 1083 q 468 1210 403 1158 q 629 1261 533 1261 z "},"Ū":{"ha":954,"x_min":89,"x_max":957,"o":"m 403 -19 q 167 62 246 -19 q 89 292 89 143 q 100 415 89 354 l 199 972 l 361 972 l 274 476 q 260 333 260 399 q 299 188 260 239 q 429 136 338 136 q 615 226 553 136 q 706 476 676 317 l 793 972 l 957 972 l 858 415 q 706 96 822 211 q 403 -19 590 -19 m 397 1204 l 840 1204 l 821 1101 l 379 1101 l 397 1204 z "},"Ṻ":{"ha":954,"x_min":89,"x_max":957,"o":"m 403 -19 q 167 62 246 -19 q 89 292 89 143 q 100 415 89 354 l 199 972 l 361 972 l 274 476 q 260 333 260 399 q 299 188 260 239 q 429 136 338 136 q 615 226 553 136 q 706 476 676 317 l 793 972 l 957 972 l 858 415 q 706 96 822 211 q 403 -19 590 -19 m 397 1204 l 840 1204 l 821 1101 l 379 1101 l 397 1204 m 469 1436 l 596 1436 l 575 1321 l 449 1321 l 469 1436 m 736 1436 l 863 1436 l 842 1321 l 715 1321 l 736 1436 z "},"Ų":{"ha":954,"x_min":89,"x_max":957,"o":"m 957 972 l 858 415 q 735 126 826 238 q 496 -11 643 15 q 410 -85 443 -49 q 378 -161 378 -122 q 391 -199 378 -186 q 429 -211 404 -211 q 513 -193 472 -211 l 521 -267 q 404 -292 468 -292 q 319 -266 351 -292 q 286 -194 288 -240 q 319 -100 286 -146 q 401 -19 351 -54 q 167 62 244 -19 q 89 292 89 143 q 100 415 89 354 l 199 972 l 361 972 l 274 476 q 260 333 260 399 q 299 188 260 239 q 429 136 338 136 q 615 226 553 136 q 706 476 676 317 l 793 972 l 957 972 z "},"Ů":{"ha":954,"x_min":89,"x_max":957,"o":"m 403 -19 q 167 62 246 -19 q 89 292 89 143 q 100 415 89 354 l 199 972 l 361 972 l 274 476 q 260 333 260 399 q 299 188 260 239 q 429 136 338 136 q 615 226 553 136 q 706 476 676 317 l 793 972 l 957 972 l 858 415 q 706 96 822 211 q 403 -19 590 -19 m 594 1049 q 506 1080 538 1049 q 474 1160 474 1111 q 522 1273 474 1226 q 636 1319 569 1319 q 724 1288 693 1319 q 756 1207 756 1256 q 708 1094 756 1140 q 594 1049 661 1049 m 603 1117 q 655 1141 633 1117 q 676 1196 676 1165 q 662 1235 675 1219 q 626 1250 649 1250 q 576 1226 597 1250 q 554 1171 554 1203 q 568 1131 554 1146 q 603 1117 582 1117 z "},"Ũ":{"ha":954,"x_min":89,"x_max":957,"o":"m 403 -19 q 167 62 246 -19 q 89 292 89 143 q 100 415 89 354 l 199 972 l 361 972 l 274 476 q 260 333 260 399 q 299 188 260 239 q 429 136 338 136 q 615 226 553 136 q 706 476 676 317 l 793 972 l 957 972 l 858 415 q 706 96 822 211 q 403 -19 590 -19 m 721 1086 q 677 1094 700 1086 q 622 1117 654 1101 q 536 1146 564 1146 q 499 1133 514 1146 q 481 1097 485 1119 l 374 1097 q 425 1219 388 1176 q 519 1261 463 1261 q 566 1252 543 1261 q 618 1228 589 1243 q 660 1208 639 1217 q 699 1200 682 1200 q 751 1254 743 1200 l 861 1254 q 811 1127 846 1168 q 721 1086 776 1086 z "},"Ṹ":{"ha":954,"x_min":89,"x_max":957,"o":"m 403 -19 q 167 62 246 -19 q 89 292 89 143 q 100 415 89 354 l 199 972 l 361 972 l 274 476 q 260 333 260 399 q 299 188 260 239 q 429 136 338 136 q 615 226 553 136 q 706 476 676 317 l 793 972 l 957 972 l 858 415 q 706 96 822 211 q 403 -19 590 -19 m 707 1083 q 664 1091 686 1083 q 608 1113 642 1099 q 565 1130 588 1122 q 528 1138 543 1138 q 482 1093 490 1138 l 382 1093 q 428 1199 394 1163 q 517 1236 463 1236 q 613 1208 551 1236 q 656 1191 633 1199 q 694 1183 678 1183 q 740 1229 732 1183 l 840 1229 q 796 1121 831 1158 q 707 1083 761 1083 m 531 1389 l 790 1521 l 767 1371 l 517 1290 l 531 1389 z "},"V":{"ha":868,"x_min":100,"x_max":953,"o":"m 100 972 l 271 972 l 396 193 l 783 972 l 953 972 l 457 0 l 260 0 l 100 972 z "},"W":{"ha":1278,"x_min":124,"x_max":1363,"o":"m 124 972 l 294 972 l 349 246 l 679 967 l 804 967 l 888 260 l 1192 972 l 1363 972 l 922 0 l 775 0 l 693 693 l 365 0 l 210 0 l 124 972 z "},"Ẃ":{"ha":1278,"x_min":124,"x_max":1363,"o":"m 124 972 l 294 972 l 349 246 l 679 967 l 804 967 l 888 260 l 1192 972 l 1363 972 l 922 0 l 775 0 l 693 693 l 365 0 l 210 0 l 124 972 m 654 1156 l 914 1288 l 890 1138 l 640 1057 l 654 1156 z "},"Ŵ":{"ha":1278,"x_min":124,"x_max":1363,"o":"m 124 972 l 294 972 l 349 246 l 679 967 l 804 967 l 888 260 l 1192 972 l 1363 972 l 922 0 l 775 0 l 693 693 l 365 0 l 210 0 l 124 972 m 951 1135 l 935 1038 l 771 1136 l 604 1054 l 622 1151 l 794 1263 l 951 1135 z "},"Ẅ":{"ha":1278,"x_min":124,"x_max":1363,"o":"m 124 972 l 294 972 l 349 246 l 679 967 l 804 967 l 888 260 l 1192 972 l 1363 972 l 922 0 l 775 0 l 693 693 l 365 0 l 210 0 l 124 972 m 586 1207 l 713 1207 l 692 1092 l 565 1092 l 586 1207 m 853 1207 l 979 1207 l 958 1092 l 832 1092 l 853 1207 z "},"Ẁ":{"ha":1278,"x_min":124,"x_max":1363,"o":"m 124 972 l 294 972 l 349 246 l 679 967 l 804 967 l 888 260 l 1192 972 l 1363 972 l 922 0 l 775 0 l 693 693 l 365 0 l 210 0 l 124 972 m 642 1138 l 668 1279 l 901 1147 l 883 1057 l 642 1138 z "},"X":{"ha":833,"x_min":-64,"x_max":910,"o":"m 339 499 l 121 972 l 311 972 l 457 611 l 722 972 l 910 972 l 525 493 l 756 0 l 567 0 l 406 369 l 124 0 l -64 0 l 339 499 z "},"Y":{"ha":814,"x_min":104,"x_max":900,"o":"m 325 436 l 104 972 l 278 972 l 436 579 l 726 972 l 900 972 l 490 436 l 413 0 l 249 0 l 325 436 z "},"Ý":{"ha":814,"x_min":104,"x_max":900,"o":"m 325 436 l 104 972 l 278 972 l 436 579 l 726 972 l 900 972 l 490 436 l 413 0 l 249 0 l 325 436 m 421 1185 l 693 1333 l 668 1165 l 399 1076 l 421 1185 z "},"Ŷ":{"ha":814,"x_min":104,"x_max":900,"o":"m 325 436 l 104 972 l 278 972 l 436 579 l 726 972 l 900 972 l 490 436 l 413 0 l 249 0 l 325 436 m 711 1135 l 694 1038 l 531 1136 l 364 1054 l 382 1151 l 554 1263 l 711 1135 z "},"Ÿ":{"ha":814,"x_min":104,"x_max":900,"o":"m 325 436 l 104 972 l 278 972 l 436 579 l 726 972 l 900 972 l 490 436 l 413 0 l 249 0 l 325 436 m 351 1224 l 478 1224 l 454 1103 l 328 1103 l 351 1224 m 621 1224 l 747 1224 l 724 1103 l 597 1103 l 621 1224 z "},"Ẏ":{"ha":814,"x_min":104,"x_max":900,"o":"m 325 436 l 104 972 l 278 972 l 436 579 l 726 972 l 900 972 l 490 436 l 413 0 l 249 0 l 325 436 m 479 1232 l 617 1232 l 593 1100 l 456 1100 l 479 1232 z "},"Ỵ":{"ha":814,"x_min":104,"x_max":900,"o":"m 325 436 l 104 972 l 278 972 l 436 579 l 726 972 l 900 972 l 490 436 l 413 0 l 249 0 l 325 436 m 244 -112 l 379 -112 l 354 -244 l 219 -244 l 244 -112 z "},"Ỳ":{"ha":814,"x_min":104,"x_max":900,"o":"m 325 436 l 104 972 l 278 972 l 436 579 l 726 972 l 900 972 l 490 436 l 413 0 l 249 0 l 325 436 m 408 1179 l 436 1332 l 665 1178 l 647 1076 l 408 1179 z "},"Ỷ":{"ha":814,"x_min":104,"x_max":900,"o":"m 325 436 l 104 972 l 278 972 l 436 579 l 726 972 l 900 972 l 490 436 l 413 0 l 249 0 l 325 436 m 492 1069 q 551 1122 532 1101 q 569 1169 569 1143 q 558 1197 569 1188 q 526 1207 547 1207 q 435 1182 492 1207 l 426 1260 q 542 1285 486 1285 q 625 1260 593 1285 q 658 1189 657 1235 q 626 1099 658 1138 q 532 1019 593 1060 l 492 1069 z "},"Ȳ":{"ha":814,"x_min":104,"x_max":900,"o":"m 325 436 l 104 972 l 278 972 l 436 579 l 726 972 l 900 972 l 490 436 l 413 0 l 249 0 l 325 436 m 321 1204 l 764 1204 l 744 1101 l 303 1101 l 321 1204 z "},"Ỹ":{"ha":814,"x_min":104,"x_max":900,"o":"m 325 436 l 104 972 l 278 972 l 436 579 l 726 972 l 900 972 l 490 436 l 413 0 l 249 0 l 325 436 m 644 1086 q 601 1094 624 1086 q 546 1117 578 1101 q 460 1146 488 1146 q 423 1133 438 1146 q 404 1097 408 1119 l 297 1097 q 349 1219 311 1176 q 443 1261 386 1261 q 490 1252 467 1261 q 542 1228 513 1243 q 584 1208 563 1217 q 622 1200 606 1200 q 675 1254 667 1200 l 785 1254 q 735 1127 769 1168 q 644 1086 700 1086 z "},"Z":{"ha":729,"x_min":-56,"x_max":814,"o":"m 515 817 l 149 817 l 175 972 l 814 972 l 243 156 l 610 156 l 583 0 l -56 0 l 515 817 z "},"Ź":{"ha":729,"x_min":-56,"x_max":814,"o":"m 515 817 l 149 817 l 175 972 l 814 972 l 243 156 l 610 156 l 583 0 l -56 0 l 515 817 m 407 1156 l 667 1288 l 643 1138 l 393 1057 l 407 1156 z "},"Ž":{"ha":729,"x_min":-56,"x_max":814,"o":"m 515 817 l 149 817 l 175 972 l 814 972 l 243 156 l 610 156 l 583 0 l -56 0 l 515 817 m 360 1213 l 381 1315 l 539 1201 l 735 1315 l 714 1199 l 511 1058 l 360 1213 z "},"Ż":{"ha":729,"x_min":-56,"x_max":814,"o":"m 515 817 l 149 817 l 175 972 l 814 972 l 243 156 l 610 156 l 583 0 l -56 0 l 515 817 m 472 1232 l 610 1232 l 586 1100 l 449 1100 l 472 1232 z "},"Ẓ":{"ha":729,"x_min":-56,"x_max":814,"o":"m 515 817 l 149 817 l 175 972 l 814 972 l 243 156 l 610 156 l 583 0 l -56 0 l 515 817 m 178 -112 l 313 -112 l 288 -244 l 153 -244 l 178 -112 z "},"a":{"ha":793,"x_min":26,"x_max":726,"o":"m 274 -14 q 93 65 160 -14 q 26 269 26 143 q 74 480 26 381 q 209 641 122 579 q 407 703 296 703 q 567 635 511 703 l 589 690 l 726 690 l 646 213 q 640 160 640 183 q 653 123 640 131 q 707 115 667 115 l 669 -14 q 570 -8 604 -14 q 516 17 536 -1 q 481 72 496 35 q 388 9 438 32 q 274 -14 339 -14 m 328 118 q 438 160 393 118 q 503 265 482 201 q 524 399 524 329 q 491 526 524 482 q 394 569 458 569 q 290 532 336 569 q 217 431 243 494 q 190 293 190 368 q 224 165 190 213 q 328 118 258 118 z "},"á":{"ha":793,"x_min":26,"x_max":726,"o":"m 274 -14 q 93 65 160 -14 q 26 269 26 143 q 74 480 26 381 q 209 641 122 579 q 407 703 296 703 q 567 635 511 703 l 589 690 l 726 690 l 646 213 q 640 160 640 183 q 653 123 640 131 q 707 115 667 115 l 669 -14 q 570 -8 604 -14 q 516 17 536 -1 q 481 72 496 35 q 388 9 438 32 q 274 -14 339 -14 m 328 118 q 438 160 393 118 q 503 265 482 201 q 524 399 524 329 q 491 526 524 482 q 394 569 458 569 q 290 532 336 569 q 217 431 243 494 q 190 293 190 368 q 224 165 190 213 q 328 118 258 118 m 376 903 l 649 1051 l 624 883 l 354 794 l 376 903 z "},"ă":{"ha":793,"x_min":26,"x_max":732,"o":"m 274 -14 q 93 65 160 -14 q 26 269 26 143 q 74 480 26 381 q 209 641 122 579 q 407 703 296 703 q 567 635 511 703 l 589 690 l 726 690 l 646 213 q 640 160 640 183 q 653 123 640 131 q 707 115 667 115 l 669 -14 q 570 -8 604 -14 q 516 17 536 -1 q 481 72 496 35 q 388 9 438 32 q 274 -14 339 -14 m 328 118 q 438 160 393 118 q 503 265 482 201 q 524 399 524 329 q 491 526 524 482 q 394 569 458 569 q 290 532 336 569 q 217 431 243 494 q 190 293 190 368 q 224 165 190 213 q 328 118 258 118 m 492 811 q 358 853 407 811 q 310 961 310 896 q 315 999 310 983 l 425 999 q 422 976 422 985 q 442 928 422 944 q 500 911 463 911 q 573 934 543 911 q 610 999 603 957 l 732 999 q 651 862 713 913 q 492 811 589 811 z "},"ắ":{"ha":793,"x_min":26,"x_max":726,"o":"m 274 -14 q 93 65 160 -14 q 26 269 26 143 q 74 480 26 381 q 209 641 122 579 q 407 703 296 703 q 567 635 511 703 l 589 690 l 726 690 l 646 213 q 640 160 640 183 q 653 123 640 131 q 707 115 667 115 l 669 -14 q 570 -8 604 -14 q 516 17 536 -1 q 481 72 496 35 q 388 9 438 32 q 274 -14 339 -14 m 328 118 q 438 160 393 118 q 503 265 482 201 q 524 399 524 329 q 491 526 524 482 q 394 569 458 569 q 290 532 336 569 q 217 431 243 494 q 190 293 190 368 q 224 165 190 213 q 328 118 258 118 m 485 781 q 350 822 397 781 q 303 926 303 863 q 306 958 303 936 l 421 958 q 418 938 418 947 q 440 889 418 906 q 499 872 463 872 q 572 895 542 872 q 608 958 601 918 l 726 958 q 649 829 713 878 q 485 781 585 781 m 440 1114 l 700 1246 l 676 1096 l 426 1015 l 440 1114 z "},"ặ":{"ha":793,"x_min":26,"x_max":732,"o":"m 274 -14 q 93 65 160 -14 q 26 269 26 143 q 74 480 26 381 q 209 641 122 579 q 407 703 296 703 q 567 635 511 703 l 589 690 l 726 690 l 646 213 q 640 160 640 183 q 653 123 640 131 q 707 115 667 115 l 669 -14 q 570 -8 604 -14 q 516 17 536 -1 q 481 72 496 35 q 388 9 438 32 q 274 -14 339 -14 m 328 118 q 438 160 393 118 q 503 265 482 201 q 524 399 524 329 q 491 526 524 482 q 394 569 458 569 q 290 532 336 569 q 217 431 243 494 q 190 293 190 368 q 224 165 190 213 q 328 118 258 118 m 492 811 q 358 853 407 811 q 310 961 310 896 q 315 999 310 983 l 425 999 q 422 976 422 985 q 442 928 422 944 q 500 911 463 911 q 573 934 543 911 q 610 999 603 957 l 732 999 q 651 862 713 913 q 492 811 589 811 m 213 -112 l 347 -112 l 322 -244 l 188 -244 l 213 -112 z "},"ằ":{"ha":793,"x_min":26,"x_max":726,"o":"m 274 -14 q 93 65 160 -14 q 26 269 26 143 q 74 480 26 381 q 209 641 122 579 q 407 703 296 703 q 567 635 511 703 l 589 690 l 726 690 l 646 213 q 640 160 640 183 q 653 123 640 131 q 707 115 667 115 l 669 -14 q 570 -8 604 -14 q 516 17 536 -1 q 481 72 496 35 q 388 9 438 32 q 274 -14 339 -14 m 328 118 q 438 160 393 118 q 503 265 482 201 q 524 399 524 329 q 491 526 524 482 q 394 569 458 569 q 290 532 336 569 q 217 431 243 494 q 190 293 190 368 q 224 165 190 213 q 328 118 258 118 m 475 781 q 340 822 388 781 q 293 926 293 863 q 296 958 293 936 l 411 958 q 408 938 408 947 q 431 889 408 906 q 489 872 453 872 q 562 895 532 872 q 599 958 592 918 l 717 958 q 639 829 703 878 q 475 781 575 781 m 418 1096 l 444 1238 l 678 1106 l 660 1015 l 418 1096 z "},"ẳ":{"ha":793,"x_min":26,"x_max":739,"o":"m 274 -14 q 93 65 160 -14 q 26 269 26 143 q 74 480 26 381 q 209 641 122 579 q 407 703 296 703 q 567 635 511 703 l 589 690 l 726 690 l 646 213 q 640 160 640 183 q 653 123 640 131 q 707 115 667 115 l 669 -14 q 570 -8 604 -14 q 516 17 536 -1 q 481 72 496 35 q 388 9 438 32 q 274 -14 339 -14 m 328 118 q 438 160 393 118 q 503 265 482 201 q 524 399 524 329 q 491 526 524 482 q 394 569 458 569 q 290 532 336 569 q 217 431 243 494 q 190 293 190 368 q 224 165 190 213 q 328 118 258 118 m 497 790 q 363 831 410 790 q 315 936 315 872 q 318 968 315 946 l 433 968 q 431 947 431 957 q 453 899 431 915 q 511 882 475 882 q 584 905 554 882 q 621 968 614 928 l 739 968 q 661 839 725 888 q 497 790 597 790 m 536 1049 q 594 1103 594 1064 q 549 1138 594 1138 q 461 1115 513 1138 l 451 1196 q 565 1218 507 1218 q 651 1194 618 1218 q 683 1125 683 1169 q 539 989 683 1022 l 536 1049 z "},"ẵ":{"ha":793,"x_min":26,"x_max":786,"o":"m 274 -14 q 93 65 160 -14 q 26 269 26 143 q 74 480 26 381 q 209 641 122 579 q 407 703 296 703 q 567 635 511 703 l 589 690 l 726 690 l 646 213 q 640 160 640 183 q 653 123 640 131 q 707 115 667 115 l 669 -14 q 570 -8 604 -14 q 516 17 536 -1 q 481 72 496 35 q 388 9 438 32 q 274 -14 339 -14 m 328 118 q 438 160 393 118 q 503 265 482 201 q 524 399 524 329 q 491 526 524 482 q 394 569 458 569 q 290 532 336 569 q 217 431 243 494 q 190 293 190 368 q 224 165 190 213 q 328 118 258 118 m 492 781 q 357 822 404 781 q 310 926 310 863 q 313 958 310 936 l 428 958 q 425 938 425 947 q 447 889 425 906 q 506 872 469 872 q 578 895 549 872 q 615 958 608 918 l 733 958 q 656 829 719 878 q 492 781 592 781 m 653 1025 q 610 1033 632 1025 q 554 1054 588 1040 q 511 1072 533 1064 q 474 1079 489 1079 q 428 1035 436 1079 l 328 1035 q 374 1141 340 1104 q 463 1178 408 1178 q 558 1150 497 1178 q 601 1133 579 1140 q 640 1125 624 1125 q 686 1171 678 1125 l 786 1171 q 742 1063 776 1100 q 653 1025 707 1025 z "},"â":{"ha":793,"x_min":26,"x_max":726,"o":"m 274 -14 q 93 65 160 -14 q 26 269 26 143 q 74 480 26 381 q 209 641 122 579 q 407 703 296 703 q 567 635 511 703 l 589 690 l 726 690 l 646 213 q 640 160 640 183 q 653 123 640 131 q 707 115 667 115 l 669 -14 q 570 -8 604 -14 q 516 17 536 -1 q 481 72 496 35 q 388 9 438 32 q 274 -14 339 -14 m 328 118 q 438 160 393 118 q 503 265 482 201 q 524 399 524 329 q 491 526 524 482 q 394 569 458 569 q 290 532 336 569 q 217 431 243 494 q 190 293 190 368 q 224 165 190 213 q 328 118 258 118 m 342 894 l 524 1031 l 674 876 l 653 774 l 496 888 l 318 789 l 342 894 z "},"ấ":{"ha":793,"x_min":26,"x_max":846,"o":"m 274 -14 q 93 65 160 -14 q 26 269 26 143 q 74 480 26 381 q 209 641 122 579 q 407 703 296 703 q 567 635 511 703 l 589 690 l 726 690 l 646 213 q 640 160 640 183 q 653 123 640 131 q 707 115 667 115 l 669 -14 q 570 -8 604 -14 q 516 17 536 -1 q 481 72 496 35 q 388 9 438 32 q 274 -14 339 -14 m 328 118 q 438 160 393 118 q 503 265 482 201 q 524 399 524 329 q 491 526 524 482 q 394 569 458 569 q 290 532 336 569 q 217 431 243 494 q 190 293 190 368 q 224 165 190 213 q 328 118 258 118 m 694 1133 l 846 1133 l 690 974 l 588 974 l 694 1133 m 668 863 l 651 765 l 488 864 l 321 782 l 339 879 l 511 990 l 668 863 z "},"ậ":{"ha":793,"x_min":26,"x_max":726,"o":"m 274 -14 q 93 65 160 -14 q 26 269 26 143 q 74 480 26 381 q 209 641 122 579 q 407 703 296 703 q 567 635 511 703 l 589 690 l 726 690 l 646 213 q 640 160 640 183 q 653 123 640 131 q 707 115 667 115 l 669 -14 q 570 -8 604 -14 q 516 17 536 -1 q 481 72 496 35 q 388 9 438 32 q 274 -14 339 -14 m 328 118 q 438 160 393 118 q 503 265 482 201 q 524 399 524 329 q 491 526 524 482 q 394 569 458 569 q 290 532 336 569 q 217 431 243 494 q 190 293 190 368 q 224 165 190 213 q 328 118 258 118 m 342 894 l 524 1031 l 674 876 l 653 774 l 496 888 l 318 789 l 342 894 m 213 -112 l 347 -112 l 322 -244 l 188 -244 l 213 -112 z "},"ầ":{"ha":793,"x_min":26,"x_max":726,"o":"m 274 -14 q 93 65 160 -14 q 26 269 26 143 q 74 480 26 381 q 209 641 122 579 q 407 703 296 703 q 567 635 511 703 l 589 690 l 726 690 l 646 213 q 640 160 640 183 q 653 123 640 131 q 707 115 667 115 l 669 -14 q 570 -8 604 -14 q 516 17 536 -1 q 481 72 496 35 q 388 9 438 32 q 274 -14 339 -14 m 328 118 q 438 160 393 118 q 503 265 482 201 q 524 399 524 329 q 491 526 524 482 q 394 569 458 569 q 290 532 336 569 q 217 431 243 494 q 190 293 190 368 q 224 165 190 213 q 328 118 258 118 m 600 974 l 514 1146 l 657 1146 l 700 974 l 600 974 m 667 863 l 650 765 l 486 864 l 319 782 l 338 879 l 510 990 l 667 863 z "},"ẩ":{"ha":793,"x_min":26,"x_max":760,"o":"m 274 -14 q 93 65 160 -14 q 26 269 26 143 q 74 480 26 381 q 209 641 122 579 q 407 703 296 703 q 567 635 511 703 l 589 690 l 726 690 l 646 213 q 640 160 640 183 q 653 123 640 131 q 707 115 667 115 l 669 -14 q 570 -8 604 -14 q 516 17 536 -1 q 481 72 496 35 q 388 9 438 32 q 274 -14 339 -14 m 328 118 q 438 160 393 118 q 503 265 482 201 q 524 399 524 329 q 491 526 524 482 q 394 569 458 569 q 290 532 336 569 q 217 431 243 494 q 190 293 190 368 q 224 165 190 213 q 328 118 258 118 m 667 853 l 650 756 l 486 854 l 319 772 l 338 869 l 510 981 l 667 853 m 613 989 q 671 1043 671 1004 q 625 1078 671 1078 q 538 1056 589 1078 l 528 1136 q 642 1158 583 1158 q 727 1134 694 1158 q 760 1065 760 1110 q 615 929 760 963 l 613 989 z "},"ẫ":{"ha":793,"x_min":26,"x_max":765,"o":"m 274 -14 q 93 65 160 -14 q 26 269 26 143 q 74 480 26 381 q 209 641 122 579 q 407 703 296 703 q 567 635 511 703 l 589 690 l 726 690 l 646 213 q 640 160 640 183 q 653 123 640 131 q 707 115 667 115 l 669 -14 q 570 -8 604 -14 q 516 17 536 -1 q 481 72 496 35 q 388 9 438 32 q 274 -14 339 -14 m 328 118 q 438 160 393 118 q 503 265 482 201 q 524 399 524 329 q 491 526 524 482 q 394 569 458 569 q 290 532 336 569 q 217 431 243 494 q 190 293 190 368 q 224 165 190 213 q 328 118 258 118 m 667 853 l 650 756 l 486 854 l 319 772 l 338 869 l 510 981 l 667 853 m 632 1018 q 589 1026 611 1018 q 533 1047 567 1033 q 490 1065 513 1057 q 453 1072 468 1072 q 407 1028 415 1072 l 307 1028 q 353 1134 319 1097 q 442 1171 388 1171 q 538 1143 476 1171 q 581 1126 558 1133 q 619 1118 603 1118 q 665 1164 657 1118 l 765 1164 q 721 1056 756 1093 q 632 1018 686 1018 z "},"ȁ":{"ha":793,"x_min":26,"x_max":726,"o":"m 274 -14 q 93 65 160 -14 q 26 269 26 143 q 74 480 26 381 q 209 641 122 579 q 407 703 296 703 q 567 635 511 703 l 589 690 l 726 690 l 646 213 q 640 160 640 183 q 653 123 640 131 q 707 115 667 115 l 669 -14 q 570 -8 604 -14 q 516 17 536 -1 q 481 72 496 35 q 388 9 438 32 q 274 -14 339 -14 m 328 118 q 438 160 393 118 q 503 265 482 201 q 524 399 524 329 q 491 526 524 482 q 394 569 458 569 q 290 532 336 569 q 217 431 243 494 q 190 293 190 368 q 224 165 190 213 q 328 118 258 118 m 332 813 l 226 1054 l 379 1054 l 436 813 l 332 813 m 532 813 l 438 1054 l 590 1054 l 636 813 l 532 813 z "},"ä":{"ha":793,"x_min":26,"x_max":726,"o":"m 274 -14 q 93 65 160 -14 q 26 269 26 143 q 74 480 26 381 q 209 641 122 579 q 407 703 296 703 q 567 635 511 703 l 589 690 l 726 690 l 646 213 q 640 160 640 183 q 653 123 640 131 q 707 115 667 115 l 669 -14 q 570 -8 604 -14 q 516 17 536 -1 q 481 72 496 35 q 388 9 438 32 q 274 -14 339 -14 m 328 118 q 438 160 393 118 q 503 265 482 201 q 524 399 524 329 q 491 526 524 482 q 394 569 458 569 q 290 532 336 569 q 217 431 243 494 q 190 293 190 368 q 224 165 190 213 q 328 118 258 118 m 307 942 l 433 942 l 410 821 l 283 821 l 307 942 m 576 942 l 703 942 l 679 821 l 553 821 l 576 942 z "},"ạ":{"ha":793,"x_min":26,"x_max":726,"o":"m 274 -14 q 93 65 160 -14 q 26 269 26 143 q 74 480 26 381 q 209 641 122 579 q 407 703 296 703 q 567 635 511 703 l 589 690 l 726 690 l 646 213 q 640 160 640 183 q 653 123 640 131 q 707 115 667 115 l 669 -14 q 570 -8 604 -14 q 516 17 536 -1 q 481 72 496 35 q 388 9 438 32 q 274 -14 339 -14 m 328 118 q 438 160 393 118 q 503 265 482 201 q 524 399 524 329 q 491 526 524 482 q 394 569 458 569 q 290 532 336 569 q 217 431 243 494 q 190 293 190 368 q 224 165 190 213 q 328 118 258 118 m 213 -112 l 347 -112 l 322 -244 l 188 -244 l 213 -112 z "},"à":{"ha":793,"x_min":26,"x_max":726,"o":"m 274 -14 q 93 65 160 -14 q 26 269 26 143 q 74 480 26 381 q 209 641 122 579 q 407 703 296 703 q 567 635 511 703 l 589 690 l 726 690 l 646 213 q 640 160 640 183 q 653 123 640 131 q 707 115 667 115 l 669 -14 q 570 -8 604 -14 q 516 17 536 -1 q 481 72 496 35 q 388 9 438 32 q 274 -14 339 -14 m 328 118 q 438 160 393 118 q 503 265 482 201 q 524 399 524 329 q 491 526 524 482 q 394 569 458 569 q 290 532 336 569 q 217 431 243 494 q 190 293 190 368 q 224 165 190 213 q 328 118 258 118 m 364 897 l 392 1050 l 621 896 l 603 794 l 364 897 z "},"ả":{"ha":793,"x_min":26,"x_max":726,"o":"m 274 -14 q 93 65 160 -14 q 26 269 26 143 q 74 480 26 381 q 209 641 122 579 q 407 703 296 703 q 567 635 511 703 l 589 690 l 726 690 l 646 213 q 640 160 640 183 q 653 123 640 131 q 707 115 667 115 l 669 -14 q 570 -8 604 -14 q 516 17 536 -1 q 481 72 496 35 q 388 9 438 32 q 274 -14 339 -14 m 328 118 q 438 160 393 118 q 503 265 482 201 q 524 399 524 329 q 491 526 524 482 q 394 569 458 569 q 290 532 336 569 q 217 431 243 494 q 190 293 190 368 q 224 165 190 213 q 328 118 258 118 m 447 788 q 506 840 488 819 q 525 888 525 861 q 514 915 525 906 q 482 925 503 925 q 390 900 447 925 l 382 978 q 497 1003 442 1003 q 581 978 549 1003 q 614 907 613 953 q 581 817 614 856 q 488 738 549 778 l 447 788 z "},"ȃ":{"ha":793,"x_min":26,"x_max":726,"o":"m 274 -14 q 93 65 160 -14 q 26 269 26 143 q 74 480 26 381 q 209 641 122 579 q 407 703 296 703 q 567 635 511 703 l 589 690 l 726 690 l 646 213 q 640 160 640 183 q 653 123 640 131 q 707 115 667 115 l 669 -14 q 570 -8 604 -14 q 516 17 536 -1 q 481 72 496 35 q 388 9 438 32 q 274 -14 339 -14 m 328 118 q 438 160 393 118 q 503 265 482 201 q 524 399 524 329 q 491 526 524 482 q 394 569 458 569 q 290 532 336 569 q 217 431 243 494 q 190 293 190 368 q 224 165 190 213 q 328 118 258 118 m 511 999 q 644 956 597 999 q 692 844 692 913 q 689 811 692 833 l 575 811 q 576 829 576 819 q 554 881 576 863 q 494 899 532 899 q 422 876 451 899 q 385 811 392 853 l 268 811 q 347 944 281 890 q 511 999 414 999 z "},"ā":{"ha":793,"x_min":26,"x_max":726,"o":"m 274 -14 q 93 65 160 -14 q 26 269 26 143 q 74 480 26 381 q 209 641 122 579 q 407 703 296 703 q 567 635 511 703 l 589 690 l 726 690 l 646 213 q 640 160 640 183 q 653 123 640 131 q 707 115 667 115 l 669 -14 q 570 -8 604 -14 q 516 17 536 -1 q 481 72 496 35 q 388 9 438 32 q 274 -14 339 -14 m 328 118 q 438 160 393 118 q 503 265 482 201 q 524 399 524 329 q 491 526 524 482 q 394 569 458 569 q 290 532 336 569 q 217 431 243 494 q 190 293 190 368 q 224 165 190 213 q 328 118 258 118 m 286 939 l 726 939 l 706 831 l 264 831 l 286 939 z "},"ą":{"ha":793,"x_min":26,"x_max":726,"o":"m 640 160 q 653 123 640 131 q 707 115 667 115 l 669 -14 q 622 -12 636 -14 q 538 -86 569 -50 q 507 -161 507 -122 q 520 -199 507 -186 q 558 -211 533 -211 q 642 -193 601 -211 l 650 -267 q 533 -292 597 -292 q 449 -266 481 -292 q 415 -194 417 -240 q 456 -91 415 -142 q 554 -4 496 -40 q 511 22 528 4 q 481 72 494 39 q 388 9 438 32 q 274 -14 339 -14 q 93 65 160 -14 q 26 269 26 143 q 74 480 26 381 q 209 641 122 579 q 407 703 296 703 q 567 635 511 703 l 589 690 l 726 690 l 646 213 q 640 160 640 183 m 328 118 q 438 160 393 118 q 503 265 482 201 q 524 399 524 329 q 491 526 524 482 q 394 569 458 569 q 290 532 336 569 q 217 431 243 494 q 190 293 190 368 q 224 165 190 213 q 328 118 258 118 z "},"å":{"ha":793,"x_min":26,"x_max":726,"o":"m 274 -14 q 93 65 160 -14 q 26 269 26 143 q 74 480 26 381 q 209 641 122 579 q 407 703 296 703 q 567 635 511 703 l 589 690 l 726 690 l 646 213 q 640 160 640 183 q 653 123 640 131 q 707 115 667 115 l 669 -14 q 570 -8 604 -14 q 516 17 536 -1 q 481 72 496 35 q 388 9 438 32 q 274 -14 339 -14 m 328 118 q 438 160 393 118 q 503 265 482 201 q 524 399 524 329 q 491 526 524 482 q 394 569 458 569 q 290 532 336 569 q 217 431 243 494 q 190 293 190 368 q 224 165 190 213 q 328 118 258 118 m 476 790 q 388 822 419 790 q 357 900 357 853 q 381 982 357 944 q 443 1042 404 1019 q 528 1064 482 1064 q 616 1033 585 1064 q 647 956 647 1003 q 597 838 647 886 q 476 790 547 790 m 489 860 q 542 884 519 860 q 565 942 565 908 q 551 980 565 965 q 515 994 538 994 q 461 969 485 994 q 438 913 438 944 q 451 874 438 889 q 489 860 465 860 z "},"ǻ":{"ha":793,"x_min":26,"x_max":726,"o":"m 274 -14 q 93 65 160 -14 q 26 269 26 143 q 74 480 26 381 q 209 641 122 579 q 407 703 296 703 q 567 635 511 703 l 589 690 l 726 690 l 646 213 q 640 160 640 183 q 653 123 640 131 q 707 115 667 115 l 669 -14 q 570 -8 604 -14 q 516 17 536 -1 q 481 72 496 35 q 388 9 438 32 q 274 -14 339 -14 m 328 118 q 438 160 393 118 q 503 265 482 201 q 524 399 524 329 q 491 526 524 482 q 394 569 458 569 q 290 532 336 569 q 217 431 243 494 q 190 293 190 368 q 224 165 190 213 q 328 118 258 118 m 474 767 q 385 798 417 767 q 353 878 353 829 q 401 991 353 944 q 515 1038 449 1038 q 603 1006 572 1038 q 635 925 635 974 q 588 813 635 858 q 474 767 540 767 m 482 835 q 534 859 513 835 q 556 914 556 883 q 541 953 554 938 q 506 968 528 968 q 455 944 476 968 q 433 889 433 921 q 447 849 433 864 q 482 835 461 835 m 422 1175 l 682 1307 l 658 1157 l 408 1076 l 422 1175 z "},"ã":{"ha":793,"x_min":26,"x_max":740,"o":"m 274 -14 q 93 65 160 -14 q 26 269 26 143 q 74 480 26 381 q 209 641 122 579 q 407 703 296 703 q 567 635 511 703 l 589 690 l 726 690 l 646 213 q 640 160 640 183 q 653 123 640 131 q 707 115 667 115 l 669 -14 q 570 -8 604 -14 q 516 17 536 -1 q 481 72 496 35 q 388 9 438 32 q 274 -14 339 -14 m 328 118 q 438 160 393 118 q 503 265 482 201 q 524 399 524 329 q 491 526 524 482 q 394 569 458 569 q 290 532 336 569 q 217 431 243 494 q 190 293 190 368 q 224 165 190 213 q 328 118 258 118 m 600 804 q 556 812 579 804 q 501 835 533 819 q 415 864 443 864 q 378 851 393 864 q 360 815 364 838 l 253 815 q 304 937 267 894 q 399 979 342 979 q 445 970 422 979 q 497 946 468 961 q 540 926 518 935 q 578 918 561 918 q 631 972 622 918 l 740 972 q 690 845 725 886 q 600 804 656 804 z "},"æ":{"ha":1050,"x_min":-12,"x_max":1017,"o":"m 171 -21 q 35 22 82 -21 q -12 138 -12 64 q 117 360 -12 297 q 410 433 247 424 q 403 511 410 483 q 374 552 396 539 q 310 565 353 565 q 224 553 268 565 q 124 515 181 542 l 132 643 q 376 703 263 703 q 499 673 456 703 q 550 565 543 643 q 649 664 578 625 q 803 703 719 703 q 959 640 901 703 q 1017 468 1017 576 q 1009 399 1017 432 q 983 319 1001 365 l 567 319 l 565 296 q 568 265 565 285 q 617 153 575 192 q 721 115 660 115 q 826 131 767 115 q 929 171 885 147 l 915 40 q 689 -14 810 -14 q 531 22 592 -14 q 451 125 471 57 q 326 17 393 54 q 171 -21 258 -21 m 869 426 q 874 469 874 450 q 849 542 872 515 q 774 569 825 569 q 664 531 714 569 q 590 426 614 493 l 869 426 m 226 104 q 293 124 258 104 q 356 183 328 143 q 393 279 383 222 q 400 326 399 311 q 290 309 346 325 q 197 258 235 293 q 158 171 158 224 q 177 122 158 139 q 226 104 196 104 z "},"ǽ":{"ha":1050,"x_min":-12,"x_max":1017,"o":"m 171 -21 q 35 22 82 -21 q -12 138 -12 64 q 117 360 -12 297 q 410 433 247 424 q 403 511 410 483 q 374 552 396 539 q 310 565 353 565 q 224 553 268 565 q 124 515 181 542 l 132 643 q 376 703 263 703 q 499 673 456 703 q 550 565 543 643 q 649 664 578 625 q 803 703 719 703 q 959 640 901 703 q 1017 468 1017 576 q 1009 399 1017 432 q 983 319 1001 365 l 567 319 l 565 296 q 568 265 565 285 q 617 153 575 192 q 721 115 660 115 q 826 131 767 115 q 929 171 885 147 l 915 40 q 689 -14 810 -14 q 531 22 592 -14 q 451 125 471 57 q 326 17 393 54 q 171 -21 258 -21 m 869 426 q 874 469 874 450 q 849 542 872 515 q 774 569 825 569 q 664 531 714 569 q 590 426 614 493 l 869 426 m 226 104 q 293 124 258 104 q 356 183 328 143 q 393 279 383 222 q 400 326 399 311 q 290 309 346 325 q 197 258 235 293 q 158 171 158 224 q 177 122 158 139 q 226 104 196 104 m 508 903 l 781 1051 l 756 883 l 486 794 l 508 903 z "},"b":{"ha":761,"x_min":11,"x_max":713,"o":"m 369 -14 q 175 85 240 -14 l 153 0 l 11 0 l 194 1042 l 354 1042 l 281 628 q 367 684 318 665 q 465 703 415 703 q 648 620 583 703 q 713 410 713 538 q 669 197 713 293 q 549 43 626 100 q 369 -14 471 -14 m 351 118 q 453 155 408 118 q 524 256 499 192 q 549 394 549 319 q 517 522 549 475 q 421 569 485 569 q 313 532 360 569 q 240 430 265 494 q 215 288 215 365 q 351 118 215 118 z "},"c":{"ha":599,"x_min":28,"x_max":604,"o":"m 297 -14 q 94 67 160 -14 q 28 278 28 147 q 74 488 28 390 q 211 644 121 585 q 426 703 301 703 q 604 654 536 703 l 565 518 q 425 569 496 569 q 300 533 353 569 q 219 434 247 496 q 192 296 192 372 q 229 165 192 211 q 346 118 267 118 q 504 171 422 118 l 496 35 q 297 -14 411 -14 z "},"ć":{"ha":599,"x_min":28,"x_max":628,"o":"m 297 -14 q 94 67 160 -14 q 28 278 28 147 q 74 488 28 390 q 211 644 121 585 q 426 703 301 703 q 604 654 536 703 l 565 518 q 425 569 496 569 q 300 533 353 569 q 219 434 247 496 q 192 296 192 372 q 229 165 192 211 q 346 118 267 118 q 504 171 422 118 l 496 35 q 297 -14 411 -14 m 356 903 l 628 1051 l 603 883 l 333 794 l 356 903 z "},"č":{"ha":599,"x_min":28,"x_max":676,"o":"m 297 -14 q 94 67 160 -14 q 28 278 28 147 q 74 488 28 390 q 211 644 121 585 q 426 703 301 703 q 604 654 536 703 l 565 518 q 425 569 496 569 q 300 533 353 569 q 219 434 247 496 q 192 296 192 372 q 229 165 192 211 q 346 118 267 118 q 504 171 422 118 l 496 35 q 297 -14 411 -14 m 301 931 l 322 1033 l 481 919 l 676 1033 l 656 917 l 453 776 l 301 931 z "},"ç":{"ha":599,"x_min":28,"x_max":604,"o":"m 425 569 q 300 533 353 569 q 219 434 247 496 q 192 296 192 372 q 229 165 192 211 q 346 118 267 118 q 504 171 422 118 l 496 35 q 336 -12 429 -4 l 306 -75 l 315 -75 q 392 -101 364 -75 q 421 -172 421 -126 q 369 -283 421 -240 q 242 -326 318 -326 q 133 -300 178 -326 l 172 -222 q 257 -246 217 -246 q 313 -231 293 -246 q 333 -190 333 -215 q 317 -158 333 -169 q 271 -147 301 -147 q 201 -157 239 -147 l 263 -12 q 85 77 143 -1 q 28 278 28 156 q 74 488 28 390 q 211 644 121 585 q 426 703 301 703 q 604 654 536 703 l 565 518 q 425 569 496 569 z "},"ḉ":{"ha":599,"x_min":28,"x_max":628,"o":"m 603 883 l 333 794 l 356 903 l 628 1051 l 603 883 m 28 278 q 74 488 28 390 q 211 644 121 585 q 426 703 301 703 q 604 654 536 703 l 565 518 q 425 569 496 569 q 300 533 353 569 q 219 434 247 496 q 192 296 192 372 q 229 165 192 211 q 346 118 267 118 q 504 171 422 118 l 496 35 q 336 -12 429 -4 l 306 -75 l 315 -75 q 392 -101 364 -75 q 421 -172 421 -126 q 369 -283 421 -240 q 242 -326 318 -326 q 133 -300 178 -326 l 172 -222 q 257 -246 217 -246 q 313 -231 293 -246 q 333 -190 333 -215 q 317 -158 333 -169 q 271 -147 301 -147 q 201 -157 239 -147 l 263 -12 q 85 77 143 -1 q 28 278 28 156 z "},"ĉ":{"ha":599,"x_min":28,"x_max":653,"o":"m 297 -14 q 94 67 160 -14 q 28 278 28 147 q 74 488 28 390 q 211 644 121 585 q 426 703 301 703 q 604 654 536 703 l 565 518 q 425 569 496 569 q 300 533 353 569 q 219 434 247 496 q 192 296 192 372 q 229 165 192 211 q 346 118 267 118 q 504 171 422 118 l 496 35 q 297 -14 411 -14 m 321 894 l 503 1031 l 653 876 l 632 774 l 475 888 l 297 789 l 321 894 z "},"ċ":{"ha":599,"x_min":28,"x_max":604,"o":"m 297 -14 q 94 67 160 -14 q 28 278 28 147 q 74 488 28 390 q 211 644 121 585 q 426 703 301 703 q 604 654 536 703 l 565 518 q 425 569 496 569 q 300 533 353 569 q 219 434 247 496 q 192 296 192 372 q 229 165 192 211 q 346 118 267 118 q 504 171 422 118 l 496 35 q 297 -14 411 -14 m 421 964 l 556 964 l 531 832 l 396 832 l 421 964 z "},"d":{"ha":763,"x_min":26,"x_max":790,"o":"m 790 1042 l 607 0 l 458 0 l 469 78 q 268 -14 375 -14 q 90 66 154 -14 q 26 269 26 146 q 71 480 26 381 q 196 641 115 579 q 382 703 276 703 q 556 615 499 703 l 632 1042 l 790 1042 m 322 118 q 429 158 383 118 q 499 261 475 197 q 524 399 524 325 q 492 524 524 479 q 394 569 460 569 q 290 531 336 569 q 217 429 243 493 q 190 289 190 365 q 223 164 190 210 q 322 118 256 118 z "},"ð":{"ha":689,"x_min":6,"x_max":639,"o":"m 526 797 q 633 456 633 653 q 589 209 633 317 q 463 42 544 101 q 271 -18 381 -18 q 131 15 192 -18 q 38 108 71 49 q 6 240 6 167 q 46 414 6 333 q 159 543 86 494 q 325 592 232 592 q 428 568 386 592 q 494 507 469 544 q 422 751 494 642 l 254 681 l 213 768 l 356 829 q 250 901 313 869 l 300 974 q 458 874 388 936 l 599 933 l 639 844 l 526 797 m 289 115 q 369 139 331 115 q 433 208 408 163 q 457 317 457 254 q 426 424 457 385 q 338 463 396 463 q 245 434 285 463 q 184 358 206 406 q 163 258 163 311 q 195 155 163 194 q 289 115 228 115 z "},"ď":{"ha":825,"x_min":26,"x_max":974,"o":"m 790 1042 l 607 0 l 458 0 l 469 78 q 268 -14 375 -14 q 90 66 154 -14 q 26 269 26 146 q 71 480 26 381 q 196 641 115 579 q 382 703 276 703 q 556 615 499 703 l 632 1042 l 790 1042 m 322 118 q 429 158 383 118 q 499 261 475 197 q 524 399 524 325 q 492 524 524 479 q 394 569 460 569 q 290 531 336 569 q 217 429 243 493 q 190 289 190 365 q 223 164 190 210 q 322 118 256 118 m 840 1042 l 974 1042 l 890 800 l 797 800 l 840 1042 z "},"đ":{"ha":763,"x_min":26,"x_max":844,"o":"m 826 821 l 751 821 l 607 0 l 458 0 l 469 78 q 268 -14 375 -14 q 90 66 154 -14 q 26 269 26 146 q 71 480 26 381 q 196 641 115 579 q 382 703 276 703 q 556 615 499 703 l 593 821 l 431 821 l 449 928 l 611 928 l 632 1042 l 790 1042 l 771 928 l 844 928 l 826 821 m 322 118 q 429 158 383 118 q 499 261 475 197 q 524 399 524 325 q 492 524 524 479 q 394 569 460 569 q 290 531 336 569 q 217 429 243 493 q 190 289 190 365 q 223 164 190 210 q 322 118 256 118 z "},"ḍ":{"ha":763,"x_min":26,"x_max":790,"o":"m 790 1042 l 607 0 l 458 0 l 469 78 q 268 -14 375 -14 q 90 66 154 -14 q 26 269 26 146 q 71 480 26 381 q 196 641 115 579 q 382 703 276 703 q 556 615 499 703 l 632 1042 l 790 1042 m 322 118 q 429 158 383 118 q 499 261 475 197 q 524 399 524 325 q 492 524 524 479 q 394 569 460 569 q 290 531 336 569 q 217 429 243 493 q 190 289 190 365 q 223 164 190 210 q 322 118 256 118 m 296 -112 l 431 -112 l 406 -244 l 271 -244 l 296 -112 z "},"ḏ":{"ha":763,"x_min":26,"x_max":790,"o":"m 790 1042 l 607 0 l 458 0 l 469 78 q 268 -14 375 -14 q 90 66 154 -14 q 26 269 26 146 q 71 480 26 381 q 196 641 115 579 q 382 703 276 703 q 556 615 499 703 l 632 1042 l 790 1042 m 322 118 q 429 158 383 118 q 499 261 475 197 q 524 399 524 325 q 492 524 524 479 q 394 569 460 569 q 290 531 336 569 q 217 429 243 493 q 190 289 190 365 q 223 164 190 210 q 322 118 256 118 m 140 -126 l 581 -126 l 560 -235 l 118 -235 l 140 -126 z "},"ǆ":{"ha":1390,"x_min":26,"x_max":1408,"o":"m 790 1042 l 607 0 l 458 0 l 469 78 q 268 -14 375 -14 q 90 66 154 -14 q 26 269 26 146 q 71 480 26 381 q 196 641 115 579 q 382 703 276 703 q 556 615 499 703 l 632 1042 l 790 1042 m 322 118 q 429 158 383 118 q 499 261 475 197 q 524 399 524 325 q 492 524 524 479 q 394 569 460 569 q 290 531 336 569 q 217 429 243 493 q 190 289 190 365 q 223 164 190 210 q 322 118 256 118 m 1121 554 l 833 554 l 858 690 l 1408 690 l 1011 136 l 1297 136 l 1272 0 l 724 0 l 1121 554 m 999 931 l 1019 1033 l 1178 919 l 1374 1033 l 1353 917 l 1150 776 l 999 931 z "},"e":{"ha":665,"x_min":26,"x_max":631,"o":"m 325 -14 q 102 69 178 -14 q 26 283 26 151 q 75 488 26 392 q 211 644 124 585 q 411 703 299 703 q 574 651 517 703 q 631 510 631 599 q 542 340 631 400 q 304 281 454 281 q 193 290 235 281 q 242 158 196 199 q 358 118 289 118 q 567 171 464 118 l 551 39 q 449 1 507 15 q 325 -14 390 -14 m 281 385 q 446 418 396 385 q 496 499 496 451 q 467 554 496 539 q 403 569 439 569 q 281 517 332 569 q 207 393 229 465 q 281 385 235 385 z "},"é":{"ha":665,"x_min":26,"x_max":631,"o":"m 325 -14 q 102 69 178 -14 q 26 283 26 151 q 75 488 26 392 q 211 644 124 585 q 411 703 299 703 q 574 651 517 703 q 631 510 631 599 q 542 340 631 400 q 304 281 454 281 q 193 290 235 281 q 242 158 196 199 q 358 118 289 118 q 567 171 464 118 l 551 39 q 449 1 507 15 q 325 -14 390 -14 m 281 385 q 446 418 396 385 q 496 499 496 451 q 467 554 496 539 q 403 569 439 569 q 281 517 332 569 q 207 393 229 465 q 281 385 235 385 m 343 903 l 615 1051 l 590 883 l 321 794 l 343 903 z "},"ĕ":{"ha":665,"x_min":26,"x_max":699,"o":"m 325 -14 q 102 69 178 -14 q 26 283 26 151 q 75 488 26 392 q 211 644 124 585 q 411 703 299 703 q 574 651 517 703 q 631 510 631 599 q 542 340 631 400 q 304 281 454 281 q 193 290 235 281 q 242 158 196 199 q 358 118 289 118 q 567 171 464 118 l 551 39 q 449 1 507 15 q 325 -14 390 -14 m 281 385 q 446 418 396 385 q 496 499 496 451 q 467 554 496 539 q 403 569 439 569 q 281 517 332 569 q 207 393 229 465 q 281 385 235 385 m 458 811 q 325 853 374 811 q 276 961 276 896 q 282 999 276 983 l 392 999 q 389 976 389 985 q 409 928 389 944 q 467 911 429 911 q 540 934 510 911 q 576 999 569 957 l 699 999 q 617 862 679 913 q 458 811 556 811 z "},"ě":{"ha":665,"x_min":26,"x_max":664,"o":"m 325 -14 q 102 69 178 -14 q 26 283 26 151 q 75 488 26 392 q 211 644 124 585 q 411 703 299 703 q 574 651 517 703 q 631 510 631 599 q 542 340 631 400 q 304 281 454 281 q 193 290 235 281 q 242 158 196 199 q 358 118 289 118 q 567 171 464 118 l 551 39 q 449 1 507 15 q 325 -14 390 -14 m 281 385 q 446 418 396 385 q 496 499 496 451 q 467 554 496 539 q 403 569 439 569 q 281 517 332 569 q 207 393 229 465 q 281 385 235 385 m 289 931 l 310 1033 l 468 919 l 664 1033 l 643 917 l 440 776 l 289 931 z "},"ḝ":{"ha":665,"x_min":26,"x_max":699,"o":"m 699 999 q 617 862 679 913 q 458 811 556 811 q 325 853 374 811 q 276 961 276 896 q 282 999 276 983 l 392 999 q 389 976 389 985 q 409 928 389 944 q 467 911 429 911 q 540 934 510 911 q 576 999 569 957 l 699 999 m 411 703 q 574 651 517 703 q 631 510 631 599 q 542 340 631 400 q 304 281 454 281 q 193 290 235 281 q 242 158 196 199 q 358 118 289 118 q 567 171 464 118 l 551 39 q 376 -11 476 -3 l 346 -75 l 356 -75 q 433 -101 404 -75 q 461 -172 461 -126 q 410 -283 461 -240 q 282 -326 358 -326 q 174 -300 218 -326 l 213 -222 q 297 -246 257 -246 q 353 -231 333 -246 q 374 -190 374 -215 q 358 -158 374 -169 q 311 -147 342 -147 q 242 -157 279 -147 l 303 -14 q 96 74 165 -7 q 26 283 26 156 q 75 488 26 392 q 211 644 124 585 q 411 703 299 703 m 281 385 q 446 418 396 385 q 496 499 496 451 q 467 554 496 539 q 403 569 439 569 q 281 517 332 569 q 207 393 229 465 q 281 385 235 385 z "},"ê":{"ha":665,"x_min":26,"x_max":640,"o":"m 325 -14 q 102 69 178 -14 q 26 283 26 151 q 75 488 26 392 q 211 644 124 585 q 411 703 299 703 q 574 651 517 703 q 631 510 631 599 q 542 340 631 400 q 304 281 454 281 q 193 290 235 281 q 242 158 196 199 q 358 118 289 118 q 567 171 464 118 l 551 39 q 449 1 507 15 q 325 -14 390 -14 m 281 385 q 446 418 396 385 q 496 499 496 451 q 467 554 496 539 q 403 569 439 569 q 281 517 332 569 q 207 393 229 465 q 281 385 235 385 m 308 894 l 490 1031 l 640 876 l 619 774 l 463 888 l 285 789 l 308 894 z "},"ế":{"ha":665,"x_min":26,"x_max":813,"o":"m 325 -14 q 102 69 178 -14 q 26 283 26 151 q 75 488 26 392 q 211 644 124 585 q 411 703 299 703 q 574 651 517 703 q 631 510 631 599 q 542 340 631 400 q 304 281 454 281 q 193 290 235 281 q 242 158 196 199 q 358 118 289 118 q 567 171 464 118 l 551 39 q 449 1 507 15 q 325 -14 390 -14 m 281 385 q 446 418 396 385 q 496 499 496 451 q 467 554 496 539 q 403 569 439 569 q 281 517 332 569 q 207 393 229 465 q 281 385 235 385 m 661 1133 l 813 1133 l 657 974 l 554 974 l 661 1133 m 635 863 l 618 765 l 454 864 l 288 782 l 306 879 l 478 990 l 635 863 z "},"ệ":{"ha":665,"x_min":26,"x_max":640,"o":"m 325 -14 q 102 69 178 -14 q 26 283 26 151 q 75 488 26 392 q 211 644 124 585 q 411 703 299 703 q 574 651 517 703 q 631 510 631 599 q 542 340 631 400 q 304 281 454 281 q 193 290 235 281 q 242 158 196 199 q 358 118 289 118 q 567 171 464 118 l 551 39 q 449 1 507 15 q 325 -14 390 -14 m 281 385 q 446 418 396 385 q 496 499 496 451 q 467 554 496 539 q 403 569 439 569 q 281 517 332 569 q 207 393 229 465 q 281 385 235 385 m 308 894 l 490 1031 l 640 876 l 619 774 l 463 888 l 285 789 l 308 894 m 256 -112 l 390 -112 l 365 -244 l 231 -244 l 256 -112 z "},"ề":{"ha":665,"x_min":26,"x_max":667,"o":"m 325 -14 q 102 69 178 -14 q 26 283 26 151 q 75 488 26 392 q 211 644 124 585 q 411 703 299 703 q 574 651 517 703 q 631 510 631 599 q 542 340 631 400 q 304 281 454 281 q 193 290 235 281 q 242 158 196 199 q 358 118 289 118 q 567 171 464 118 l 551 39 q 449 1 507 15 q 325 -14 390 -14 m 281 385 q 446 418 396 385 q 496 499 496 451 q 467 554 496 539 q 403 569 439 569 q 281 517 332 569 q 207 393 229 465 q 281 385 235 385 m 567 974 l 481 1146 l 624 1146 l 667 974 l 567 974 m 633 863 l 617 765 l 453 864 l 286 782 l 304 879 l 476 990 l 633 863 z "},"ể":{"ha":665,"x_min":26,"x_max":726,"o":"m 325 -14 q 102 69 178 -14 q 26 283 26 151 q 75 488 26 392 q 211 644 124 585 q 411 703 299 703 q 574 651 517 703 q 631 510 631 599 q 542 340 631 400 q 304 281 454 281 q 193 290 235 281 q 242 158 196 199 q 358 118 289 118 q 567 171 464 118 l 551 39 q 449 1 507 15 q 325 -14 390 -14 m 281 385 q 446 418 396 385 q 496 499 496 451 q 467 554 496 539 q 403 569 439 569 q 281 517 332 569 q 207 393 229 465 q 281 385 235 385 m 633 853 l 617 756 l 453 854 l 286 772 l 304 869 l 476 981 l 633 853 m 579 989 q 638 1043 638 1004 q 592 1078 638 1078 q 504 1056 556 1078 l 494 1136 q 608 1158 550 1158 q 694 1134 661 1158 q 726 1065 726 1110 q 582 929 726 963 l 579 989 z "},"ễ":{"ha":665,"x_min":26,"x_max":732,"o":"m 325 -14 q 102 69 178 -14 q 26 283 26 151 q 75 488 26 392 q 211 644 124 585 q 411 703 299 703 q 574 651 517 703 q 631 510 631 599 q 542 340 631 400 q 304 281 454 281 q 193 290 235 281 q 242 158 196 199 q 358 118 289 118 q 567 171 464 118 l 551 39 q 449 1 507 15 q 325 -14 390 -14 m 281 385 q 446 418 396 385 q 496 499 496 451 q 467 554 496 539 q 403 569 439 569 q 281 517 332 569 q 207 393 229 465 q 281 385 235 385 m 633 853 l 617 756 l 453 854 l 286 772 l 304 869 l 476 981 l 633 853 m 599 1018 q 556 1026 578 1018 q 500 1047 533 1033 q 457 1065 479 1057 q 419 1072 435 1072 q 374 1028 382 1072 l 274 1028 q 320 1134 286 1097 q 408 1171 354 1171 q 504 1143 443 1171 q 547 1126 525 1133 q 586 1118 569 1118 q 632 1164 624 1118 l 732 1164 q 688 1056 722 1093 q 599 1018 653 1018 z "},"ȅ":{"ha":665,"x_min":26,"x_max":631,"o":"m 325 -14 q 102 69 178 -14 q 26 283 26 151 q 75 488 26 392 q 211 644 124 585 q 411 703 299 703 q 574 651 517 703 q 631 510 631 599 q 542 340 631 400 q 304 281 454 281 q 193 290 235 281 q 242 158 196 199 q 358 118 289 118 q 567 171 464 118 l 551 39 q 449 1 507 15 q 325 -14 390 -14 m 281 385 q 446 418 396 385 q 496 499 496 451 q 467 554 496 539 q 403 569 439 569 q 281 517 332 569 q 207 393 229 465 q 281 385 235 385 m 299 813 l 193 1054 l 346 1054 l 403 813 l 299 813 m 499 813 l 404 1054 l 557 1054 l 603 813 l 499 813 z "},"ë":{"ha":665,"x_min":26,"x_max":669,"o":"m 325 -14 q 102 69 178 -14 q 26 283 26 151 q 75 488 26 392 q 211 644 124 585 q 411 703 299 703 q 574 651 517 703 q 631 510 631 599 q 542 340 631 400 q 304 281 454 281 q 193 290 235 281 q 242 158 196 199 q 358 118 289 118 q 567 171 464 118 l 551 39 q 449 1 507 15 q 325 -14 390 -14 m 281 385 q 446 418 396 385 q 496 499 496 451 q 467 554 496 539 q 403 569 439 569 q 281 517 332 569 q 207 393 229 465 q 281 385 235 385 m 274 942 l 400 942 l 376 821 l 250 821 l 274 942 m 543 942 l 669 942 l 646 821 l 519 821 l 543 942 z "},"ė":{"ha":665,"x_min":26,"x_max":631,"o":"m 325 -14 q 102 69 178 -14 q 26 283 26 151 q 75 488 26 392 q 211 644 124 585 q 411 703 299 703 q 574 651 517 703 q 631 510 631 599 q 542 340 631 400 q 304 281 454 281 q 193 290 235 281 q 242 158 196 199 q 358 118 289 118 q 567 171 464 118 l 551 39 q 449 1 507 15 q 325 -14 390 -14 m 281 385 q 446 418 396 385 q 496 499 496 451 q 467 554 496 539 q 403 569 439 569 q 281 517 332 569 q 207 393 229 465 q 281 385 235 385 m 408 964 l 543 964 l 518 832 l 383 832 l 408 964 z "},"ẹ":{"ha":665,"x_min":26,"x_max":631,"o":"m 325 -14 q 102 69 178 -14 q 26 283 26 151 q 75 488 26 392 q 211 644 124 585 q 411 703 299 703 q 574 651 517 703 q 631 510 631 599 q 542 340 631 400 q 304 281 454 281 q 193 290 235 281 q 242 158 196 199 q 358 118 289 118 q 567 171 464 118 l 551 39 q 449 1 507 15 q 325 -14 390 -14 m 281 385 q 446 418 396 385 q 496 499 496 451 q 467 554 496 539 q 403 569 439 569 q 281 517 332 569 q 207 393 229 465 q 281 385 235 385 m 256 -112 l 390 -112 l 365 -244 l 231 -244 l 256 -112 z "},"è":{"ha":665,"x_min":26,"x_max":631,"o":"m 325 -14 q 102 69 178 -14 q 26 283 26 151 q 75 488 26 392 q 211 644 124 585 q 411 703 299 703 q 574 651 517 703 q 631 510 631 599 q 542 340 631 400 q 304 281 454 281 q 193 290 235 281 q 242 158 196 199 q 358 118 289 118 q 567 171 464 118 l 551 39 q 449 1 507 15 q 325 -14 390 -14 m 281 385 q 446 418 396 385 q 496 499 496 451 q 467 554 496 539 q 403 569 439 569 q 281 517 332 569 q 207 393 229 465 q 281 385 235 385 m 331 897 l 358 1050 l 588 896 l 569 794 l 331 897 z "},"ẻ":{"ha":665,"x_min":26,"x_max":631,"o":"m 325 -14 q 102 69 178 -14 q 26 283 26 151 q 75 488 26 392 q 211 644 124 585 q 411 703 299 703 q 574 651 517 703 q 631 510 631 599 q 542 340 631 400 q 304 281 454 281 q 193 290 235 281 q 242 158 196 199 q 358 118 289 118 q 567 171 464 118 l 551 39 q 449 1 507 15 q 325 -14 390 -14 m 281 385 q 446 418 396 385 q 496 499 496 451 q 467 554 496 539 q 403 569 439 569 q 281 517 332 569 q 207 393 229 465 q 281 385 235 385 m 414 788 q 473 840 454 819 q 492 888 492 861 q 481 915 492 906 q 449 925 469 925 q 357 900 414 925 l 349 978 q 464 1003 408 1003 q 547 978 515 1003 q 581 907 579 953 q 548 817 581 856 q 454 738 515 778 l 414 788 z "},"ȇ":{"ha":665,"x_min":26,"x_max":658,"o":"m 325 -14 q 102 69 178 -14 q 26 283 26 151 q 75 488 26 392 q 211 644 124 585 q 411 703 299 703 q 574 651 517 703 q 631 510 631 599 q 542 340 631 400 q 304 281 454 281 q 193 290 235 281 q 242 158 196 199 q 358 118 289 118 q 567 171 464 118 l 551 39 q 449 1 507 15 q 325 -14 390 -14 m 281 385 q 446 418 396 385 q 496 499 496 451 q 467 554 496 539 q 403 569 439 569 q 281 517 332 569 q 207 393 229 465 q 281 385 235 385 m 478 999 q 611 956 564 999 q 658 844 658 913 q 656 811 658 833 l 542 811 q 543 829 543 819 q 521 881 543 863 q 461 899 499 899 q 388 876 418 899 q 351 811 358 853 l 235 811 q 314 944 247 890 q 478 999 381 999 z "},"ē":{"ha":665,"x_min":26,"x_max":693,"o":"m 325 -14 q 102 69 178 -14 q 26 283 26 151 q 75 488 26 392 q 211 644 124 585 q 411 703 299 703 q 574 651 517 703 q 631 510 631 599 q 542 340 631 400 q 304 281 454 281 q 193 290 235 281 q 242 158 196 199 q 358 118 289 118 q 567 171 464 118 l 551 39 q 449 1 507 15 q 325 -14 390 -14 m 281 385 q 446 418 396 385 q 496 499 496 451 q 467 554 496 539 q 403 569 439 569 q 281 517 332 569 q 207 393 229 465 q 281 385 235 385 m 253 939 l 693 939 l 672 831 l 231 831 l 253 939 z "},"ḗ":{"ha":665,"x_min":26,"x_max":686,"o":"m 325 -14 q 102 69 178 -14 q 26 283 26 151 q 75 488 26 392 q 211 644 124 585 q 411 703 299 703 q 574 651 517 703 q 631 510 631 599 q 542 340 631 400 q 304 281 454 281 q 193 290 235 281 q 242 158 196 199 q 358 118 289 118 q 567 171 464 118 l 551 39 q 449 1 507 15 q 325 -14 390 -14 m 281 385 q 446 418 396 385 q 496 499 496 451 q 467 554 496 539 q 403 569 439 569 q 281 517 332 569 q 207 393 229 465 q 281 385 235 385 m 243 922 l 686 922 l 667 819 l 225 819 l 243 922 m 383 1103 l 643 1235 l 619 1085 l 369 1004 l 383 1103 z "},"ḕ":{"ha":665,"x_min":26,"x_max":686,"o":"m 325 -14 q 102 69 178 -14 q 26 283 26 151 q 75 488 26 392 q 211 644 124 585 q 411 703 299 703 q 574 651 517 703 q 631 510 631 599 q 542 340 631 400 q 304 281 454 281 q 193 290 235 281 q 242 158 196 199 q 358 118 289 118 q 567 171 464 118 l 551 39 q 449 1 507 15 q 325 -14 390 -14 m 281 385 q 446 418 396 385 q 496 499 496 451 q 467 554 496 539 q 403 569 439 569 q 281 517 332 569 q 207 393 229 465 q 281 385 235 385 m 243 922 l 686 922 l 667 819 l 225 819 l 243 922 m 371 1085 l 397 1226 l 631 1094 l 613 1004 l 371 1085 z "},"ę":{"ha":665,"x_min":26,"x_max":631,"o":"m 631 510 q 542 340 631 400 q 304 281 454 281 q 193 290 235 281 q 242 158 196 199 q 358 118 289 118 q 567 171 464 118 l 551 39 l 544 35 q 451 -42 488 -4 q 415 -122 415 -81 q 428 -160 415 -147 q 467 -172 442 -172 q 550 -154 510 -172 l 558 -228 q 442 -253 506 -253 q 357 -227 389 -253 q 324 -156 325 -201 q 404 -8 324 -82 q 325 -14 371 -14 q 102 69 178 -14 q 26 283 26 151 q 75 488 26 392 q 211 644 124 585 q 411 703 299 703 q 574 651 517 703 q 631 510 631 599 m 207 393 q 281 385 235 385 q 446 418 396 385 q 496 499 496 451 q 467 554 496 539 q 403 569 439 569 q 281 517 332 569 q 207 393 229 465 z "},"ẽ":{"ha":665,"x_min":26,"x_max":707,"o":"m 325 -14 q 102 69 178 -14 q 26 283 26 151 q 75 488 26 392 q 211 644 124 585 q 411 703 299 703 q 574 651 517 703 q 631 510 631 599 q 542 340 631 400 q 304 281 454 281 q 193 290 235 281 q 242 158 196 199 q 358 118 289 118 q 567 171 464 118 l 551 39 q 449 1 507 15 q 325 -14 390 -14 m 281 385 q 446 418 396 385 q 496 499 496 451 q 467 554 496 539 q 403 569 439 569 q 281 517 332 569 q 207 393 229 465 q 281 385 235 385 m 567 804 q 523 812 546 804 q 468 835 500 819 q 382 864 410 864 q 345 851 360 864 q 326 815 331 838 l 219 815 q 271 937 233 894 q 365 979 308 979 q 412 970 389 979 q 464 946 435 961 q 506 926 485 935 q 544 918 528 918 q 597 972 589 918 l 707 972 q 657 845 692 886 q 567 804 622 804 z "},"f":{"ha":451,"x_min":49,"x_max":533,"o":"m 147 563 l 53 563 l 90 690 l 169 690 l 199 857 q 263 991 213 940 q 417 1042 313 1042 q 533 1031 449 1042 l 494 899 q 435 907 460 907 q 388 897 403 907 q 363 861 372 886 q 344 782 354 836 l 328 690 l 475 690 l 453 563 l 306 563 l 207 0 l 49 0 l 147 563 z "},"g":{"ha":665,"x_min":-62,"x_max":696,"o":"m 214 -347 q 57 -322 119 -347 q -34 -255 -6 -296 q -62 -167 -62 -214 q -27 -67 -62 -114 q 76 13 8 -21 q 44 49 56 28 q 32 94 32 71 q 117 206 32 163 q 67 285 83 238 q 50 385 50 332 q 89 541 50 468 q 200 658 128 614 q 365 703 272 703 q 510 658 457 703 q 574 682 535 672 q 657 692 614 692 l 696 692 l 668 590 l 611 590 q 571 586 594 590 q 589 476 589 540 q 550 322 589 394 q 439 203 511 249 q 274 158 367 158 q 201 167 238 158 q 182 135 182 153 q 216 102 182 113 q 338 76 250 92 q 502 24 436 61 q 568 -103 568 -12 q 525 -226 568 -169 q 401 -315 482 -282 q 214 -347 321 -347 m 293 275 q 404 331 363 275 q 446 464 446 386 q 344 583 446 583 q 234 529 275 583 q 193 396 193 475 q 218 306 193 338 q 293 275 243 275 m 226 -232 q 365 -202 308 -232 q 422 -128 422 -172 q 375 -67 422 -86 q 246 -37 328 -49 q 185 -26 189 -28 q 106 -72 138 -42 q 74 -140 74 -101 q 114 -207 74 -182 q 226 -232 154 -232 z "},"ğ":{"ha":665,"x_min":-62,"x_max":696,"o":"m 214 -347 q 57 -322 119 -347 q -34 -255 -6 -296 q -62 -167 -62 -214 q -27 -67 -62 -114 q 76 13 8 -21 q 44 49 56 28 q 32 94 32 71 q 117 206 32 163 q 67 285 83 238 q 50 385 50 332 q 89 541 50 468 q 200 658 128 614 q 365 703 272 703 q 510 658 457 703 q 574 682 535 672 q 657 692 614 692 l 696 692 l 668 590 l 611 590 q 571 586 594 590 q 589 476 589 540 q 550 322 589 394 q 439 203 511 249 q 274 158 367 158 q 201 167 238 158 q 182 135 182 153 q 216 102 182 113 q 338 76 250 92 q 502 24 436 61 q 568 -103 568 -12 q 525 -226 568 -169 q 401 -315 482 -282 q 214 -347 321 -347 m 293 275 q 404 331 363 275 q 446 464 446 386 q 344 583 446 583 q 234 529 275 583 q 193 396 193 475 q 218 306 193 338 q 293 275 243 275 m 226 -232 q 365 -202 308 -232 q 422 -128 422 -172 q 375 -67 422 -86 q 246 -37 328 -49 q 185 -26 189 -28 q 106 -72 138 -42 q 74 -140 74 -101 q 114 -207 74 -182 q 226 -232 154 -232 m 390 811 q 257 853 306 811 q 208 961 208 896 q 214 999 208 983 l 324 999 q 321 976 321 985 q 341 928 321 944 q 399 911 361 911 q 472 934 442 911 q 508 999 501 957 l 631 999 q 549 862 611 913 q 390 811 488 811 z "},"ǧ":{"ha":665,"x_min":-62,"x_max":696,"o":"m 214 -347 q 57 -322 119 -347 q -34 -255 -6 -296 q -62 -167 -62 -214 q -27 -67 -62 -114 q 76 13 8 -21 q 44 49 56 28 q 32 94 32 71 q 117 206 32 163 q 67 285 83 238 q 50 385 50 332 q 89 541 50 468 q 200 658 128 614 q 365 703 272 703 q 510 658 457 703 q 574 682 535 672 q 657 692 614 692 l 696 692 l 668 590 l 611 590 q 571 586 594 590 q 589 476 589 540 q 550 322 589 394 q 439 203 511 249 q 274 158 367 158 q 201 167 238 158 q 182 135 182 153 q 216 102 182 113 q 338 76 250 92 q 502 24 436 61 q 568 -103 568 -12 q 525 -226 568 -169 q 401 -315 482 -282 q 214 -347 321 -347 m 293 275 q 404 331 363 275 q 446 464 446 386 q 344 583 446 583 q 234 529 275 583 q 193 396 193 475 q 218 306 193 338 q 293 275 243 275 m 226 -232 q 365 -202 308 -232 q 422 -128 422 -172 q 375 -67 422 -86 q 246 -37 328 -49 q 185 -26 189 -28 q 106 -72 138 -42 q 74 -140 74 -101 q 114 -207 74 -182 q 226 -232 154 -232 m 221 931 l 242 1033 l 400 919 l 596 1033 l 575 917 l 372 776 l 221 931 z "},"ĝ":{"ha":665,"x_min":-62,"x_max":696,"o":"m 214 -347 q 57 -322 119 -347 q -34 -255 -6 -296 q -62 -167 -62 -214 q -27 -67 -62 -114 q 76 13 8 -21 q 44 49 56 28 q 32 94 32 71 q 117 206 32 163 q 67 285 83 238 q 50 385 50 332 q 89 541 50 468 q 200 658 128 614 q 365 703 272 703 q 510 658 457 703 q 574 682 535 672 q 657 692 614 692 l 696 692 l 668 590 l 611 590 q 571 586 594 590 q 589 476 589 540 q 550 322 589 394 q 439 203 511 249 q 274 158 367 158 q 201 167 238 158 q 182 135 182 153 q 216 102 182 113 q 338 76 250 92 q 502 24 436 61 q 568 -103 568 -12 q 525 -226 568 -169 q 401 -315 482 -282 q 214 -347 321 -347 m 293 275 q 404 331 363 275 q 446 464 446 386 q 344 583 446 583 q 234 529 275 583 q 193 396 193 475 q 218 306 193 338 q 293 275 243 275 m 226 -232 q 365 -202 308 -232 q 422 -128 422 -172 q 375 -67 422 -86 q 246 -37 328 -49 q 185 -26 189 -28 q 106 -72 138 -42 q 74 -140 74 -101 q 114 -207 74 -182 q 226 -232 154 -232 m 240 894 l 422 1031 l 572 876 l 551 774 l 394 888 l 217 789 l 240 894 z "},"ģ":{"ha":665,"x_min":-62,"x_max":696,"o":"m 214 -347 q 57 -322 119 -347 q -34 -255 -6 -296 q -62 -167 -62 -214 q -27 -67 -62 -114 q 76 13 8 -21 q 44 49 56 28 q 32 94 32 71 q 117 206 32 163 q 67 285 83 238 q 50 385 50 332 q 89 541 50 468 q 200 658 128 614 q 365 703 272 703 q 510 658 457 703 q 574 682 535 672 q 657 692 614 692 l 696 692 l 668 590 l 611 590 q 571 586 594 590 q 589 476 589 540 q 550 322 589 394 q 439 203 511 249 q 274 158 367 158 q 201 167 238 158 q 182 135 182 153 q 216 102 182 113 q 338 76 250 92 q 502 24 436 61 q 568 -103 568 -12 q 525 -226 568 -169 q 401 -315 482 -282 q 214 -347 321 -347 m 293 275 q 404 331 363 275 q 446 464 446 386 q 344 583 446 583 q 234 529 275 583 q 193 396 193 475 q 218 306 193 338 q 293 275 243 275 m 226 -232 q 365 -202 308 -232 q 422 -128 422 -172 q 375 -67 422 -86 q 246 -37 328 -49 q 185 -26 189 -28 q 106 -72 138 -42 q 74 -140 74 -101 q 114 -207 74 -182 q 226 -232 154 -232 z "},"ġ":{"ha":665,"x_min":-62,"x_max":696,"o":"m 214 -347 q 57 -322 119 -347 q -34 -255 -6 -296 q -62 -167 -62 -214 q -27 -67 -62 -114 q 76 13 8 -21 q 44 49 56 28 q 32 94 32 71 q 117 206 32 163 q 67 285 83 238 q 50 385 50 332 q 89 541 50 468 q 200 658 128 614 q 365 703 272 703 q 510 658 457 703 q 574 682 535 672 q 657 692 614 692 l 696 692 l 668 590 l 611 590 q 571 586 594 590 q 589 476 589 540 q 550 322 589 394 q 439 203 511 249 q 274 158 367 158 q 201 167 238 158 q 182 135 182 153 q 216 102 182 113 q 338 76 250 92 q 502 24 436 61 q 568 -103 568 -12 q 525 -226 568 -169 q 401 -315 482 -282 q 214 -347 321 -347 m 293 275 q 404 331 363 275 q 446 464 446 386 q 344 583 446 583 q 234 529 275 583 q 193 396 193 475 q 218 306 193 338 q 293 275 243 275 m 226 -232 q 365 -202 308 -232 q 422 -128 422 -172 q 375 -67 422 -86 q 246 -37 328 -49 q 185 -26 189 -28 q 106 -72 138 -42 q 74 -140 74 -101 q 114 -207 74 -182 q 226 -232 154 -232 m 340 964 l 475 964 l 450 832 l 315 832 l 340 964 z "},"ḡ":{"ha":665,"x_min":-62,"x_max":696,"o":"m 214 -347 q 57 -322 119 -347 q -34 -255 -6 -296 q -62 -167 -62 -214 q -27 -67 -62 -114 q 76 13 8 -21 q 44 49 56 28 q 32 94 32 71 q 117 206 32 163 q 67 285 83 238 q 50 385 50 332 q 89 541 50 468 q 200 658 128 614 q 365 703 272 703 q 510 658 457 703 q 574 682 535 672 q 657 692 614 692 l 696 692 l 668 590 l 611 590 q 571 586 594 590 q 589 476 589 540 q 550 322 589 394 q 439 203 511 249 q 274 158 367 158 q 201 167 238 158 q 182 135 182 153 q 216 102 182 113 q 338 76 250 92 q 502 24 436 61 q 568 -103 568 -12 q 525 -226 568 -169 q 401 -315 482 -282 q 214 -347 321 -347 m 293 275 q 404 331 363 275 q 446 464 446 386 q 344 583 446 583 q 234 529 275 583 q 193 396 193 475 q 218 306 193 338 q 293 275 243 275 m 226 -232 q 365 -202 308 -232 q 422 -128 422 -172 q 375 -67 422 -86 q 246 -37 328 -49 q 185 -26 189 -28 q 106 -72 138 -42 q 74 -140 74 -101 q 114 -207 74 -182 q 226 -232 154 -232 m 185 939 l 625 939 l 604 831 l 163 831 l 185 939 z "},"h":{"ha":733,"x_min":11,"x_max":661,"o":"m 194 1042 l 353 1042 l 281 625 q 372 685 326 667 q 471 703 417 703 q 612 644 563 703 q 661 494 661 586 q 649 361 661 438 l 586 0 l 428 0 l 486 342 q 501 465 501 424 q 476 542 501 514 q 404 569 451 569 q 328 552 363 569 q 258 501 294 535 l 169 0 l 11 0 l 194 1042 z "},"ħ":{"ha":733,"x_min":-179,"x_max":661,"o":"m 194 1042 l 353 1042 l 281 625 q 372 685 326 667 q 471 703 417 703 q 612 644 563 703 q 661 494 661 586 q 649 361 661 438 l 586 0 l 428 0 l 486 342 q 501 465 501 424 q 476 542 501 514 q 404 569 451 569 q 328 552 363 569 q 258 501 294 535 l 169 0 l 11 0 l 194 1042 m -161 925 l 235 925 l 217 818 l -179 818 l -161 925 z "},"ḫ":{"ha":733,"x_min":11,"x_max":661,"o":"m 194 1042 l 353 1042 l 281 625 q 372 685 326 667 q 471 703 417 703 q 612 644 563 703 q 661 494 661 586 q 649 361 661 438 l 586 0 l 428 0 l 486 342 q 501 465 501 424 q 476 542 501 514 q 404 569 451 569 q 328 552 363 569 q 258 501 294 535 l 169 0 l 11 0 l 194 1042 m 256 -314 q 122 -272 171 -314 q 74 -164 74 -229 q 79 -126 74 -142 l 189 -126 q 186 -149 186 -140 q 206 -197 186 -181 q 264 -214 226 -214 q 337 -191 307 -214 q 374 -126 367 -168 l 496 -126 q 415 -263 476 -212 q 256 -314 353 -314 z "},"ĥ":{"ha":733,"x_min":11,"x_max":661,"o":"m 194 1042 l 353 1042 l 281 625 q 372 685 326 667 q 471 703 417 703 q 612 644 563 703 q 661 494 661 586 q 649 361 661 438 l 586 0 l 428 0 l 486 342 q 501 465 501 424 q 476 542 501 514 q 404 569 451 569 q 328 552 363 569 q 258 501 294 535 l 169 0 l 11 0 l 194 1042 m 483 1204 l 467 1107 l 303 1206 l 136 1124 l 154 1221 l 326 1332 l 483 1204 z "},"ḥ":{"ha":733,"x_min":11,"x_max":661,"o":"m 194 1042 l 353 1042 l 281 625 q 372 685 326 667 q 471 703 417 703 q 612 644 563 703 q 661 494 661 586 q 649 361 661 438 l 586 0 l 428 0 l 486 342 q 501 465 501 424 q 476 542 501 514 q 404 569 451 569 q 328 552 363 569 q 258 501 294 535 l 169 0 l 11 0 l 194 1042 m 213 -112 l 347 -112 l 322 -244 l 188 -244 l 213 -112 z "},"i":{"ha":325,"x_min":11,"x_max":342,"o":"m 182 972 l 342 972 l 313 810 l 154 810 l 182 972 m 132 690 l 290 690 l 169 0 l 11 0 l 132 690 z "},"ı":{"ha":325,"x_min":11,"x_max":290,"o":"m 132 690 l 290 690 l 169 0 l 11 0 l 132 690 z "},"í":{"ha":325,"x_min":11,"x_max":403,"o":"m 132 690 l 290 690 l 169 0 l 11 0 l 132 690 m 131 903 l 403 1051 l 378 883 l 108 794 l 131 903 z "},"ĭ":{"ha":325,"x_min":11,"x_max":486,"o":"m 132 690 l 290 690 l 169 0 l 11 0 l 132 690 m 246 811 q 113 853 161 811 q 64 961 64 896 q 69 999 64 983 l 179 999 q 176 976 176 985 q 197 928 176 944 q 254 911 217 911 q 327 934 297 911 q 364 999 357 957 l 486 999 q 405 862 467 913 q 246 811 343 811 z "},"î":{"ha":325,"x_min":11,"x_max":428,"o":"m 132 690 l 290 690 l 169 0 l 11 0 l 132 690 m 96 894 l 278 1031 l 428 876 l 407 774 l 250 888 l 72 789 l 96 894 z "},"ȉ":{"ha":325,"x_min":-19,"x_max":390,"o":"m 132 690 l 290 690 l 169 0 l 11 0 l 132 690 m 86 813 l -19 1054 l 133 1054 l 190 813 l 86 813 m 286 813 l 192 1054 l 344 1054 l 390 813 l 286 813 z "},"ï":{"ha":325,"x_min":11,"x_max":457,"o":"m 132 690 l 290 690 l 169 0 l 11 0 l 132 690 m 61 942 l 188 942 l 164 821 l 38 821 l 61 942 m 331 942 l 457 942 l 433 821 l 307 821 l 331 942 z "},"ḯ":{"ha":325,"x_min":11,"x_max":449,"o":"m 132 690 l 290 690 l 169 0 l 11 0 l 132 690 m 56 925 l 182 925 l 161 810 l 35 810 l 56 925 m 322 925 l 449 925 l 428 810 l 301 810 l 322 925 m 160 1086 l 419 1218 l 396 1068 l 146 988 l 160 1086 z "},"ị":{"ha":325,"x_min":-21,"x_max":342,"o":"m 182 972 l 342 972 l 313 810 l 154 810 l 182 972 m 132 690 l 290 690 l 169 0 l 11 0 l 132 690 m 4 -112 l 139 -112 l 114 -244 l -21 -244 l 4 -112 z "},"ì":{"ha":325,"x_min":11,"x_max":375,"o":"m 132 690 l 290 690 l 169 0 l 11 0 l 132 690 m 118 897 l 146 1050 l 375 896 l 357 794 l 118 897 z "},"ỉ":{"ha":325,"x_min":11,"x_max":368,"o":"m 132 690 l 290 690 l 169 0 l 11 0 l 132 690 m 201 788 q 260 840 242 819 q 279 888 279 861 q 268 915 279 906 q 236 925 257 925 q 144 900 201 925 l 136 978 q 251 1003 196 1003 q 335 978 303 1003 q 368 907 367 953 q 335 817 368 856 q 242 738 303 778 l 201 788 z "},"ȋ":{"ha":325,"x_min":11,"x_max":446,"o":"m 132 690 l 290 690 l 169 0 l 11 0 l 132 690 m 265 999 q 399 956 351 999 q 446 844 446 913 q 443 811 446 833 l 329 811 q 331 829 331 819 q 308 881 331 863 q 249 899 286 899 q 176 876 206 899 q 139 811 146 853 l 22 811 q 101 944 35 890 q 265 999 168 999 z "},"ĳ":{"ha":650,"x_min":11,"x_max":667,"o":"m 182 972 l 342 972 l 313 810 l 154 810 l 182 972 m 132 690 l 290 690 l 169 0 l 11 0 l 132 690 m 508 972 l 667 972 l 638 810 l 479 810 l 508 972 m 219 -208 q 275 -199 258 -207 q 301 -168 292 -192 q 321 -89 311 -144 l 458 690 l 617 690 l 468 -153 q 402 -284 453 -236 q 269 -333 351 -332 l 211 -336 l 219 -208 z "},"ī":{"ha":325,"x_min":11,"x_max":481,"o":"m 132 690 l 290 690 l 169 0 l 11 0 l 132 690 m 40 939 l 481 939 l 460 831 l 18 831 l 40 939 z "},"į":{"ha":325,"x_min":-58,"x_max":331,"o":"m 132 690 l 290 690 l 169 0 l 11 0 l 132 690 m 196 964 l 331 964 l 306 832 l 171 832 l 196 964 m 168 0 q 70 -80 107 -40 q 33 -161 33 -119 q 47 -199 33 -186 q 85 -211 60 -211 q 168 -193 128 -211 l 176 -267 q 60 -292 124 -292 q -25 -266 7 -292 q -58 -194 -57 -240 q -16 -87 -58 -139 q 86 0 26 -36 l 168 0 z "},"ĩ":{"ha":325,"x_min":7,"x_max":494,"o":"m 132 690 l 290 690 l 169 0 l 11 0 l 132 690 m 354 804 q 310 812 333 804 q 256 835 288 819 q 169 864 197 864 q 133 851 147 864 q 114 815 118 838 l 7 815 q 58 937 21 894 q 153 979 96 979 q 199 970 176 979 q 251 946 222 961 q 294 926 272 935 q 332 918 315 918 q 385 972 376 918 l 494 972 q 444 845 479 886 q 354 804 410 804 z "},"j":{"ha":325,"x_min":-114,"x_max":342,"o":"m 183 972 l 342 972 l 313 810 l 154 810 l 183 972 m -106 -208 q -50 -199 -67 -207 q -24 -168 -33 -192 q -4 -89 -14 -144 l 133 690 l 292 690 l 143 -153 q 77 -284 128 -236 q -56 -333 26 -332 l -114 -336 l -106 -208 z "},"ȷ":{"ha":325,"x_min":-114,"x_max":292,"o":"m -106 -208 q -50 -200 -67 -207 q -24 -169 -33 -193 q -4 -89 -14 -146 l 133 690 l 292 690 l 143 -153 q 77 -284 128 -236 q -56 -333 26 -332 l -114 -336 l -106 -208 z "},"ĵ":{"ha":325,"x_min":-114,"x_max":429,"o":"m -106 -208 q -50 -200 -67 -207 q -24 -169 -33 -193 q -4 -89 -14 -146 l 133 690 l 292 690 l 143 -153 q 77 -284 128 -236 q -56 -333 26 -332 l -114 -336 l -106 -208 m 97 894 l 279 1031 l 429 876 l 408 774 l 251 888 l 74 789 l 97 894 z "},"k":{"ha":644,"x_min":11,"x_max":682,"o":"m 194 1042 l 354 1042 l 239 399 l 501 690 l 682 690 l 382 363 l 560 0 l 381 0 l 225 319 l 169 0 l 11 0 l 194 1042 z "},"ķ":{"ha":644,"x_min":11,"x_max":682,"o":"m 194 1042 l 354 1042 l 239 399 l 501 690 l 682 690 l 382 363 l 560 0 l 381 0 l 225 319 l 169 0 l 11 0 l 194 1042 m 147 -378 l 214 -257 l 161 -257 l 185 -126 l 325 -126 l 303 -257 l 204 -378 l 147 -378 z "},"ĸ":{"ha":682,"x_min":11,"x_max":724,"o":"m 132 690 l 290 690 l 242 410 l 529 690 l 724 690 l 372 361 l 601 0 l 422 0 l 228 331 l 169 0 l 11 0 l 132 690 z "},"l":{"ha":354,"x_min":33,"x_max":350,"o":"m 174 -14 q 68 22 103 -14 q 33 118 33 58 q 51 242 33 142 l 192 1042 l 350 1042 l 208 229 q 199 163 199 176 q 214 124 199 132 q 268 115 229 115 l 231 -14 l 174 -14 z "},"ĺ":{"ha":354,"x_min":33,"x_max":443,"o":"m 174 -14 q 68 22 103 -14 q 33 118 33 58 q 51 242 33 142 l 192 1042 l 350 1042 l 208 229 q 199 163 199 176 q 214 124 199 132 q 268 115 229 115 l 231 -14 l 174 -14 m 183 1225 l 443 1357 l 419 1207 l 169 1126 l 183 1225 z "},"ľ":{"ha":390,"x_min":33,"x_max":536,"o":"m 174 -14 q 68 22 103 -14 q 33 118 33 58 q 51 242 33 142 l 192 1042 l 350 1042 l 208 229 q 199 163 199 176 q 214 124 199 132 q 268 115 229 115 l 231 -14 l 174 -14 m 403 1042 l 536 1042 l 453 800 l 360 800 l 403 1042 z "},"ļ":{"ha":354,"x_min":31,"x_max":350,"o":"m 174 -14 q 68 22 103 -14 q 33 118 33 58 q 51 242 33 142 l 192 1042 l 350 1042 l 208 229 q 199 163 199 176 q 214 124 199 132 q 268 115 229 115 l 231 -14 l 174 -14 m 31 -378 l 97 -257 l 44 -257 l 68 -126 l 208 -126 l 186 -257 l 88 -378 l 31 -378 z "},"ŀ":{"ha":435,"x_min":33,"x_max":486,"o":"m 174 -14 q 68 22 103 -14 q 33 118 33 58 q 51 242 33 142 l 192 1042 l 350 1042 l 208 229 q 199 163 199 176 q 214 124 199 132 q 268 115 229 115 l 231 -14 l 174 -14 m 353 653 l 486 653 l 458 500 l 325 500 l 353 653 z "},"ḷ":{"ha":354,"x_min":33,"x_max":350,"o":"m 174 -14 q 68 22 103 -14 q 33 118 33 58 q 51 242 33 142 l 192 1042 l 350 1042 l 208 229 q 199 163 199 176 q 214 124 199 132 q 268 115 229 115 l 231 -14 l 174 -14 m 72 -112 l 207 -112 l 182 -244 l 47 -244 l 72 -112 z "},"ǉ":{"ha":679,"x_min":33,"x_max":696,"o":"m 174 -14 q 68 22 103 -14 q 33 118 33 58 q 51 242 33 142 l 192 1042 l 350 1042 l 208 229 q 199 163 199 176 q 214 124 199 132 q 268 115 229 115 l 231 -14 l 174 -14 m 538 972 l 696 972 l 667 810 l 508 810 l 538 972 m 249 -208 q 304 -199 288 -207 q 331 -168 321 -192 q 350 -89 340 -144 l 488 690 l 646 690 l 497 -153 q 431 -284 482 -236 q 299 -333 381 -332 l 240 -336 l 249 -208 z "},"ḻ":{"ha":354,"x_min":-106,"x_max":357,"o":"m 174 -14 q 68 22 103 -14 q 33 118 33 58 q 51 242 33 142 l 192 1042 l 350 1042 l 208 229 q 199 163 199 176 q 214 124 199 132 q 268 115 229 115 l 231 -14 l 174 -14 m -83 -126 l 357 -126 l 336 -235 l -106 -235 l -83 -126 z "},"ł":{"ha":354,"x_min":0,"x_max":408,"o":"m 208 229 q 199 163 199 176 q 214 124 199 132 q 268 115 229 115 l 231 -14 l 174 -14 q 68 22 103 -14 q 33 118 33 58 q 51 242 33 142 l 99 508 l 0 471 l 19 585 l 118 622 l 192 1042 l 350 1042 l 288 685 l 408 731 l 388 617 l 268 572 l 208 229 z "},"m":{"ha":1146,"x_min":11,"x_max":1076,"o":"m 132 690 l 261 690 l 261 631 q 346 683 299 664 q 444 703 393 703 q 553 675 504 703 q 625 588 601 647 q 717 669 654 635 q 864 703 781 703 q 1023 644 969 703 q 1076 482 1076 586 q 1064 377 1076 456 q 999 0 1051 299 l 840 0 q 899 340 883 242 q 915 457 915 438 q 891 544 915 519 q 818 569 867 569 q 706 526 743 569 q 657 418 668 482 l 585 0 l 426 0 q 485 336 468 232 q 503 464 503 440 q 396 569 503 569 q 258 503 315 569 l 169 0 l 11 0 l 132 690 z "},"ṃ":{"ha":1146,"x_min":11,"x_max":1076,"o":"m 132 690 l 261 690 l 261 631 q 346 683 299 664 q 444 703 393 703 q 553 675 504 703 q 625 588 601 647 q 717 669 654 635 q 864 703 781 703 q 1023 644 969 703 q 1076 482 1076 586 q 1064 377 1076 456 q 999 0 1051 299 l 840 0 q 899 340 883 242 q 915 457 915 438 q 891 544 915 519 q 818 569 867 569 q 706 526 743 569 q 657 418 668 482 l 585 0 l 426 0 q 485 336 468 232 q 503 464 503 440 q 396 569 503 569 q 258 503 315 569 l 169 0 l 11 0 l 132 690 m 418 -112 l 553 -112 l 528 -244 l 393 -244 l 418 -112 z "},"n":{"ha":736,"x_min":11,"x_max":664,"o":"m 132 690 l 271 690 l 274 639 q 360 687 317 671 q 457 703 404 703 q 613 641 561 703 q 664 472 664 579 q 651 363 664 447 q 589 0 638 279 l 429 0 q 487 337 471 239 q 503 451 503 435 q 478 541 503 513 q 399 569 453 569 q 258 501 315 569 l 169 0 l 11 0 l 132 690 z "},"ń":{"ha":736,"x_min":11,"x_max":664,"o":"m 132 690 l 271 690 l 274 639 q 360 687 317 671 q 457 703 404 703 q 613 641 561 703 q 664 472 664 579 q 651 363 664 447 q 589 0 638 279 l 429 0 q 487 337 471 239 q 503 451 503 435 q 478 541 503 513 q 399 569 453 569 q 258 501 315 569 l 169 0 l 11 0 l 132 690 m 347 893 l 619 1042 l 594 874 l 325 785 l 347 893 z "},"ŉ":{"ha":833,"x_min":11,"x_max":664,"o":"m 46 721 l 113 842 l 60 842 l 83 972 l 224 972 l 201 842 l 103 721 l 46 721 m 132 690 l 271 690 l 274 639 q 360 687 317 671 q 457 703 404 703 q 613 641 561 703 q 664 472 664 579 q 651 363 664 447 q 589 0 638 279 l 429 0 q 487 337 471 239 q 503 451 503 435 q 478 541 503 513 q 399 569 453 569 q 258 501 315 569 l 169 0 l 11 0 l 132 690 z "},"ň":{"ha":736,"x_min":11,"x_max":668,"o":"m 132 690 l 271 690 l 274 639 q 360 687 317 671 q 457 703 404 703 q 613 641 561 703 q 664 472 664 579 q 651 363 664 447 q 589 0 638 279 l 429 0 q 487 337 471 239 q 503 451 503 435 q 478 541 503 513 q 399 569 453 569 q 258 501 315 569 l 169 0 l 11 0 l 132 690 m 293 921 l 314 1024 l 472 910 l 668 1024 l 647 907 l 444 767 l 293 921 z "},"ņ":{"ha":736,"x_min":11,"x_max":664,"o":"m 132 690 l 271 690 l 274 639 q 360 687 317 671 q 457 703 404 703 q 613 641 561 703 q 664 472 664 579 q 651 363 664 447 q 589 0 638 279 l 429 0 q 487 337 471 239 q 503 451 503 435 q 478 541 503 513 q 399 569 453 569 q 258 501 315 569 l 169 0 l 11 0 l 132 690 m 172 -378 l 239 -257 l 186 -257 l 210 -126 l 350 -126 l 328 -257 l 229 -378 l 172 -378 z "},"ṅ":{"ha":736,"x_min":11,"x_max":664,"o":"m 132 690 l 271 690 l 274 639 q 360 687 317 671 q 457 703 404 703 q 613 641 561 703 q 664 472 664 579 q 651 363 664 447 q 589 0 638 279 l 429 0 q 487 337 471 239 q 503 451 503 435 q 478 541 503 513 q 399 569 453 569 q 258 501 315 569 l 169 0 l 11 0 l 132 690 m 413 954 l 547 954 l 522 822 l 388 822 l 413 954 z "},"ṇ":{"ha":736,"x_min":11,"x_max":664,"o":"m 132 690 l 271 690 l 274 639 q 360 687 317 671 q 457 703 404 703 q 613 641 561 703 q 664 472 664 579 q 651 363 664 447 q 589 0 638 279 l 429 0 q 487 337 471 239 q 503 451 503 435 q 478 541 503 513 q 399 569 453 569 q 258 501 315 569 l 169 0 l 11 0 l 132 690 m 214 -112 l 349 -112 l 324 -244 l 189 -244 l 214 -112 z "},"ŋ":{"ha":799,"x_min":42,"x_max":697,"o":"m 624 19 q 525 -179 601 -110 q 329 -249 449 -249 q 190 -225 257 -249 l 232 -96 q 328 -117 285 -117 q 419 -85 383 -117 q 464 13 454 -53 l 528 374 q 536 449 536 418 q 512 540 536 511 q 433 569 488 569 q 289 507 351 569 l 200 0 l 42 0 l 163 690 l 306 690 l 301 635 q 500 703 397 703 q 648 642 599 703 q 697 478 697 582 q 688 383 697 442 l 624 19 z "},"ǌ":{"ha":1061,"x_min":11,"x_max":1078,"o":"m 132 690 l 271 690 l 274 639 q 360 687 317 671 q 457 703 404 703 q 613 641 561 703 q 664 472 664 579 q 651 363 664 447 q 589 0 638 279 l 429 0 q 487 337 471 239 q 503 451 503 435 q 478 541 503 513 q 399 569 453 569 q 258 501 315 569 l 169 0 l 11 0 l 132 690 m 919 972 l 1078 972 l 1049 810 l 890 810 l 919 972 m 631 -208 q 686 -199 669 -207 q 713 -168 703 -192 q 732 -89 722 -144 l 869 690 l 1028 690 l 879 -153 q 813 -284 864 -236 q 681 -333 763 -332 l 622 -336 l 631 -208 z "},"ṉ":{"ha":736,"x_min":11,"x_max":664,"o":"m 132 690 l 271 690 l 274 639 q 360 687 317 671 q 457 703 404 703 q 613 641 561 703 q 664 472 664 579 q 651 363 664 447 q 589 0 638 279 l 429 0 q 487 337 471 239 q 503 451 503 435 q 478 541 503 513 q 399 569 453 569 q 258 501 315 569 l 169 0 l 11 0 l 132 690 m 58 -126 l 499 -126 l 478 -235 l 36 -235 l 58 -126 z "},"ñ":{"ha":736,"x_min":11,"x_max":711,"o":"m 132 690 l 271 690 l 274 639 q 360 687 317 671 q 457 703 404 703 q 613 641 561 703 q 664 472 664 579 q 651 363 664 447 q 589 0 638 279 l 429 0 q 487 337 471 239 q 503 451 503 435 q 478 541 503 513 q 399 569 453 569 q 258 501 315 569 l 169 0 l 11 0 l 132 690 m 571 794 q 527 802 550 794 q 472 825 504 810 q 386 854 414 854 q 349 841 364 854 q 331 806 335 828 l 224 806 q 275 927 238 885 q 369 969 313 969 q 416 960 393 969 q 468 936 439 951 q 510 917 489 925 q 549 908 532 908 q 601 963 593 908 l 711 963 q 661 835 696 876 q 571 794 626 794 z "},"o":{"ha":747,"x_min":25,"x_max":700,"o":"m 304 -14 q 97 69 169 -14 q 25 282 25 153 q 76 489 25 392 q 218 644 128 586 q 421 703 308 703 q 628 619 556 703 q 700 407 700 536 q 649 200 700 297 q 507 44 597 103 q 304 -14 417 -14 m 325 118 q 435 156 386 118 q 510 256 483 193 q 536 394 536 319 q 501 524 536 479 q 399 569 467 569 q 290 533 338 569 q 215 433 242 496 q 189 294 189 369 q 224 164 189 210 q 325 118 258 118 z "},"ó":{"ha":747,"x_min":25,"x_max":700,"o":"m 304 -14 q 97 69 169 -14 q 25 282 25 153 q 76 489 25 392 q 218 644 128 586 q 421 703 308 703 q 628 619 556 703 q 700 407 700 536 q 649 200 700 297 q 507 44 597 103 q 304 -14 417 -14 m 325 118 q 435 156 386 118 q 510 256 483 193 q 536 394 536 319 q 501 524 536 479 q 399 569 467 569 q 290 533 338 569 q 215 433 242 496 q 189 294 189 369 q 224 164 189 210 q 325 118 258 118 m 350 903 l 622 1051 l 597 883 l 328 794 l 350 903 z "},"ŏ":{"ha":747,"x_min":25,"x_max":706,"o":"m 304 -14 q 97 69 169 -14 q 25 282 25 153 q 76 489 25 392 q 218 644 128 586 q 421 703 308 703 q 628 619 556 703 q 700 407 700 536 q 649 200 700 297 q 507 44 597 103 q 304 -14 417 -14 m 325 118 q 435 156 386 118 q 510 256 483 193 q 536 394 536 319 q 501 524 536 479 q 399 569 467 569 q 290 533 338 569 q 215 433 242 496 q 189 294 189 369 q 224 164 189 210 q 325 118 258 118 m 465 811 q 332 853 381 811 q 283 961 283 896 q 289 999 283 983 l 399 999 q 396 976 396 985 q 416 928 396 944 q 474 911 436 911 q 547 934 517 911 q 583 999 576 957 l 706 999 q 624 862 686 913 q 465 811 563 811 z "},"ô":{"ha":747,"x_min":25,"x_max":700,"o":"m 304 -14 q 97 69 169 -14 q 25 282 25 153 q 76 489 25 392 q 218 644 128 586 q 421 703 308 703 q 628 619 556 703 q 700 407 700 536 q 649 200 700 297 q 507 44 597 103 q 304 -14 417 -14 m 325 118 q 435 156 386 118 q 510 256 483 193 q 536 394 536 319 q 501 524 536 479 q 399 569 467 569 q 290 533 338 569 q 215 433 242 496 q 189 294 189 369 q 224 164 189 210 q 325 118 258 118 m 315 894 l 497 1031 l 647 876 l 626 774 l 469 888 l 292 789 l 315 894 z "},"ố":{"ha":747,"x_min":25,"x_max":819,"o":"m 304 -14 q 97 69 169 -14 q 25 282 25 153 q 76 489 25 392 q 218 644 128 586 q 421 703 308 703 q 628 619 556 703 q 700 407 700 536 q 649 200 700 297 q 507 44 597 103 q 304 -14 417 -14 m 325 118 q 435 156 386 118 q 510 256 483 193 q 536 394 536 319 q 501 524 536 479 q 399 569 467 569 q 290 533 338 569 q 215 433 242 496 q 189 294 189 369 q 224 164 189 210 q 325 118 258 118 m 668 1133 l 819 1133 l 664 974 l 561 974 l 668 1133 m 642 863 l 625 765 l 461 864 l 294 782 l 313 879 l 485 990 l 642 863 z "},"ộ":{"ha":747,"x_min":25,"x_max":700,"o":"m 304 -14 q 97 69 169 -14 q 25 282 25 153 q 76 489 25 392 q 218 644 128 586 q 421 703 308 703 q 628 619 556 703 q 700 407 700 536 q 649 200 700 297 q 507 44 597 103 q 304 -14 417 -14 m 325 118 q 435 156 386 118 q 510 256 483 193 q 536 394 536 319 q 501 524 536 479 q 399 569 467 569 q 290 533 338 569 q 215 433 242 496 q 189 294 189 369 q 224 164 189 210 q 325 118 258 118 m 315 894 l 497 1031 l 647 876 l 626 774 l 469 888 l 292 789 l 315 894 m 210 -112 l 344 -112 l 319 -244 l 185 -244 l 210 -112 z "},"ồ":{"ha":747,"x_min":25,"x_max":700,"o":"m 304 -14 q 97 69 169 -14 q 25 282 25 153 q 76 489 25 392 q 218 644 128 586 q 421 703 308 703 q 628 619 556 703 q 700 407 700 536 q 649 200 700 297 q 507 44 597 103 q 304 -14 417 -14 m 325 118 q 435 156 386 118 q 510 256 483 193 q 536 394 536 319 q 501 524 536 479 q 399 569 467 569 q 290 533 338 569 q 215 433 242 496 q 189 294 189 369 q 224 164 189 210 q 325 118 258 118 m 574 974 l 488 1146 l 631 1146 l 674 974 l 574 974 m 640 863 l 624 765 l 460 864 l 293 782 l 311 879 l 483 990 l 640 863 z "},"ổ":{"ha":747,"x_min":25,"x_max":733,"o":"m 304 -14 q 97 69 169 -14 q 25 282 25 153 q 76 489 25 392 q 218 644 128 586 q 421 703 308 703 q 628 619 556 703 q 700 407 700 536 q 649 200 700 297 q 507 44 597 103 q 304 -14 417 -14 m 325 118 q 435 156 386 118 q 510 256 483 193 q 536 394 536 319 q 501 524 536 479 q 399 569 467 569 q 290 533 338 569 q 215 433 242 496 q 189 294 189 369 q 224 164 189 210 q 325 118 258 118 m 640 853 l 624 756 l 460 854 l 293 772 l 311 869 l 483 981 l 640 853 m 586 989 q 644 1043 644 1004 q 599 1078 644 1078 q 511 1056 563 1078 l 501 1136 q 615 1158 557 1158 q 701 1134 668 1158 q 733 1065 733 1110 q 589 929 733 963 l 586 989 z "},"ỗ":{"ha":747,"x_min":25,"x_max":739,"o":"m 304 -14 q 97 69 169 -14 q 25 282 25 153 q 76 489 25 392 q 218 644 128 586 q 421 703 308 703 q 628 619 556 703 q 700 407 700 536 q 649 200 700 297 q 507 44 597 103 q 304 -14 417 -14 m 325 118 q 435 156 386 118 q 510 256 483 193 q 536 394 536 319 q 501 524 536 479 q 399 569 467 569 q 290 533 338 569 q 215 433 242 496 q 189 294 189 369 q 224 164 189 210 q 325 118 258 118 m 640 853 l 624 756 l 460 854 l 293 772 l 311 869 l 483 981 l 640 853 m 606 1018 q 563 1026 585 1018 q 507 1047 540 1033 q 464 1065 486 1057 q 426 1072 442 1072 q 381 1028 389 1072 l 281 1028 q 327 1134 293 1097 q 415 1171 361 1171 q 511 1143 450 1171 q 554 1126 532 1133 q 593 1118 576 1118 q 639 1164 631 1118 l 739 1164 q 694 1056 729 1093 q 606 1018 660 1018 z "},"ȍ":{"ha":747,"x_min":25,"x_max":700,"o":"m 304 -14 q 97 69 169 -14 q 25 282 25 153 q 76 489 25 392 q 218 644 128 586 q 421 703 308 703 q 628 619 556 703 q 700 407 700 536 q 649 200 700 297 q 507 44 597 103 q 304 -14 417 -14 m 325 118 q 435 156 386 118 q 510 256 483 193 q 536 394 536 319 q 501 524 536 479 q 399 569 467 569 q 290 533 338 569 q 215 433 242 496 q 189 294 189 369 q 224 164 189 210 q 325 118 258 118 m 306 813 l 200 1054 l 353 1054 l 410 813 l 306 813 m 506 813 l 411 1054 l 564 1054 l 610 813 l 506 813 z "},"ö":{"ha":747,"x_min":25,"x_max":700,"o":"m 304 -14 q 97 69 169 -14 q 25 282 25 153 q 76 489 25 392 q 218 644 128 586 q 421 703 308 703 q 628 619 556 703 q 700 407 700 536 q 649 200 700 297 q 507 44 597 103 q 304 -14 417 -14 m 325 118 q 435 156 386 118 q 510 256 483 193 q 536 394 536 319 q 501 524 536 479 q 399 569 467 569 q 290 533 338 569 q 215 433 242 496 q 189 294 189 369 q 224 164 189 210 q 325 118 258 118 m 281 942 l 407 942 l 383 821 l 257 821 l 281 942 m 550 942 l 676 942 l 653 821 l 526 821 l 550 942 z "},"ȫ":{"ha":747,"x_min":25,"x_max":729,"o":"m 304 -14 q 97 69 169 -14 q 25 282 25 153 q 76 489 25 392 q 218 644 128 586 q 421 703 308 703 q 628 619 556 703 q 700 407 700 536 q 649 200 700 297 q 507 44 597 103 q 304 -14 417 -14 m 325 118 q 435 156 386 118 q 510 256 483 193 q 536 394 536 319 q 501 524 536 479 q 399 569 467 569 q 290 533 338 569 q 215 433 242 496 q 189 294 189 369 q 224 164 189 210 q 325 118 258 118 m 275 925 l 401 925 l 381 810 l 254 810 l 275 925 m 542 925 l 668 925 l 647 810 l 521 810 l 542 925 m 286 1135 l 729 1135 l 710 1032 l 268 1032 l 286 1135 z "},"ȱ":{"ha":747,"x_min":25,"x_max":736,"o":"m 304 -14 q 97 69 169 -14 q 25 282 25 153 q 76 489 25 392 q 218 644 128 586 q 421 703 308 703 q 628 619 556 703 q 700 407 700 536 q 649 200 700 297 q 507 44 597 103 q 304 -14 417 -14 m 325 118 q 435 156 386 118 q 510 256 483 193 q 536 394 536 319 q 501 524 536 479 q 399 569 467 569 q 290 533 338 569 q 215 433 242 496 q 189 294 189 369 q 224 164 189 210 q 325 118 258 118 m 408 950 l 546 950 l 522 818 l 385 818 l 408 950 m 293 1167 l 736 1167 l 717 1064 l 275 1064 l 293 1167 z "},"ọ":{"ha":747,"x_min":25,"x_max":700,"o":"m 304 -14 q 97 69 169 -14 q 25 282 25 153 q 76 489 25 392 q 218 644 128 586 q 421 703 308 703 q 628 619 556 703 q 700 407 700 536 q 649 200 700 297 q 507 44 597 103 q 304 -14 417 -14 m 325 118 q 435 156 386 118 q 510 256 483 193 q 536 394 536 319 q 501 524 536 479 q 399 569 467 569 q 290 533 338 569 q 215 433 242 496 q 189 294 189 369 q 224 164 189 210 q 325 118 258 118 m 210 -112 l 344 -112 l 319 -244 l 185 -244 l 210 -112 z "},"ò":{"ha":747,"x_min":25,"x_max":700,"o":"m 304 -14 q 97 69 169 -14 q 25 282 25 153 q 76 489 25 392 q 218 644 128 586 q 421 703 308 703 q 628 619 556 703 q 700 407 700 536 q 649 200 700 297 q 507 44 597 103 q 304 -14 417 -14 m 325 118 q 435 156 386 118 q 510 256 483 193 q 536 394 536 319 q 501 524 536 479 q 399 569 467 569 q 290 533 338 569 q 215 433 242 496 q 189 294 189 369 q 224 164 189 210 q 325 118 258 118 m 338 897 l 365 1050 l 594 896 l 576 794 l 338 897 z "},"ỏ":{"ha":747,"x_min":25,"x_max":700,"o":"m 304 -14 q 97 69 169 -14 q 25 282 25 153 q 76 489 25 392 q 218 644 128 586 q 421 703 308 703 q 628 619 556 703 q 700 407 700 536 q 649 200 700 297 q 507 44 597 103 q 304 -14 417 -14 m 325 118 q 435 156 386 118 q 510 256 483 193 q 536 394 536 319 q 501 524 536 479 q 399 569 467 569 q 290 533 338 569 q 215 433 242 496 q 189 294 189 369 q 224 164 189 210 q 325 118 258 118 m 421 788 q 480 840 461 819 q 499 888 499 861 q 488 915 499 906 q 456 925 476 925 q 364 900 421 925 l 356 978 q 471 1003 415 1003 q 554 978 522 1003 q 588 907 586 953 q 555 817 588 856 q 461 738 522 778 l 421 788 z "},"ơ":{"ha":747,"x_min":25,"x_max":754,"o":"m 754 793 q 710 695 744 739 q 624 624 675 651 q 681 528 661 583 q 700 407 700 472 q 649 200 700 297 q 507 44 597 103 q 304 -14 417 -14 q 97 69 169 -14 q 25 282 25 153 q 76 489 25 392 q 218 644 128 586 q 421 703 308 703 q 510 692 465 703 q 615 793 597 700 l 754 793 m 325 118 q 435 156 386 118 q 510 256 483 193 q 536 394 536 319 q 501 524 536 479 q 399 569 467 569 q 290 533 338 569 q 215 433 242 496 q 189 294 189 369 q 224 164 189 210 q 325 118 258 118 z "},"ớ":{"ha":747,"x_min":25,"x_max":754,"o":"m 754 793 q 710 695 744 739 q 624 624 675 651 q 681 528 661 583 q 700 407 700 472 q 649 200 700 297 q 507 44 597 103 q 304 -14 417 -14 q 97 69 169 -14 q 25 282 25 153 q 76 489 25 392 q 218 644 128 586 q 421 703 308 703 q 510 692 465 703 q 615 793 597 700 l 754 793 m 325 118 q 435 156 386 118 q 510 256 483 193 q 536 394 536 319 q 501 524 536 479 q 399 569 467 569 q 290 533 338 569 q 215 433 242 496 q 189 294 189 369 q 224 164 189 210 q 325 118 258 118 m 350 903 l 622 1051 l 597 883 l 328 794 l 350 903 z "},"ợ":{"ha":747,"x_min":25,"x_max":754,"o":"m 754 793 q 710 695 744 739 q 624 624 675 651 q 681 528 661 583 q 700 407 700 472 q 649 200 700 297 q 507 44 597 103 q 304 -14 417 -14 q 97 69 169 -14 q 25 282 25 153 q 76 489 25 392 q 218 644 128 586 q 421 703 308 703 q 510 692 465 703 q 615 793 597 700 l 754 793 m 325 118 q 435 156 386 118 q 510 256 483 193 q 536 394 536 319 q 501 524 536 479 q 399 569 467 569 q 290 533 338 569 q 215 433 242 496 q 189 294 189 369 q 224 164 189 210 q 325 118 258 118 m 210 -112 l 344 -112 l 319 -244 l 185 -244 l 210 -112 z "},"ờ":{"ha":747,"x_min":25,"x_max":754,"o":"m 754 793 q 710 695 744 739 q 624 624 675 651 q 681 528 661 583 q 700 407 700 472 q 649 200 700 297 q 507 44 597 103 q 304 -14 417 -14 q 97 69 169 -14 q 25 282 25 153 q 76 489 25 392 q 218 644 128 586 q 421 703 308 703 q 510 692 465 703 q 615 793 597 700 l 754 793 m 325 118 q 435 156 386 118 q 510 256 483 193 q 536 394 536 319 q 501 524 536 479 q 399 569 467 569 q 290 533 338 569 q 215 433 242 496 q 189 294 189 369 q 224 164 189 210 q 325 118 258 118 m 338 897 l 365 1050 l 594 896 l 576 794 l 338 897 z "},"ở":{"ha":747,"x_min":25,"x_max":754,"o":"m 754 793 q 710 695 744 739 q 624 624 675 651 q 681 528 661 583 q 700 407 700 472 q 649 200 700 297 q 507 44 597 103 q 304 -14 417 -14 q 97 69 169 -14 q 25 282 25 153 q 76 489 25 392 q 218 644 128 586 q 421 703 308 703 q 510 692 465 703 q 615 793 597 700 l 754 793 m 325 118 q 435 156 386 118 q 510 256 483 193 q 536 394 536 319 q 501 524 536 479 q 399 569 467 569 q 290 533 338 569 q 215 433 242 496 q 189 294 189 369 q 224 164 189 210 q 325 118 258 118 m 421 788 q 480 840 461 819 q 499 888 499 861 q 488 915 499 906 q 456 925 476 925 q 364 900 421 925 l 356 978 q 471 1003 415 1003 q 554 978 522 1003 q 588 907 586 953 q 555 817 588 856 q 461 738 522 778 l 421 788 z "},"ỡ":{"ha":747,"x_min":25,"x_max":754,"o":"m 754 793 q 710 695 744 739 q 624 624 675 651 q 681 528 661 583 q 700 407 700 472 q 649 200 700 297 q 507 44 597 103 q 304 -14 417 -14 q 97 69 169 -14 q 25 282 25 153 q 76 489 25 392 q 218 644 128 586 q 421 703 308 703 q 510 692 465 703 q 615 793 597 700 l 754 793 m 325 118 q 435 156 386 118 q 510 256 483 193 q 536 394 536 319 q 501 524 536 479 q 399 569 467 569 q 290 533 338 569 q 215 433 242 496 q 189 294 189 369 q 224 164 189 210 q 325 118 258 118 m 574 804 q 530 812 553 804 q 475 835 507 819 q 389 864 417 864 q 352 851 367 864 q 333 815 338 838 l 226 815 q 278 937 240 894 q 372 979 315 979 q 419 970 396 979 q 471 946 442 961 q 513 926 492 935 q 551 918 535 918 q 604 972 596 918 l 714 972 q 664 845 699 886 q 574 804 629 804 z "},"ő":{"ha":747,"x_min":25,"x_max":807,"o":"m 304 -14 q 97 69 169 -14 q 25 282 25 153 q 76 489 25 392 q 218 644 128 586 q 421 703 308 703 q 628 619 556 703 q 700 407 700 536 q 649 200 700 297 q 507 44 597 103 q 304 -14 417 -14 m 325 118 q 435 156 386 118 q 510 256 483 193 q 536 394 536 319 q 501 524 536 479 q 399 569 467 569 q 290 533 338 569 q 215 433 242 496 q 189 294 189 369 q 224 164 189 210 q 325 118 258 118 m 444 1054 l 596 1054 l 401 813 l 297 813 l 444 1054 m 656 1054 l 807 1054 l 603 813 l 499 813 l 656 1054 z "},"ȏ":{"ha":747,"x_min":25,"x_max":700,"o":"m 304 -14 q 97 69 169 -14 q 25 282 25 153 q 76 489 25 392 q 218 644 128 586 q 421 703 308 703 q 628 619 556 703 q 700 407 700 536 q 649 200 700 297 q 507 44 597 103 q 304 -14 417 -14 m 325 118 q 435 156 386 118 q 510 256 483 193 q 536 394 536 319 q 501 524 536 479 q 399 569 467 569 q 290 533 338 569 q 215 433 242 496 q 189 294 189 369 q 224 164 189 210 q 325 118 258 118 m 485 999 q 618 956 571 999 q 665 844 665 913 q 663 811 665 833 l 549 811 q 550 829 550 819 q 528 881 550 863 q 468 899 506 899 q 395 876 425 899 q 358 811 365 853 l 242 811 q 321 944 254 890 q 485 999 388 999 z "},"ō":{"ha":747,"x_min":25,"x_max":700,"o":"m 304 -14 q 97 69 169 -14 q 25 282 25 153 q 76 489 25 392 q 218 644 128 586 q 421 703 308 703 q 628 619 556 703 q 700 407 700 536 q 649 200 700 297 q 507 44 597 103 q 304 -14 417 -14 m 325 118 q 435 156 386 118 q 510 256 483 193 q 536 394 536 319 q 501 524 536 479 q 399 569 467 569 q 290 533 338 569 q 215 433 242 496 q 189 294 189 369 q 224 164 189 210 q 325 118 258 118 m 260 939 l 700 939 l 679 831 l 238 831 l 260 939 z "},"ṓ":{"ha":747,"x_min":25,"x_max":700,"o":"m 304 -14 q 97 69 169 -14 q 25 282 25 153 q 76 489 25 392 q 218 644 128 586 q 421 703 308 703 q 628 619 556 703 q 700 407 700 536 q 649 200 700 297 q 507 44 597 103 q 304 -14 417 -14 m 325 118 q 435 156 386 118 q 510 256 483 193 q 536 394 536 319 q 501 524 536 479 q 399 569 467 569 q 290 533 338 569 q 215 433 242 496 q 189 294 189 369 q 224 164 189 210 q 325 118 258 118 m 250 922 l 693 922 l 674 819 l 232 819 l 250 922 m 390 1103 l 650 1235 l 626 1085 l 376 1004 l 390 1103 z "},"ṑ":{"ha":747,"x_min":25,"x_max":700,"o":"m 304 -14 q 97 69 169 -14 q 25 282 25 153 q 76 489 25 392 q 218 644 128 586 q 421 703 308 703 q 628 619 556 703 q 700 407 700 536 q 649 200 700 297 q 507 44 597 103 q 304 -14 417 -14 m 325 118 q 435 156 386 118 q 510 256 483 193 q 536 394 536 319 q 501 524 536 479 q 399 569 467 569 q 290 533 338 569 q 215 433 242 496 q 189 294 189 369 q 224 164 189 210 q 325 118 258 118 m 250 922 l 693 922 l 674 819 l 232 819 l 250 922 m 378 1085 l 404 1226 l 638 1094 l 619 1004 l 378 1085 z "},"ǫ":{"ha":747,"x_min":25,"x_max":700,"o":"m 379 -7 q 289 -83 324 -46 q 254 -161 254 -121 q 267 -199 254 -186 q 306 -211 281 -211 q 389 -193 349 -211 l 397 -267 q 281 -292 344 -292 q 196 -266 228 -292 q 163 -194 164 -240 q 198 -97 163 -144 q 286 -14 233 -50 q 92 74 160 -8 q 25 282 25 157 q 76 489 25 392 q 218 644 128 586 q 421 703 308 703 q 628 619 556 703 q 700 407 700 536 q 659 222 700 310 q 545 74 618 135 q 379 -7 472 13 m 189 294 q 224 164 189 210 q 325 118 258 118 q 435 156 386 118 q 510 256 483 193 q 536 394 536 319 q 501 524 536 479 q 399 569 467 569 q 290 533 338 569 q 215 433 242 496 q 189 294 189 369 z "},"ø":{"ha":747,"x_min":10,"x_max":719,"o":"m 631 617 q 700 407 700 535 q 649 200 700 297 q 507 44 597 103 q 304 -14 417 -14 q 178 11 232 -14 l 128 -56 l 10 -56 l 100 65 q 44 161 63 106 q 25 282 25 217 q 76 489 25 392 q 218 644 128 586 q 421 703 308 703 q 556 674 500 703 l 601 736 l 719 736 l 631 617 m 189 294 q 203 203 189 239 l 465 554 q 399 569 438 569 q 290 533 338 569 q 215 433 242 496 q 189 294 189 369 m 536 394 q 525 476 536 439 l 267 129 q 325 118 293 118 q 435 156 386 118 q 510 256 483 193 q 536 394 536 319 z "},"ǿ":{"ha":747,"x_min":10,"x_max":719,"o":"m 631 617 q 700 407 700 535 q 649 200 700 297 q 507 44 597 103 q 304 -14 417 -14 q 178 11 232 -14 l 128 -56 l 10 -56 l 100 65 q 44 161 63 106 q 25 282 25 217 q 76 489 25 392 q 218 644 128 586 q 421 703 308 703 q 556 674 500 703 l 601 736 l 719 736 l 631 617 m 189 294 q 203 203 189 239 l 465 554 q 399 569 438 569 q 290 533 338 569 q 215 433 242 496 q 189 294 189 369 m 536 394 q 525 476 536 439 l 267 129 q 325 118 293 118 q 435 156 386 118 q 510 256 483 193 q 536 394 536 319 m 350 903 l 622 1051 l 597 883 l 328 794 l 350 903 z "},"õ":{"ha":747,"x_min":25,"x_max":714,"o":"m 304 -14 q 97 69 169 -14 q 25 282 25 153 q 76 489 25 392 q 218 644 128 586 q 421 703 308 703 q 628 619 556 703 q 700 407 700 536 q 649 200 700 297 q 507 44 597 103 q 304 -14 417 -14 m 325 118 q 435 156 386 118 q 510 256 483 193 q 536 394 536 319 q 501 524 536 479 q 399 569 467 569 q 290 533 338 569 q 215 433 242 496 q 189 294 189 369 q 224 164 189 210 q 325 118 258 118 m 574 804 q 530 812 553 804 q 475 835 507 819 q 389 864 417 864 q 352 851 367 864 q 333 815 338 838 l 226 815 q 278 937 240 894 q 372 979 315 979 q 419 970 396 979 q 471 946 442 961 q 513 926 492 935 q 551 918 535 918 q 604 972 596 918 l 714 972 q 664 845 699 886 q 574 804 629 804 z "},"ṍ":{"ha":747,"x_min":25,"x_max":700,"o":"m 304 -14 q 97 69 169 -14 q 25 282 25 153 q 76 489 25 392 q 218 644 128 586 q 421 703 308 703 q 628 619 556 703 q 700 407 700 536 q 649 200 700 297 q 507 44 597 103 q 304 -14 417 -14 m 325 118 q 435 156 386 118 q 510 256 483 193 q 536 394 536 319 q 501 524 536 479 q 399 569 467 569 q 290 533 338 569 q 215 433 242 496 q 189 294 189 369 q 224 164 189 210 q 325 118 258 118 m 560 801 q 517 809 539 801 q 461 831 494 817 q 418 848 440 840 q 381 856 396 856 q 335 811 343 856 l 235 811 q 281 917 247 881 q 369 954 315 954 q 465 926 404 954 q 508 909 486 917 q 547 901 531 901 q 593 947 585 901 l 693 947 q 649 839 683 876 q 560 801 614 801 m 383 1107 l 643 1239 l 619 1089 l 369 1008 l 383 1107 z "},"ṏ":{"ha":747,"x_min":25,"x_max":708,"o":"m 304 -14 q 97 69 169 -14 q 25 282 25 153 q 76 489 25 392 q 218 644 128 586 q 421 703 308 703 q 628 619 556 703 q 700 407 700 536 q 649 200 700 297 q 507 44 597 103 q 304 -14 417 -14 m 325 118 q 435 156 386 118 q 510 256 483 193 q 536 394 536 319 q 501 524 536 479 q 399 569 467 569 q 290 533 338 569 q 215 433 242 496 q 189 294 189 369 q 224 164 189 210 q 325 118 258 118 m 560 801 q 517 809 539 801 q 461 831 494 817 q 418 848 440 840 q 381 856 396 856 q 335 811 343 856 l 235 811 q 281 917 247 881 q 369 954 315 954 q 465 926 404 954 q 508 909 486 917 q 547 901 531 901 q 593 947 585 901 l 693 947 q 649 839 683 876 q 560 801 614 801 m 315 1158 l 442 1158 l 421 1043 l 294 1043 l 315 1158 m 582 1158 l 708 1158 l 688 1043 l 561 1043 l 582 1158 z "},"ȭ":{"ha":747,"x_min":25,"x_max":733,"o":"m 304 -14 q 97 69 169 -14 q 25 282 25 153 q 76 489 25 392 q 218 644 128 586 q 421 703 308 703 q 628 619 556 703 q 700 407 700 536 q 649 200 700 297 q 507 44 597 103 q 304 -14 417 -14 m 325 118 q 435 156 386 118 q 510 256 483 193 q 536 394 536 319 q 501 524 536 479 q 399 569 467 569 q 290 533 338 569 q 215 433 242 496 q 189 294 189 369 q 224 164 189 210 q 325 118 258 118 m 560 801 q 517 809 539 801 q 461 831 494 817 q 418 848 440 840 q 381 856 396 856 q 335 811 343 856 l 235 811 q 281 917 247 881 q 369 954 315 954 q 465 926 404 954 q 508 909 486 917 q 547 901 531 901 q 593 947 585 901 l 693 947 q 649 839 683 876 q 560 801 614 801 m 290 1156 l 733 1156 l 714 1053 l 272 1053 l 290 1156 z "},"œ":{"ha":1182,"x_min":26,"x_max":1149,"o":"m 299 -14 q 151 25 213 -14 q 58 131 89 64 q 26 282 26 199 q 77 490 26 393 q 218 644 128 586 q 424 703 308 703 q 561 672 503 703 q 651 583 619 640 q 768 672 703 640 q 908 703 833 703 q 1083 637 1017 703 q 1149 460 1149 571 q 1142 392 1149 417 q 1117 319 1135 367 l 692 319 l 690 294 q 693 264 690 283 q 745 151 701 186 q 851 115 789 115 q 958 131 899 115 q 1064 171 1018 147 l 1049 36 q 822 -14 943 -14 q 571 110 639 -14 q 449 18 518 50 q 299 -14 379 -14 m 324 118 q 435 156 386 118 q 510 258 483 193 q 538 399 538 322 q 502 522 538 475 q 403 569 467 569 q 290 533 339 569 q 215 432 242 496 q 189 289 189 368 q 224 164 189 210 q 324 118 258 118 m 985 426 q 988 465 988 443 q 964 540 988 510 q 889 569 940 569 q 783 531 828 569 q 714 426 739 493 l 985 426 z "},"p":{"ha":761,"x_min":-49,"x_max":713,"o":"m 132 690 l 269 690 l 268 618 q 363 681 315 660 q 471 703 411 703 q 649 622 585 703 q 713 411 713 542 q 669 193 713 290 q 548 41 626 96 q 367 -14 469 -14 q 256 11 303 -14 q 182 81 210 36 l 110 -336 l -49 -336 l 132 690 m 354 118 q 455 155 411 118 q 524 256 499 192 q 549 397 549 319 q 517 523 549 476 q 424 569 486 569 q 316 533 364 569 q 241 431 268 496 q 214 285 214 365 q 249 160 214 201 q 354 118 285 118 z "},"þ":{"ha":761,"x_min":-49,"x_max":713,"o":"m 194 1042 l 353 1042 l 279 633 q 474 703 367 703 q 649 623 586 703 q 713 411 713 543 q 669 193 713 290 q 548 41 626 96 q 367 -14 469 -14 q 256 11 303 -14 q 182 81 210 36 l 110 -336 l -49 -336 l 194 1042 m 354 118 q 455 155 411 118 q 524 256 499 192 q 549 397 549 319 q 517 523 549 476 q 424 569 486 569 q 316 533 364 569 q 241 431 268 496 q 214 285 214 365 q 249 160 214 201 q 354 118 285 118 z "},"q":{"ha":763,"x_min":26,"x_max":729,"o":"m 458 63 q 274 -14 375 -14 q 90 67 154 -14 q 26 276 26 149 q 72 485 26 386 q 201 643 118 583 q 392 703 285 703 q 495 679 454 703 q 568 606 536 656 l 604 690 l 729 690 l 547 -336 l 389 -336 l 458 63 m 326 118 q 471 198 417 118 q 525 401 525 278 q 493 526 525 483 q 397 569 461 569 q 290 532 338 569 q 217 432 243 494 q 190 294 190 369 q 224 165 190 213 q 326 118 258 118 z "},"r":{"ha":458,"x_min":11,"x_max":506,"o":"m 132 690 l 279 690 l 269 604 q 359 677 307 649 q 465 706 411 706 l 506 706 l 447 550 l 388 550 q 311 528 349 550 q 254 476 274 507 l 169 0 l 11 0 l 132 690 z "},"ŕ":{"ha":458,"x_min":11,"x_max":506,"o":"m 132 690 l 279 690 l 269 604 q 359 677 307 649 q 465 706 411 706 l 506 706 l 447 550 l 388 550 q 311 528 349 550 q 254 476 274 507 l 169 0 l 11 0 l 132 690 m 232 903 l 504 1051 l 479 883 l 210 794 l 232 903 z "},"ř":{"ha":458,"x_min":11,"x_max":553,"o":"m 132 690 l 279 690 l 269 604 q 359 677 307 649 q 465 706 411 706 l 506 706 l 447 550 l 388 550 q 311 528 349 550 q 254 476 274 507 l 169 0 l 11 0 l 132 690 m 178 931 l 199 1033 l 357 919 l 553 1033 l 532 917 l 329 776 l 178 931 z "},"ŗ":{"ha":458,"x_min":-37,"x_max":506,"o":"m 132 690 l 279 690 l 269 604 q 359 677 307 649 q 465 706 411 706 l 506 706 l 447 550 l 388 550 q 311 528 349 550 q 254 476 274 507 l 169 0 l 11 0 l 132 690 m -37 -378 l 29 -257 l -24 -257 l 0 -126 l 140 -126 l 118 -257 l 19 -378 l -37 -378 z "},"ȑ":{"ha":458,"x_min":11,"x_max":506,"o":"m 132 690 l 279 690 l 269 604 q 359 677 307 649 q 465 706 411 706 l 506 706 l 447 550 l 388 550 q 311 528 349 550 q 254 476 274 507 l 169 0 l 11 0 l 132 690 m 188 813 l 82 1054 l 235 1054 l 292 813 l 188 813 m 388 813 l 293 1054 l 446 1054 l 492 813 l 388 813 z "},"ṛ":{"ha":458,"x_min":-21,"x_max":506,"o":"m 132 690 l 279 690 l 269 604 q 359 677 307 649 q 465 706 411 706 l 506 706 l 447 550 l 388 550 q 311 528 349 550 q 254 476 274 507 l 169 0 l 11 0 l 132 690 m 4 -112 l 139 -112 l 114 -244 l -21 -244 l 4 -112 z "},"ȓ":{"ha":458,"x_min":11,"x_max":547,"o":"m 132 690 l 279 690 l 269 604 q 359 677 307 649 q 465 706 411 706 l 506 706 l 447 550 l 388 550 q 311 528 349 550 q 254 476 274 507 l 169 0 l 11 0 l 132 690 m 367 999 q 500 956 453 999 q 547 844 547 913 q 544 811 547 833 l 431 811 q 432 829 432 819 q 410 881 432 863 q 350 899 388 899 q 277 876 307 899 q 240 811 247 853 l 124 811 q 203 944 136 890 q 367 999 269 999 z "},"ṟ":{"ha":458,"x_min":-174,"x_max":506,"o":"m 132 690 l 279 690 l 269 604 q 359 677 307 649 q 465 706 411 706 l 506 706 l 447 550 l 388 550 q 311 528 349 550 q 254 476 274 507 l 169 0 l 11 0 l 132 690 m -151 -126 l 289 -126 l 268 -235 l -174 -235 l -151 -126 z "},"s":{"ha":567,"x_min":-17,"x_max":540,"o":"m 206 -14 q -17 40 86 -14 l 22 179 q 218 110 126 110 q 301 133 274 110 q 329 194 329 156 q 304 253 329 233 q 225 292 279 274 q 103 355 144 318 q 61 468 61 392 q 93 585 61 532 q 189 671 125 639 q 344 703 253 703 q 540 653 458 703 l 504 522 q 329 586 422 586 q 243 565 275 586 q 211 501 211 543 q 226 457 211 474 q 264 431 242 440 q 343 400 286 421 q 453 333 415 374 q 490 218 490 292 q 460 106 490 158 q 367 19 431 53 q 206 -14 303 -14 z "},"ś":{"ha":567,"x_min":-17,"x_max":540,"o":"m 206 -14 q -17 40 86 -14 l 22 179 q 218 110 126 110 q 301 133 274 110 q 329 194 329 156 q 304 253 329 233 q 225 292 279 274 q 103 355 144 318 q 61 468 61 392 q 93 585 61 532 q 189 671 125 639 q 344 703 253 703 q 540 653 458 703 l 504 522 q 329 586 422 586 q 243 565 275 586 q 211 501 211 543 q 226 457 211 474 q 264 431 242 440 q 343 400 286 421 q 453 333 415 374 q 490 218 490 292 q 460 106 490 158 q 367 19 431 53 q 206 -14 303 -14 m 264 893 l 536 1042 l 511 874 l 242 785 l 264 893 z "},"ṥ":{"ha":567,"x_min":-17,"x_max":540,"o":"m 206 -14 q -17 40 86 -14 l 22 179 q 218 110 126 110 q 301 133 274 110 q 329 194 329 156 q 304 253 329 233 q 225 292 279 274 q 103 355 144 318 q 61 468 61 392 q 93 585 61 532 q 189 671 125 639 q 344 703 253 703 q 540 653 458 703 l 504 522 q 329 586 422 586 q 243 565 275 586 q 211 501 211 543 q 226 457 211 474 q 264 431 242 440 q 343 400 286 421 q 453 333 415 374 q 490 218 490 292 q 460 106 490 158 q 367 19 431 53 q 206 -14 303 -14 m 257 864 l 517 996 l 493 846 l 243 765 l 257 864 m 371 1193 l 508 1193 l 485 1061 l 347 1061 l 371 1193 z "},"š":{"ha":567,"x_min":-17,"x_max":585,"o":"m 206 -14 q -17 40 86 -14 l 22 179 q 218 110 126 110 q 301 133 274 110 q 329 194 329 156 q 304 253 329 233 q 225 292 279 274 q 103 355 144 318 q 61 468 61 392 q 93 585 61 532 q 189 671 125 639 q 344 703 253 703 q 540 653 458 703 l 504 522 q 329 586 422 586 q 243 565 275 586 q 211 501 211 543 q 226 457 211 474 q 264 431 242 440 q 343 400 286 421 q 453 333 415 374 q 490 218 490 292 q 460 106 490 158 q 367 19 431 53 q 206 -14 303 -14 m 210 921 l 231 1024 l 389 910 l 585 1024 l 564 907 l 361 767 l 210 921 z "},"ṧ":{"ha":567,"x_min":-17,"x_max":542,"o":"m 206 -14 q -17 40 86 -14 l 22 179 q 218 110 126 110 q 301 133 274 110 q 329 194 329 156 q 304 253 329 233 q 225 292 279 274 q 103 355 144 318 q 61 468 61 392 q 93 585 61 532 q 189 671 125 639 q 344 703 253 703 q 540 653 458 703 l 504 522 q 329 586 422 586 q 243 565 275 586 q 211 501 211 543 q 226 457 211 474 q 264 431 242 440 q 343 400 286 421 q 453 333 415 374 q 490 218 490 292 q 460 106 490 158 q 367 19 431 53 q 206 -14 303 -14 m 193 874 l 210 971 l 371 867 l 542 967 l 524 857 l 351 746 l 193 874 m 353 1147 l 490 1147 l 467 1015 l 329 1015 l 353 1147 z "},"ş":{"ha":567,"x_min":-17,"x_max":540,"o":"m 329 586 q 243 565 275 586 q 211 501 211 543 q 226 457 211 474 q 264 431 242 440 q 343 400 286 421 q 453 333 415 374 q 490 218 490 292 q 428 64 490 131 q 244 -12 367 -3 l 214 -75 l 224 -75 q 301 -101 272 -75 q 329 -172 329 -126 q 278 -283 329 -240 q 150 -326 226 -326 q 42 -300 86 -326 l 81 -222 q 165 -246 125 -246 q 222 -231 201 -246 q 242 -190 242 -215 q 226 -158 242 -169 q 179 -147 210 -147 q 110 -157 147 -147 l 171 -12 q -17 40 72 -6 l 22 179 q 218 110 126 110 q 301 133 274 110 q 329 194 329 156 q 304 253 329 233 q 225 292 279 274 q 103 355 144 318 q 61 468 61 392 q 93 585 61 532 q 189 671 125 639 q 344 703 253 703 q 540 653 458 703 l 504 522 q 329 586 422 586 z "},"ŝ":{"ha":567,"x_min":-17,"x_max":561,"o":"m 206 -14 q -17 40 86 -14 l 22 179 q 218 110 126 110 q 301 133 274 110 q 329 194 329 156 q 304 253 329 233 q 225 292 279 274 q 103 355 144 318 q 61 468 61 392 q 93 585 61 532 q 189 671 125 639 q 344 703 253 703 q 540 653 458 703 l 504 522 q 329 586 422 586 q 243 565 275 586 q 211 501 211 543 q 226 457 211 474 q 264 431 242 440 q 343 400 286 421 q 453 333 415 374 q 490 218 490 292 q 460 106 490 158 q 367 19 431 53 q 206 -14 303 -14 m 229 885 l 411 1021 l 561 867 l 540 764 l 383 878 l 206 779 l 229 885 z "},"ș":{"ha":567,"x_min":-17,"x_max":540,"o":"m 206 -14 q -17 40 86 -14 l 22 179 q 218 110 126 110 q 301 133 274 110 q 329 194 329 156 q 304 253 329 233 q 225 292 279 274 q 103 355 144 318 q 61 468 61 392 q 93 585 61 532 q 189 671 125 639 q 344 703 253 703 q 540 653 458 703 l 504 522 q 329 586 422 586 q 243 565 275 586 q 211 501 211 543 q 226 457 211 474 q 264 431 242 440 q 343 400 286 421 q 453 333 415 374 q 490 218 490 292 q 460 106 490 158 q 367 19 431 53 q 206 -14 303 -14 m 82 -378 l 149 -257 l 96 -257 l 119 -126 l 260 -126 l 238 -257 l 139 -378 l 82 -378 z "},"ṡ":{"ha":567,"x_min":-17,"x_max":540,"o":"m 206 -14 q -17 40 86 -14 l 22 179 q 218 110 126 110 q 301 133 274 110 q 329 194 329 156 q 304 253 329 233 q 225 292 279 274 q 103 355 144 318 q 61 468 61 392 q 93 585 61 532 q 189 671 125 639 q 344 703 253 703 q 540 653 458 703 l 504 522 q 329 586 422 586 q 243 565 275 586 q 211 501 211 543 q 226 457 211 474 q 264 431 242 440 q 343 400 286 421 q 453 333 415 374 q 490 218 490 292 q 460 106 490 158 q 367 19 431 53 q 206 -14 303 -14 m 329 954 l 464 954 l 439 822 l 304 822 l 329 954 z "},"ṣ":{"ha":567,"x_min":-17,"x_max":540,"o":"m 206 -14 q -17 40 86 -14 l 22 179 q 218 110 126 110 q 301 133 274 110 q 329 194 329 156 q 304 253 329 233 q 225 292 279 274 q 103 355 144 318 q 61 468 61 392 q 93 585 61 532 q 189 671 125 639 q 344 703 253 703 q 540 653 458 703 l 504 522 q 329 586 422 586 q 243 565 275 586 q 211 501 211 543 q 226 457 211 474 q 264 431 242 440 q 343 400 286 421 q 453 333 415 374 q 490 218 490 292 q 460 106 490 158 q 367 19 431 53 q 206 -14 303 -14 m 124 -112 l 258 -112 l 233 -244 l 99 -244 l 124 -112 z "},"ṩ":{"ha":567,"x_min":-17,"x_max":540,"o":"m 206 -14 q -17 40 86 -14 l 22 179 q 218 110 126 110 q 301 133 274 110 q 329 194 329 156 q 304 253 329 233 q 225 292 279 274 q 103 355 144 318 q 61 468 61 392 q 93 585 61 532 q 189 671 125 639 q 344 703 253 703 q 540 653 458 703 l 504 522 q 329 586 422 586 q 243 565 275 586 q 211 501 211 543 q 226 457 211 474 q 264 431 242 440 q 343 400 286 421 q 453 333 415 374 q 490 218 490 292 q 460 106 490 158 q 367 19 431 53 q 206 -14 303 -14 m 329 954 l 464 954 l 439 822 l 304 822 l 329 954 m 124 -112 l 258 -112 l 233 -244 l 99 -244 l 124 -112 z "},"ß":{"ha":843,"x_min":42,"x_max":804,"o":"m 428 -19 q 286 -4 351 -19 l 308 128 q 449 113 381 113 q 569 147 521 113 q 617 243 617 181 q 592 316 617 288 q 517 379 567 344 q 443 441 468 413 q 418 513 418 469 q 449 599 418 557 q 546 699 481 640 q 622 776 600 747 q 643 844 643 804 q 612 906 642 883 q 526 929 582 929 q 398 881 447 929 q 333 747 349 833 l 201 0 l 42 0 l 142 563 l 47 563 l 83 690 l 164 690 l 174 744 q 303 981 201 900 q 554 1061 404 1061 q 737 1012 669 1061 q 804 878 804 963 q 777 770 804 814 q 690 671 750 726 l 665 649 q 603 588 622 611 q 585 539 585 564 q 603 491 585 511 q 661 442 622 471 q 723 390 700 413 q 763 334 746 368 q 779 254 779 300 q 731 109 779 171 q 601 14 682 47 q 428 -19 521 -19 z "},"ə":{"ha":665,"x_min":35,"x_max":639,"o":"m 340 704 q 563 622 488 704 q 639 407 639 539 q 590 202 639 299 q 454 47 542 106 q 254 -12 367 -12 q 92 40 149 -12 q 35 181 35 92 q 123 350 35 290 q 361 410 211 410 q 472 400 431 410 q 423 532 469 492 q 307 572 376 572 q 99 519 201 572 l 114 651 q 217 690 158 675 q 340 704 275 704 m 385 306 q 219 272 269 306 q 169 192 169 239 q 198 136 169 151 q 263 121 226 121 q 385 173 333 121 q 458 297 436 225 q 385 306 432 306 z "},"t":{"ha":454,"x_min":53,"x_max":474,"o":"m 219 -14 q 109 26 144 -14 q 74 126 74 65 q 147 563 74 149 l 53 563 l 89 690 l 169 690 l 197 847 l 358 864 l 328 690 l 474 690 l 451 563 l 306 563 q 253 263 268 350 q 239 163 239 176 q 256 123 239 131 q 328 115 274 115 l 372 115 l 335 -14 l 219 -14 z "},"ŧ":{"ha":469,"x_min":24,"x_max":488,"o":"m 319 563 l 296 425 l 439 425 l 419 318 l 276 318 q 253 163 253 181 q 270 123 253 131 q 342 115 288 115 l 386 115 l 349 -14 l 233 -14 q 123 26 158 -14 q 88 126 88 65 q 118 318 88 140 l 24 318 l 44 425 l 136 425 l 150 499 q 161 563 153 515 l 67 563 l 103 690 l 183 690 l 211 847 l 372 864 l 342 690 l 488 690 l 465 563 l 319 563 z "},"ť":{"ha":454,"x_min":53,"x_max":581,"o":"m 219 -14 q 109 26 144 -14 q 74 126 74 65 q 147 563 74 149 l 53 563 l 89 690 l 169 690 l 197 847 l 358 864 l 328 690 l 474 690 l 451 563 l 306 563 q 253 263 268 350 q 239 163 239 176 q 256 123 239 131 q 328 115 274 115 l 372 115 l 335 -14 l 219 -14 m 447 997 l 581 997 l 497 756 l 404 756 l 447 997 z "},"ţ":{"ha":454,"x_min":53,"x_max":474,"o":"m 306 563 q 253 263 268 350 q 239 163 239 176 q 256 123 239 131 q 328 115 274 115 l 372 115 l 335 -14 l 261 -14 l 232 -75 l 242 -75 q 319 -101 290 -75 q 347 -172 347 -126 q 296 -283 347 -240 q 168 -326 244 -326 q 60 -300 104 -326 l 99 -222 q 183 -246 143 -246 q 240 -231 219 -246 q 260 -190 260 -215 q 244 -158 260 -169 q 197 -147 228 -147 q 128 -157 165 -147 l 189 -12 q 101 33 129 -4 q 74 126 74 71 q 147 563 74 149 l 53 563 l 89 690 l 169 690 l 197 847 l 358 864 l 328 690 l 474 690 l 451 563 l 306 563 z "},"ț":{"ha":454,"x_min":53,"x_max":474,"o":"m 219 -14 q 109 26 144 -14 q 74 126 74 65 q 147 563 74 149 l 53 563 l 89 690 l 169 690 l 197 847 l 358 864 l 328 690 l 474 690 l 451 563 l 306 563 q 253 263 268 350 q 239 163 239 176 q 256 123 239 131 q 328 115 274 115 l 372 115 l 335 -14 l 219 -14 m 100 -378 l 167 -257 l 114 -257 l 138 -126 l 278 -126 l 256 -257 l 157 -378 l 100 -378 z "},"ẗ":{"ha":454,"x_min":53,"x_max":524,"o":"m 219 -14 q 109 26 144 -14 q 74 126 74 65 q 147 563 74 149 l 53 563 l 89 690 l 169 690 l 197 847 l 358 864 l 328 690 l 474 690 l 451 563 l 306 563 q 253 263 268 350 q 239 163 239 176 q 256 123 239 131 q 328 115 274 115 l 372 115 l 335 -14 l 219 -14 m 128 1103 l 254 1103 l 231 982 l 104 982 l 128 1103 m 397 1103 l 524 1103 l 500 982 l 374 982 l 397 1103 z "},"ṭ":{"ha":454,"x_min":53,"x_max":474,"o":"m 219 -14 q 109 26 144 -14 q 74 126 74 65 q 147 563 74 149 l 53 563 l 89 690 l 169 690 l 197 847 l 358 864 l 328 690 l 474 690 l 451 563 l 306 563 q 253 263 268 350 q 239 163 239 176 q 256 123 239 131 q 328 115 274 115 l 372 115 l 335 -14 l 219 -14 m 142 -112 l 276 -112 l 251 -244 l 117 -244 l 142 -112 z "},"ṯ":{"ha":454,"x_min":-36,"x_max":474,"o":"m 219 -14 q 109 26 144 -14 q 74 126 74 65 q 147 563 74 149 l 53 563 l 89 690 l 169 690 l 197 847 l 358 864 l 328 690 l 474 690 l 451 563 l 306 563 q 253 263 268 350 q 239 163 239 176 q 256 123 239 131 q 328 115 274 115 l 372 115 l 335 -14 l 219 -14 m -14 -126 l 426 -126 l 406 -235 l -36 -235 l -14 -126 z "},"u":{"ha":732,"x_min":49,"x_max":699,"o":"m 261 -14 q 103 46 157 -14 q 49 213 49 106 q 58 304 49 251 l 125 690 l 283 690 l 219 319 q 210 240 210 265 q 315 121 210 121 q 450 185 394 121 l 540 690 l 699 690 l 576 0 l 428 0 l 435 58 q 353 5 394 24 q 261 -14 313 -14 z "},"ú":{"ha":732,"x_min":49,"x_max":699,"o":"m 261 -14 q 103 46 157 -14 q 49 213 49 106 q 58 304 49 251 l 125 690 l 283 690 l 219 319 q 210 240 210 265 q 315 121 210 121 q 450 185 394 121 l 540 690 l 699 690 l 576 0 l 428 0 l 435 58 q 353 5 394 24 q 261 -14 313 -14 m 331 903 l 603 1051 l 578 883 l 308 794 l 331 903 z "},"ŭ":{"ha":732,"x_min":49,"x_max":699,"o":"m 261 -14 q 103 46 157 -14 q 49 213 49 106 q 58 304 49 251 l 125 690 l 283 690 l 219 319 q 210 240 210 265 q 315 121 210 121 q 450 185 394 121 l 540 690 l 699 690 l 576 0 l 428 0 l 435 58 q 353 5 394 24 q 261 -14 313 -14 m 446 811 q 313 853 361 811 q 264 961 264 896 q 269 999 264 983 l 379 999 q 376 976 376 985 q 397 928 376 944 q 454 911 417 911 q 527 934 497 911 q 564 999 557 957 l 686 999 q 605 862 667 913 q 446 811 543 811 z "},"û":{"ha":732,"x_min":49,"x_max":699,"o":"m 261 -14 q 103 46 157 -14 q 49 213 49 106 q 58 304 49 251 l 125 690 l 283 690 l 219 319 q 210 240 210 265 q 315 121 210 121 q 450 185 394 121 l 540 690 l 699 690 l 576 0 l 428 0 l 435 58 q 353 5 394 24 q 261 -14 313 -14 m 296 894 l 478 1031 l 628 876 l 607 774 l 450 888 l 272 789 l 296 894 z "},"ȕ":{"ha":732,"x_min":49,"x_max":699,"o":"m 261 -14 q 103 46 157 -14 q 49 213 49 106 q 58 304 49 251 l 125 690 l 283 690 l 219 319 q 210 240 210 265 q 315 121 210 121 q 450 185 394 121 l 540 690 l 699 690 l 576 0 l 428 0 l 435 58 q 353 5 394 24 q 261 -14 313 -14 m 286 813 l 181 1054 l 333 1054 l 390 813 l 286 813 m 486 813 l 392 1054 l 544 1054 l 590 813 l 486 813 z "},"ü":{"ha":732,"x_min":49,"x_max":699,"o":"m 261 -14 q 103 46 157 -14 q 49 213 49 106 q 58 304 49 251 l 125 690 l 283 690 l 219 319 q 210 240 210 265 q 315 121 210 121 q 450 185 394 121 l 540 690 l 699 690 l 576 0 l 428 0 l 435 58 q 353 5 394 24 q 261 -14 313 -14 m 261 942 l 388 942 l 364 821 l 238 821 l 261 942 m 531 942 l 657 942 l 633 821 l 507 821 l 531 942 z "},"ụ":{"ha":732,"x_min":49,"x_max":699,"o":"m 261 -14 q 103 46 157 -14 q 49 213 49 106 q 58 304 49 251 l 125 690 l 283 690 l 219 319 q 210 240 210 265 q 315 121 210 121 q 450 185 394 121 l 540 690 l 699 690 l 576 0 l 428 0 l 435 58 q 353 5 394 24 q 261 -14 313 -14 m 165 -112 l 300 -112 l 275 -244 l 140 -244 l 165 -112 z "},"ù":{"ha":732,"x_min":49,"x_max":699,"o":"m 261 -14 q 103 46 157 -14 q 49 213 49 106 q 58 304 49 251 l 125 690 l 283 690 l 219 319 q 210 240 210 265 q 315 121 210 121 q 450 185 394 121 l 540 690 l 699 690 l 576 0 l 428 0 l 435 58 q 353 5 394 24 q 261 -14 313 -14 m 318 897 l 346 1050 l 575 896 l 557 794 l 318 897 z "},"ủ":{"ha":732,"x_min":49,"x_max":699,"o":"m 261 -14 q 103 46 157 -14 q 49 213 49 106 q 58 304 49 251 l 125 690 l 283 690 l 219 319 q 210 240 210 265 q 315 121 210 121 q 450 185 394 121 l 540 690 l 699 690 l 576 0 l 428 0 l 435 58 q 353 5 394 24 q 261 -14 313 -14 m 401 788 q 460 840 442 819 q 479 888 479 861 q 468 915 479 906 q 436 925 457 925 q 344 900 401 925 l 336 978 q 451 1003 396 1003 q 535 978 503 1003 q 568 907 567 953 q 535 817 568 856 q 442 738 503 778 l 401 788 z "},"ư":{"ha":732,"x_min":49,"x_max":874,"o":"m 874 793 q 808 671 860 722 q 682 597 756 619 l 576 0 l 428 0 l 435 58 q 353 5 394 24 q 261 -14 313 -14 q 103 46 157 -14 q 49 213 49 106 q 58 304 49 251 l 125 690 l 283 690 l 219 319 q 210 240 210 265 q 315 121 210 121 q 450 185 394 121 l 540 690 l 606 690 q 735 793 715 690 l 874 793 z "},"ứ":{"ha":732,"x_min":49,"x_max":874,"o":"m 874 793 q 808 671 860 722 q 682 597 756 619 l 576 0 l 428 0 l 435 58 q 353 5 394 24 q 261 -14 313 -14 q 103 46 157 -14 q 49 213 49 106 q 58 304 49 251 l 125 690 l 283 690 l 219 319 q 210 240 210 265 q 315 121 210 121 q 450 185 394 121 l 540 690 l 606 690 q 735 793 715 690 l 874 793 m 331 903 l 603 1051 l 578 883 l 308 794 l 331 903 z "},"ự":{"ha":732,"x_min":49,"x_max":874,"o":"m 874 793 q 808 671 860 722 q 682 597 756 619 l 576 0 l 428 0 l 435 58 q 353 5 394 24 q 261 -14 313 -14 q 103 46 157 -14 q 49 213 49 106 q 58 304 49 251 l 125 690 l 283 690 l 219 319 q 210 240 210 265 q 315 121 210 121 q 450 185 394 121 l 540 690 l 606 690 q 735 793 715 690 l 874 793 m 165 -112 l 300 -112 l 275 -244 l 140 -244 l 165 -112 z "},"ừ":{"ha":732,"x_min":49,"x_max":874,"o":"m 874 793 q 808 671 860 722 q 682 597 756 619 l 576 0 l 428 0 l 435 58 q 353 5 394 24 q 261 -14 313 -14 q 103 46 157 -14 q 49 213 49 106 q 58 304 49 251 l 125 690 l 283 690 l 219 319 q 210 240 210 265 q 315 121 210 121 q 450 185 394 121 l 540 690 l 606 690 q 735 793 715 690 l 874 793 m 318 897 l 346 1050 l 575 896 l 557 794 l 318 897 z "},"ử":{"ha":732,"x_min":49,"x_max":874,"o":"m 874 793 q 808 671 860 722 q 682 597 756 619 l 576 0 l 428 0 l 435 58 q 353 5 394 24 q 261 -14 313 -14 q 103 46 157 -14 q 49 213 49 106 q 58 304 49 251 l 125 690 l 283 690 l 219 319 q 210 240 210 265 q 315 121 210 121 q 450 185 394 121 l 540 690 l 606 690 q 735 793 715 690 l 874 793 m 401 788 q 460 840 442 819 q 479 888 479 861 q 468 915 479 906 q 436 925 457 925 q 344 900 401 925 l 336 978 q 451 1003 396 1003 q 535 978 503 1003 q 568 907 567 953 q 535 817 568 856 q 442 738 503 778 l 401 788 z "},"ữ":{"ha":732,"x_min":49,"x_max":874,"o":"m 874 793 q 808 671 860 722 q 682 597 756 619 l 576 0 l 428 0 l 435 58 q 353 5 394 24 q 261 -14 313 -14 q 103 46 157 -14 q 49 213 49 106 q 58 304 49 251 l 125 690 l 283 690 l 219 319 q 210 240 210 265 q 315 121 210 121 q 450 185 394 121 l 540 690 l 606 690 q 735 793 715 690 l 874 793 m 554 804 q 510 812 533 804 q 456 835 488 819 q 369 864 397 864 q 333 851 347 864 q 314 815 318 838 l 207 815 q 258 937 221 894 q 353 979 296 979 q 399 970 376 979 q 451 946 422 961 q 494 926 472 935 q 532 918 515 918 q 585 972 576 918 l 694 972 q 644 845 679 886 q 554 804 610 804 z "},"ű":{"ha":732,"x_min":49,"x_max":788,"o":"m 261 -14 q 103 46 157 -14 q 49 213 49 106 q 58 304 49 251 l 125 690 l 283 690 l 219 319 q 210 240 210 265 q 315 121 210 121 q 450 185 394 121 l 540 690 l 699 690 l 576 0 l 428 0 l 435 58 q 353 5 394 24 q 261 -14 313 -14 m 425 1054 l 576 1054 l 382 813 l 278 813 l 425 1054 m 636 1054 l 788 1054 l 583 813 l 479 813 l 636 1054 z "},"ȗ":{"ha":732,"x_min":49,"x_max":699,"o":"m 261 -14 q 103 46 157 -14 q 49 213 49 106 q 58 304 49 251 l 125 690 l 283 690 l 219 319 q 210 240 210 265 q 315 121 210 121 q 450 185 394 121 l 540 690 l 699 690 l 576 0 l 428 0 l 435 58 q 353 5 394 24 q 261 -14 313 -14 m 465 999 q 599 956 551 999 q 646 844 646 913 q 643 811 646 833 l 529 811 q 531 829 531 819 q 508 881 531 863 q 449 899 486 899 q 376 876 406 899 q 339 811 346 853 l 222 811 q 301 944 235 890 q 465 999 368 999 z "},"ū":{"ha":732,"x_min":49,"x_max":699,"o":"m 261 -14 q 103 46 157 -14 q 49 213 49 106 q 58 304 49 251 l 125 690 l 283 690 l 219 319 q 210 240 210 265 q 315 121 210 121 q 450 185 394 121 l 540 690 l 699 690 l 576 0 l 428 0 l 435 58 q 353 5 394 24 q 261 -14 313 -14 m 240 939 l 681 939 l 660 831 l 218 831 l 240 939 z "}}}
